<svg width="1426" height="280" viewBox="0 0 1426 280" fill="none" xmlns="http://www.w3.org/2000/svg">
<path style="mix-blend-mode:screen" opacity="0.3" fill-rule="evenodd" clip-rule="evenodd" d="M155.036 121.004C155.036 121.004 195.481 127.032 215.206 134.204C234.93 141.366 237.765 151.907 237.765 151.907C237.765 151.907 251.563 161.238 263.597 163.965C275.631 166.691 285.16 156.818 294.871 156.646C304.572 156.474 316.453 179.117 316.453 179.117L372.238 181.54L408.107 183.981C408.107 183.981 364.199 185.648 355.503 187.034C346.797 188.41 293.124 192.548 283.423 192.72C273.722 192.892 269.569 185.508 257.525 187.613C245.49 189.719 231.798 192.208 218.506 190.43C205.214 188.651 181.67 181.62 169.98 177.026C158.289 172.432 142.501 162.876 142.501 162.876L117.9 143.889L86.5994 131.453L0 27.0231C0 27.0231 77.6627 49.0608 105.72 65.0856C116.328 71.1467 155.046 121.004 155.046 121.004L155.036 121.004Z" fill="url(#paint0_linear_1108_16695)"/>
<path style="mix-blend-mode:screen" opacity="0.2" fill-rule="evenodd" clip-rule="evenodd" d="M631.3 104.08C631.3 104.08 593.79 120.36 573.26 124.71C552.73 129.07 544.75 121.62 544.75 121.62C544.75 121.62 528.11 121 516.45 125.05C504.8 129.1 501.48 134.02 493.34 139.3C485.2 144.58 467.23 124.5 467.23 124.5L424.42 134.78L368 145.27C368 145.27 415.38 136.22 425.92 121.41C436.8 106.13 476.27 116.41 484.41 111.14C492.55 105.87 499.99 109.93 509.09 101.78C518.19 93.62 528.49 84.27 540.71 78.75C552.93 73.23 576.63 66.73 588.98 64.45C601.33 62.17 619.78 61.91 619.78 61.91L650.7 65L683.85 59L812.58 101.81C812.58 101.81 735.01 124.19 702.73 125.44C690.52 125.91 631.29 104.08 631.29 104.08H631.3Z" fill="url(#paint1_linear_1108_16695)"/>
<path style="mix-blend-mode:screen" opacity="0.3" fill-rule="evenodd" clip-rule="evenodd" d="M1285.4 137.28C1285.4 137.28 1246.24 149.06 1227.75 158.98C1209.26 168.9 1207.97 179.74 1207.97 179.74C1207.97 179.74 1195.66 190.96 1184.14 195.38C1172.62 199.81 1161.77 191.41 1152.14 192.63C1142.51 193.86 1134.01 217.97 1134.01 217.97L1079.15 228.38L1044 235.96C1044 235.96 1087.69 231.31 1096.5 231.42C1105.31 231.53 1159.02 227.92 1168.65 226.69C1178.28 225.46 1181.33 217.56 1193.54 217.91C1205.76 218.26 1219.66 218.76 1232.56 215.09C1245.46 211.42 1267.75 201.08 1278.66 194.85C1289.57 188.62 1303.82 176.9 1303.82 176.9L1325.44 154.58L1354.63 137.77L1425.33 21.9999C1425.33 21.9999 1351.64 54.9699 1326.18 74.8599C1316.55 82.3799 1285.4 137.28 1285.4 137.28Z" fill="url(#paint2_linear_1108_16695)"/>
<path style="mix-blend-mode:screen" opacity="0.3" fill-rule="evenodd" clip-rule="evenodd" d="M650.629 192.296C650.629 192.296 720.501 159.655 758.973 150.378C797.445 141.1 812.872 154.715 812.872 154.715C812.872 154.715 844.272 155.016 866.035 146.776C887.798 138.535 893.777 129.088 908.864 118.717C923.951 108.345 956.256 122.205 956.256 122.205L1044.46 105.668L1135 86C1135 86 1044.74 107.761 1032.5 119C1020.26 130.238 942.244 160.956 927.157 171.328C912.07 181.699 897.85 174.42 881.122 190.26C864.394 206.1 845.46 224.278 822.716 235.328C799.973 246.378 755.616 259.842 732.458 264.801C709.299 269.742 674.523 271.194 674.523 271.194L616.08 266.97L553.921 280L309 206.005C309 206.005 454.063 159.768 514.864 155.752C537.853 154.224 650.648 192.296 650.648 192.296H650.629Z" fill="url(#paint3_linear_1108_16695)"/>
<defs>
<linearGradient id="paint0_linear_1108_16695" x1="286.373" y1="37.1904" x2="121.677" y2="173.77" gradientUnits="userSpaceOnUse">
<stop stop-color="#B7A17C"/>
<stop offset="1"/>
</linearGradient>
<linearGradient id="paint1_linear_1108_16695" x1="368.004" y1="102.141" x2="812.598" y2="102.112" gradientUnits="userSpaceOnUse">
<stop stop-color="#B7A17C"/>
<stop offset="1"/>
</linearGradient>
<linearGradient id="paint2_linear_1108_16695" x1="1039.85" y1="137.237" x2="1429.53" y2="120.781" gradientUnits="userSpaceOnUse">
<stop stop-color="#B7A17C"/>
<stop offset="1"/>
</linearGradient>
<linearGradient id="paint3_linear_1108_16695" x1="773.147" y1="-23.3015" x2="670.856" y2="315.326" gradientUnits="userSpaceOnUse">
<stop stop-color="#432A47"/>
<stop offset="1"/>
</linearGradient>
</defs>
</svg>
