<svg width="199" height="53" viewBox="0 0 199 53" fill="none" xmlns="http://www.w3.org/2000/svg">
    <g clip-path="url(#clip0_1136_22088)">
        <path d="M73.6953 13.6203H78.6369V31.1025H73.6953V13.6203ZM90.7977 31.4834C88.9813 31.4834 87.3329 31.1025 85.8991 30.2942C84.4616 29.5289 83.3246 28.4691 82.4771 27.0679C81.6333 25.6667 81.2507 24.0967 81.2507 22.3578C81.2507 20.6189 81.6297 19.0489 82.4771 17.6477C83.321 16.2897 84.4616 15.1867 85.8991 14.4215C87.3365 13.6562 88.9813 13.2754 90.7977 13.2754C92.4032 13.2754 93.837 13.5305 95.1064 14.1233C96.4151 14.6766 97.4699 15.4813 98.3173 16.5412L95.1922 19.4261C94.0516 18.025 92.6571 17.346 91.0552 17.346C90.1255 17.346 89.2816 17.5579 88.5629 17.9819C87.8013 18.4058 87.2542 18.9986 86.8323 19.7639C86.4104 20.486 86.1994 21.377 86.1994 22.3506C86.1994 23.3243 86.4104 24.2189 86.8323 24.9805C87.2542 25.7458 87.8049 26.2955 88.5629 26.7194C89.2816 27.1433 90.1255 27.3553 91.0552 27.3553C92.6606 27.3553 94.0551 26.6763 95.1922 25.3182L98.3173 28.1601C97.4735 29.2199 96.4151 30.0283 95.1064 30.6211C93.8406 31.1744 92.4032 31.469 90.7977 31.469V31.4834ZM114.49 27.2835V31.1025H100.513V13.6203H114.154V17.4394H105.369V20.4106H113.096L109.42 24.1039H105.365V27.287H114.486L114.49 27.2835Z" fill="white"/>
        <path d="M87.0826 43.878C88.0945 44.2157 88.8561 44.769 89.4068 45.4912C89.9968 46.2564 90.2935 47.1474 90.2935 48.2073C90.2935 49.7342 89.6607 50.9234 88.4342 51.7281C87.2077 52.576 85.4342 53 83.1136 53H73.6953V35.4746H82.6059C84.8442 35.4746 86.5319 35.8986 87.6726 36.7069C88.8561 37.5548 89.4032 38.6578 89.4032 40.0589C89.4032 40.9068 89.2351 41.629 88.8132 42.308C88.3913 42.9439 87.8406 43.4972 87.0826 43.878ZM187.891 53H182.95V35.4746H190.931C192.493 35.4746 193.845 35.7728 195.028 36.2794C196.169 36.7896 197.099 37.5512 197.732 38.5284C198.321 39.5057 198.661 40.6517 198.661 41.9667C198.661 43.2816 198.364 44.3415 197.774 45.2756C197.184 46.2097 196.337 46.9714 195.239 47.4815L198.997 52.9964H193.72L187.977 44.5103H190.637C191.649 44.5103 192.411 44.2984 192.919 43.8313C193.426 43.4074 193.68 42.7715 193.68 41.9631C193.68 41.1547 193.426 40.5188 192.919 40.0553C192.411 39.6314 191.653 39.3763 190.637 39.3763H187.891V52.9964V53ZM78.594 39.0817V42.4337H81.973C83.6214 42.4337 84.4652 41.8805 84.4652 40.738C84.4652 39.5955 83.6214 39.0817 81.973 39.0817H78.594ZM82.6917 49.3929C84.4223 49.3929 85.3091 48.8396 85.3091 47.654C85.3091 46.4684 84.4223 45.872 82.6917 45.872H78.594V49.3929H82.6917ZM97.7703 53H92.8287V35.4746H100.81C102.372 35.4746 103.724 35.7728 104.907 36.2794C106.048 36.7896 106.978 37.5512 107.61 38.5284C108.2 39.5057 108.54 40.6517 108.54 41.9667C108.54 43.2816 108.243 44.3415 107.653 45.2756C107.063 46.2097 106.216 46.9714 105.118 47.4815L108.876 52.9964H103.599L97.8561 44.5103H100.516C101.528 44.5103 102.29 44.2984 102.798 43.8313C103.305 43.4074 103.559 42.7715 103.559 41.9631C103.559 41.1547 103.305 40.5188 102.798 40.0553C102.29 39.6314 101.532 39.3763 100.516 39.3763H97.7703V52.9964V53ZM125.221 49.1809V53H111.243V35.4746H124.927V39.2937H116.142V42.2649H123.869L120.193 45.9582H116.138V49.1845H125.217L125.221 49.1809ZM139.623 49.6048H132.275L130.924 53H125.896L133.584 35.4746H138.44L146.128 53H141.018L139.623 49.6048ZM138.186 45.9546L135.948 40.3535L133.709 45.9546H138.186ZM154.234 46.6336L152.417 48.6276V53H147.518V35.4746H152.417V42.7715L159.132 35.4746H164.582L157.445 43.2385L164.961 53H159.218L154.234 46.6336ZM180.207 49.1809V53H166.23V35.4746H179.914V39.2937H171.129V42.2649H178.856L175.18 45.9582H171.125V49.1845H180.204L180.207 49.1809Z" fill="#E52C2C"/>
        <path fill-rule="evenodd" clip-rule="evenodd" d="M32.181 0C49.9592 0 64.362 14.4715 64.362 32.3346C64.362 39.6314 61.9555 46.3786 57.9007 51.8108L52.9592 51.3438C56.0414 46.0804 57.4359 40.6087 57.0962 33.7753L45.6076 24.9048L45.7327 14.4248L13.1727 14.6799L13.4266 24.8222C9.92247 27.409 7.43023 29.658 6.62571 33.8615L11.5244 48.6277L6.41474 51.7246C2.40642 46.3391 0 39.5919 0 32.3346C0 14.4715 14.4028 0 32.181 0Z" fill="#E52C2C"/>
        <path fill-rule="evenodd" clip-rule="evenodd" d="M0.632893 51.0061L6.62928 49.9894L10.2192 46.3823L5.78543 34.0772C6.58637 29.8773 8.65668 26.651 11.9105 24.4882V13.498H14.8247V10.3148H16.9379V13.498H26.8211V9.29808H24.2859V7.13525H34.212V9.29808H31.6768V13.498H41.6851V10.3148H43.7983V13.498H47.1773L53.1308 23.0044V25.1277L47.7244 19.0164V23.9385C51.4002 27.2474 54.5253 30.5599 57.0998 33.7826C57.1427 34.9286 57.1856 36.1178 57.1427 37.2208C48.1892 26.9097 39.5325 21.7756 24.4111 20.9278L25.9307 42.2291L28.7197 42.9943L32.8174 41.6794L35.9426 43.4614L36.4503 45.5416L38.8997 44.7368L42.1499 48.4301L45.0212 46.8601L48.865 49.5762L63.7291 51.0205L64.362 53.0145H38.939L35.8997 49.1092L29.9462 49.6624L28.4265 46.1416L22.5124 44.5715L22.1763 47.3739L18.9653 47.0757L17.6566 49.9606L14.1096 49.1954L12.2502 53.0145H0L0.632893 51.0205V51.0061ZM19.6375 34.925C17.1024 35.7729 12.6686 38.7872 11.106 41.3309C11.9928 37.598 15.1179 32.8449 18.9188 30.5096L18.7079 29.4066C15.7079 30.2545 11.0631 34.2029 9.6686 37.131C10.3873 33.0999 13.3837 27.754 18.1143 25.7169L17.8604 24.5277C12.4969 25.5049 8.14536 31.573 7.85216 34.458C9.32891 38.701 10.8092 42.944 12.2431 47.187C13.0869 43.0303 16.7627 37.9789 19.8449 36.1106L19.634 34.9215L19.6375 34.925ZM20.1024 16.5949V18.7182H14.8247V16.5949H20.1024ZM43.7947 16.5949V18.7182H38.5171V16.5949H43.7947ZM35.8961 16.5949V18.7182H30.6184V16.5949H35.8961ZM27.9975 16.5949V18.7182H22.7198V16.5949H27.9975Z" fill="white"/>
    </g>
    <defs>
        <clipPath id="clip0_1136_22088">
            <rect width="199" height="53" fill="white"/>
        </clipPath>
    </defs>
</svg>
