<svg width="461" height="410" viewBox="0 0 461 410" fill="none" xmlns="http://www.w3.org/2000/svg">
<g opacity="0.5">
<g style="mix-blend-mode:exclusion" clip-path="url(#clip0_1105_14307)">
<g style="mix-blend-mode:multiply" filter="url(#filter0_f_1105_14307)">
<path d="M254.885 381.791C348.205 370.761 414.825 285.63 403.687 191.646C392.548 97.6614 307.867 30.4138 214.548 41.4439C121.229 52.474 54.608 137.605 65.7468 231.589C76.8857 325.573 161.566 392.821 254.885 381.791Z" fill="url(#paint0_radial_1105_14307)" style="mix-blend-mode:screen"/>
</g>
<path style="mix-blend-mode:screen" d="M250.148 344.773C321.569 336.343 372.565 271.193 364.052 199.255C355.539 127.317 290.739 75.8331 219.319 84.2623C147.898 92.6914 96.9013 157.842 105.415 229.78C113.928 301.718 178.727 353.202 250.148 344.773Z" fill="url(#paint1_radial_1105_14307)"/>
<path fill-rule="evenodd" clip-rule="evenodd" d="M203.305 92.2895C215.725 89.0314 228.564 87.8052 241.404 88.611C247.841 88.9613 254.279 89.8372 260.611 91.2735C277.894 95.1622 294.617 102.87 309.416 114.571C325.16 126.972 337.02 142.527 344.822 159.623C346.186 162.566 347.376 165.544 348.495 168.592C357.312 192.59 358.396 219.075 351.329 243.948C350.665 246.331 349.895 248.713 349.09 251.06C344.752 263.462 338.315 275.338 329.743 286.234C290.489 336.086 220.238 347.121 167.969 313.419C165.38 311.773 162.826 309.986 160.342 308.059C159.642 307.569 158.978 307.043 158.313 306.518C152.75 302.139 147.712 297.374 143.129 292.294C141.765 290.823 140.505 289.281 139.211 287.74C135.712 283.501 132.598 279.017 129.764 274.392C124.307 265.459 120.073 255.93 117.135 246.05C112.377 230.531 110.837 214.17 112.516 197.985C112.691 196.373 112.901 194.762 113.111 193.115C116.05 172.516 124.272 152.477 138.056 134.89C138.826 133.909 139.595 132.963 140.4 132.052C148.272 122.558 157.333 114.606 167.164 108.195C178.36 100.873 190.605 95.5476 203.34 92.2545L203.305 92.2895Z" fill="url(#paint2_radial_1105_14307)"/>
<g style="mix-blend-mode:multiply" opacity="0.3">
<path fill-rule="evenodd" clip-rule="evenodd" d="M159.484 210.133C159.133 210.868 158.993 211.603 159.098 212.373C160.219 212.513 160.85 214.262 162.181 214.052C162.531 213.072 163.828 211.603 162.567 210.693C162.391 210.553 161.936 210.623 161.726 210.518C161.41 210.378 161.2 210.029 160.885 209.994C160.184 209.924 158.818 210.798 158.152 211.043L159.449 210.099L159.484 210.133Z" fill="#54577F"/>
</g>
<path style="mix-blend-mode:soft-light" fill-rule="evenodd" clip-rule="evenodd" d="M156.749 115.847C156.749 115.847 156.574 116.162 156.469 116.337C155.418 118.716 153.841 120.78 152.195 122.914C151.809 123.369 151.459 124.138 150.969 124.488C150.618 124.768 150.303 124.768 149.953 125.118C149.182 125.853 148.376 126.587 147.57 127.217C146.099 128.302 144.943 130.191 143.787 131.695C142.385 133.515 140.038 134.704 138.847 136.628C137.516 138.728 136.815 141.177 135.239 143.136L134.153 144.5C133.242 145.69 133.522 146.739 133.032 148.454C133.627 149.363 134.888 150.763 134.923 151.917C134.923 152.302 134.818 152.792 134.713 153.177C134.398 154.226 134.223 155.346 133.767 156.36C132.926 158.285 132.086 160.314 130.824 162.028C129.773 163.462 128.512 164.547 127.321 165.807C124.939 168.291 122.522 170.565 121.681 174.063C121.225 175.987 120.805 177.947 120.314 179.871C120.034 180.99 119.579 182.215 119.509 183.334C119.439 184.209 119.614 185.084 119.614 185.958C119.614 187.008 118.948 187.883 118.633 188.897C118.283 190.122 118.458 191.136 118.738 192.326C119.158 193.935 120.525 194.81 121.085 196.244C121.401 197.119 121.19 197.993 121.085 198.833C120.49 202.856 122.732 206.04 123.327 209.924C123.783 212.757 122.557 215.556 122.802 218.425C123.012 221.329 123.713 224.163 124.273 226.997C124.694 228.921 124.378 229.97 123.923 231.755C123.467 233.469 123.187 235.708 123.538 237.457C123.888 239.382 124.273 241.201 124.448 243.125C124.589 244.664 124.203 246.134 124.378 247.673C124.589 249.073 125.289 250.297 125.78 251.592C126.796 254.495 128.477 256.979 129.598 259.813C130.509 262.157 130.614 265.166 132.611 266.915C133.312 267.545 133.837 267.755 134.643 268.105C135.799 268.63 136.675 269.714 137.726 270.449C138.322 270.869 138.952 271.009 139.618 271.289C140.459 271.638 141.229 272.233 142.14 272.443C143.612 272.758 145.188 272.303 146.659 272.443C148.376 272.583 149.602 273.633 150.513 274.997C151.459 276.432 152.405 277.936 153.246 279.44C154.577 281.714 154.892 284.758 156.609 286.822C157.275 287.592 158.22 287.907 159.061 288.327C160.077 288.851 161.198 289.481 162.144 290.111C163.16 290.776 163.966 291.615 164.667 292.595C165.157 293.295 165.332 293.994 165.612 294.834C165.753 295.184 165.648 295.639 165.753 295.989C165.963 296.653 166.453 297.108 166.769 297.738C167.084 298.368 167.89 299.767 167.75 300.502C167.434 302.041 164.877 300.712 164.982 301.936C165.052 302.811 166.523 303.371 167.084 303.93C167.82 304.63 168.555 305.75 169.011 306.659C169.957 308.548 169.887 309.458 171.848 310.298C173.46 310.997 175.001 311.382 176.718 311.627C178.82 311.907 179.976 313.307 181.798 314.111C182.744 314.566 183.479 315.371 184.32 316C185.161 316.595 186.072 316.735 186.983 317.19C187.613 317.505 188.629 318.135 188.98 318.764C189.225 319.219 189.05 319.884 189.12 320.409C189.295 321.423 189.926 321.948 190.521 322.718C191.397 323.907 192.273 324.747 193.429 325.657C181.027 321.318 169.151 314.881 158.291 306.309C108.438 267.055 97.4027 196.804 131.105 144.535C132.751 141.946 134.538 139.392 136.43 136.908C136.92 136.209 137.446 135.544 137.971 134.879C143.647 127.707 149.953 121.34 156.784 115.777L156.749 115.847Z" fill="url(#paint3_radial_1105_14307)"/>
<g style="mix-blend-mode:multiply" opacity="0.3">
<path fill-rule="evenodd" clip-rule="evenodd" d="M355.879 218.075C355.528 224.513 354.652 230.95 353.216 237.282C349.327 254.565 341.62 271.289 329.919 286.088C317.517 301.831 301.962 313.691 284.866 321.493C281.923 322.858 278.946 324.047 275.898 325.167C270.713 319.359 274.041 302.671 274.882 296.548C277.965 274.857 281.503 252.081 294.921 234.763C297.443 231.545 300.911 228.291 304.975 228.711C307.007 228.921 308.864 230.04 310.896 229.97C313.593 229.9 315.906 227.766 318.603 227.661C320.635 227.591 322.562 228.711 324.559 229.061C329.043 229.796 332.546 226.822 335.98 223.498C339.553 220.069 343.056 216.326 347.681 215.696C348.697 215.556 349.678 215.591 350.694 215.801C352.55 216.116 354.337 216.956 355.879 218.145V218.075Z" fill="#5457A6"/>
</g>
<g style="mix-blend-mode:multiply" opacity="0.3">
<path fill-rule="evenodd" clip-rule="evenodd" d="M298.773 209.399C296.741 210.658 297.757 214.227 299.999 215.066C302.241 215.906 304.763 214.857 306.76 213.492C309.142 211.813 311.279 209.364 311.279 206.46C311.279 201.597 304.623 198.798 300.349 201.142C296.075 203.521 294.428 209.014 295.024 213.842L298.738 209.364L298.773 209.399Z" fill="#5457A6"/>
</g>
<g style="mix-blend-mode:multiply" opacity="0.3">
<path fill-rule="evenodd" clip-rule="evenodd" d="M352.2 179.976C351.009 180.745 349.748 181.34 348.382 181.795C348.137 181.9 347.891 181.935 347.646 182.005C343.792 182.985 339.764 182.39 335.84 181.76C331.005 180.99 326.066 180.186 321.266 179.066C315.415 177.702 309.845 175.777 304.73 172.664C296.568 167.661 290.367 159.964 282.449 154.611C278.49 151.952 274.111 149.853 270.573 146.669C264.162 140.897 261.219 132.29 258.627 124.069C255.474 114.098 247.766 100.383 251.34 89.7125C271.939 92.6513 291.978 100.873 309.565 114.657C310.546 115.427 311.492 116.197 312.403 117.001C321.897 124.873 329.849 133.935 336.26 143.766C343.582 154.961 348.907 167.206 352.2 179.941V179.976Z" fill="#5457A6"/>
</g>
<g style="mix-blend-mode:multiply" opacity="0.3">
<path fill-rule="evenodd" clip-rule="evenodd" d="M260.762 180.291C258.625 179.521 259.081 175.917 261.148 174.973C263.215 174.028 265.667 175.043 267.454 176.477C271.097 179.451 273.094 184.874 270.922 189.037C268.75 193.2 261.848 194.285 259.326 190.297C258.59 189.107 258.31 187.708 258.135 186.308C257.82 183.719 257.82 181.095 258.135 178.471L260.797 180.291H260.762Z" fill="#5457A6"/>
</g>
<g style="mix-blend-mode:multiply" opacity="0.3">
<path fill-rule="evenodd" clip-rule="evenodd" d="M252.076 301.866C257.296 297.633 262.551 293.365 266.615 288.012C270.679 282.659 273.411 276.047 272.886 269.364C272.36 262.682 267.946 256.105 261.465 254.286C257.576 253.201 253.407 253.831 249.554 255.02C236.031 259.149 224.225 272.758 225.135 287.627C226.046 302.986 239.499 312.117 252.111 301.901L252.076 301.866Z" fill="#5457A6"/>
</g>
<g style="mix-blend-mode:multiply" opacity="0.3">
<path fill-rule="evenodd" clip-rule="evenodd" d="M259.887 241.131C257.995 242.39 255.473 239.417 256.559 237.387C257.645 235.393 260.623 235.148 262.585 236.303C264.546 237.457 265.738 239.557 266.824 241.586C264.511 243.195 260.868 242.25 259.642 239.731L259.887 241.131Z" fill="#5457A6"/>
</g>
<g style="mix-blend-mode:multiply" opacity="0.3">
<path fill-rule="evenodd" clip-rule="evenodd" d="M209.089 110.494C210.491 113.503 211.857 116.617 212.067 119.94C212.382 125.223 209.475 130.331 205.516 133.935C201.557 137.538 196.688 139.847 191.853 142.156C187.229 144.325 182.044 146.529 177.209 144.885C174.266 143.87 171.954 141.526 169.817 139.252C166.664 135.929 163.511 132.605 160.358 129.316C158.186 127.042 155.033 123.614 152.195 119.765C153.667 118.401 155.208 117.141 156.75 115.847C160.989 112.348 165.473 109.235 170.097 106.401C179.031 100.943 188.56 96.7096 198.439 93.7708C198.825 94.1207 199.175 94.4706 199.56 94.8204C203.904 99.1936 206.497 104.896 209.089 110.529V110.494Z" fill="#5457A6"/>
</g>
<g style="mix-blend-mode:multiply" opacity="0.3">
<path fill-rule="evenodd" clip-rule="evenodd" d="M158.677 163.742C156.995 163.253 155.383 165.037 153.667 164.792C151.144 164.442 151.284 160.664 152.406 158.355C154.437 154.121 157.766 149.923 162.425 149.188C165.123 148.768 167.89 149.608 170.413 150.588C173.145 151.637 175.913 153.037 177.489 155.486C179.346 158.39 179.101 162.273 177.7 165.422C176.298 168.57 173.916 171.194 171.569 173.713C169.887 175.533 167.82 177.527 165.368 177.282C163.651 177.142 162.25 175.917 161.094 174.623C158.291 171.474 156.504 167.486 155.979 163.323L158.677 163.707V163.742Z" fill="#5457A6"/>
</g>
<g style="mix-blend-mode:multiply" opacity="0.3">
<path fill-rule="evenodd" clip-rule="evenodd" d="M203.834 282.134C204.955 282.659 206.146 283.114 207.407 283.149C208.598 283.149 209.754 282.799 210.84 282.274C216.971 279.37 220.404 272.408 220.93 265.621C221.49 258.834 219.669 252.116 217.847 245.574C216.586 241.061 215.044 236.093 211.016 233.679C200.05 227.067 183.374 237.982 182.639 249.982C181.903 262.017 193.569 277.376 203.834 282.134Z" fill="#5457A6"/>
</g>
<path style="mix-blend-mode:screen" fill-rule="evenodd" clip-rule="evenodd" d="M81.1105 253.271C94.8085 302.811 123.641 338.076 145.537 332.024C167.432 326.006 174.089 280.945 160.391 231.405C146.693 181.865 117.86 146.599 95.9646 152.652C74.0688 158.704 67.4125 203.766 81.1105 253.271Z" fill="url(#paint4_radial_1105_14307)"/>
</g>
<g style="mix-blend-mode:screen" opacity="0.9" clip-path="url(#clip1_1105_14307)">
<g filter="url(#filter1_f_1105_14307)">
<path d="M347.421 323.211C408.198 262.434 408.618 164.315 348.359 104.056C288.1 43.7962 189.98 44.2159 129.203 104.993C68.4258 165.77 68.0061 263.89 128.265 324.149C188.525 384.408 286.644 383.989 347.421 323.211Z" fill="#4B249F"/>
</g>
<path style="mix-blend-mode:screen" d="M325.051 306.051C376.897 254.204 377.25 170.498 325.84 119.087C274.429 67.6766 190.723 68.0298 138.876 119.876C87.0298 171.723 86.6765 255.429 138.087 306.84C189.498 358.25 273.204 357.897 325.051 306.051Z" fill="url(#paint5_radial_1105_14307)"/>
<path fill-rule="evenodd" clip-rule="evenodd" d="M359.759 208.436C359.759 276.857 304.294 332.322 235.872 332.322C177.716 332.322 128.934 292.256 115.583 238.236C113.233 228.692 111.973 218.715 111.973 208.436C111.973 203.893 112.222 199.404 112.695 194.993C119.403 132.898 171.993 84.549 235.872 84.549C304.294 84.549 359.759 140.014 359.759 208.436Z" fill="url(#paint6_radial_1105_14307)"/>
</g>
</g>
<defs>
<filter id="filter0_f_1105_14307" x="19.5308" y="-4.74045" width="430.372" height="432.716" filterUnits="userSpaceOnUse" color-interpolation-filters="sRGB">
<feFlood flood-opacity="0" result="BackgroundImageFix"/>
<feBlend mode="normal" in="SourceGraphic" in2="BackgroundImageFix" result="shape"/>
<feGaussianBlur stdDeviation="22.5" result="effect1_foregroundBlur_1105_14307"/>
</filter>
<filter id="filter1_f_1105_14307" x="24.3442" y="0.134201" width="427.936" height="427.936" filterUnits="userSpaceOnUse" color-interpolation-filters="sRGB">
<feFlood flood-opacity="0" result="BackgroundImageFix"/>
<feBlend mode="normal" in="SourceGraphic" in2="BackgroundImageFix" result="shape"/>
<feGaussianBlur stdDeviation="29.5" result="effect1_foregroundBlur_1105_14307"/>
</filter>
<radialGradient id="paint0_radial_1105_14307" cx="0" cy="0" r="1" gradientUnits="userSpaceOnUse" gradientTransform="translate(230.63 177.617) rotate(-96.7591) scale(171.093 169.885)">
<stop stop-color="#008CBF"/>
<stop offset="0.14" stop-color="#0088BA"/>
<stop offset="0.29" stop-color="#007FAE"/>
<stop offset="0.43" stop-color="#007099"/>
<stop offset="0.58" stop-color="#005B7C"/>
<stop offset="0.73" stop-color="#004057"/>
<stop offset="0.88" stop-color="#215D72"/>
<stop offset="1" stop-color="#1D5164"/>
</radialGradient>
<radialGradient id="paint1_radial_1105_14307" cx="0" cy="0" r="1" gradientUnits="userSpaceOnUse" gradientTransform="translate(231.754 183.968) rotate(-96.7591) scale(130.945 130.021)">
<stop stop-color="#60B7FF"/>
<stop offset="0.22" stop-color="#5FB5FC"/>
<stop offset="0.36" stop-color="#5BAFF3"/>
<stop offset="0.47" stop-color="#56A4E5"/>
<stop offset="0.57" stop-color="#4E95D0"/>
<stop offset="0.66" stop-color="#4482B6"/>
<stop offset="0.75" stop-color="#386B95"/>
<stop offset="0.83" stop-color="#294F6E"/>
<stop offset="0.91" stop-color="#182F41"/>
<stop offset="0.98" stop-color="#060B0F"/>
<stop offset="1"/>
</radialGradient>
<radialGradient id="paint2_radial_1105_14307" cx="0" cy="0" r="1" gradientUnits="userSpaceOnUse" gradientTransform="translate(222.703 304.805) rotate(-120.256) scale(196.329 196.198)">
<stop stop-color="#6247B5"/>
<stop offset="0.23" stop-color="#5F45B3"/>
<stop offset="0.4" stop-color="#5541AD"/>
<stop offset="0.54" stop-color="#4539A4"/>
<stop offset="0.68" stop-color="#2F2E97"/>
<stop offset="0.8" stop-color="#122086"/>
<stop offset="0.85" stop-color="#061B7F"/>
</radialGradient>
<radialGradient id="paint3_radial_1105_14307" cx="0" cy="0" r="1" gradientUnits="userSpaceOnUse" gradientTransform="translate(126.297 229.886) rotate(-51.7022) scale(78.2689 78.2936)">
<stop stop-color="white"/>
<stop offset="1" stop-color="#A091CB"/>
</radialGradient>
<radialGradient id="paint4_radial_1105_14307" cx="0" cy="0" r="1" gradientUnits="userSpaceOnUse" gradientTransform="translate(141.809 236.538) rotate(164.59) scale(41.275 93.1424)">
<stop stop-color="#00B7FF"/>
<stop offset="0.08" stop-color="#0091CA"/>
<stop offset="0.17" stop-color="#006F9B"/>
<stop offset="0.26" stop-color="#005171"/>
<stop offset="0.36" stop-color="#00384E"/>
<stop offset="0.46" stop-color="#002331"/>
<stop offset="0.56" stop-color="#00131B"/>
<stop offset="0.68" stop-color="#00080C"/>
<stop offset="0.81" stop-color="#000202"/>
<stop offset="1"/>
</radialGradient>
<radialGradient id="paint5_radial_1105_14307" cx="0" cy="0" r="1" gradientUnits="userSpaceOnUse" gradientTransform="translate(237.177 206.385) rotate(-45) scale(132.529 131.42)">
<stop stop-color="#E4CBFF"/>
<stop offset="0.22" stop-color="#E1C8FC"/>
<stop offset="0.36" stop-color="#DAC2F3"/>
<stop offset="0.47" stop-color="#CDB6E5"/>
<stop offset="0.57" stop-color="#BAA6D0"/>
<stop offset="0.66" stop-color="#A291B6"/>
<stop offset="0.75" stop-color="#857795"/>
<stop offset="0.83" stop-color="#62586E"/>
<stop offset="0.91" stop-color="#3A3441"/>
<stop offset="0.98" stop-color="#0E0C0F"/>
<stop offset="1"/>
</radialGradient>
<radialGradient id="paint6_radial_1105_14307" cx="0" cy="0" r="1" gradientUnits="userSpaceOnUse" gradientTransform="translate(237.198 174.96) scale(141.793 141.793)">
<stop stop-color="#F6FFFF"/>
<stop offset="0.5" stop-color="#B8D1FF"/>
<stop offset="1" stop-color="#7EA6FF"/>
</radialGradient>
<clipPath id="clip0_1105_14307">
<rect width="461" height="410" fill="white"/>
</clipPath>
<clipPath id="clip1_1105_14307">
<rect width="445" height="406" fill="white" transform="translate(9)"/>
</clipPath>
</defs>
</svg>
