<svg width="734" height="676" viewBox="0 0 734 676" fill="none" xmlns="http://www.w3.org/2000/svg">
<g clip-path="url(#clip0_1105_11618)">
<path fill-rule="evenodd" clip-rule="evenodd" d="M171.504 262.383L197.323 270.417C199.847 271.206 201.603 273.201 202.06 275.814L204.677 290.738C205.098 293.103 204.333 295.343 202.581 296.986C200.812 298.63 198.536 299.201 196.201 298.617L47.6878 260.961C44.7751 260.218 42.7518 257.822 42.5152 254.815L40.544 229.759C40.3637 227.469 41.2224 225.426 42.9717 223.94C44.7223 222.469 46.8942 221.969 49.1183 222.531L165.315 252.287C167.86 252.934 169.684 254.797 170.308 257.35L171.52 262.382L171.504 262.383Z" fill="#413D3D"/>
<path fill-rule="evenodd" clip-rule="evenodd" d="M426.944 405.121L414.142 394.699L413.204 382.779L552.923 365.265L607.781 407.733L608.719 419.653L597.791 433.039L481.802 447.589L426.944 405.121Z" fill="#413D3D"/>
<path fill-rule="evenodd" clip-rule="evenodd" d="M468.063 425.247L607.781 407.733L608.719 419.653L597.806 433.038L481.786 447.591L469 437.167L468.063 425.247Z" fill="#413D3D"/>
<path fill-rule="evenodd" clip-rule="evenodd" d="M544.753 377.431L605.495 420.33L608.719 419.653L607.781 407.733L552.923 365.265L544.753 377.431Z" fill="#363333"/>
<path fill-rule="evenodd" clip-rule="evenodd" d="M536.999 384.328L542.932 390.571L597.791 433.039L608.719 419.653L553.861 377.185L536.999 384.328Z" fill="#282524"/>
<path fill-rule="evenodd" clip-rule="evenodd" d="M413.204 382.779L552.923 365.265L553.861 377.185L542.948 390.57L426.928 405.123L414.142 394.699L413.204 382.779Z" fill="#413D3D"/>
<path fill-rule="evenodd" clip-rule="evenodd" d="M426.944 405.121L481.802 447.589L597.791 433.039L542.932 390.571L426.944 405.121Z" fill="#282524"/>
<path fill-rule="evenodd" clip-rule="evenodd" d="M220.917 289.053L208.115 278.63L207.179 266.726L346.897 249.211L401.756 291.68L402.692 303.584L391.765 316.986L275.775 331.521L220.917 289.053Z" fill="#413D3D"/>
<path fill-rule="evenodd" clip-rule="evenodd" d="M262.037 309.194L401.756 291.68L402.693 303.584L391.781 316.985L275.744 331.523L262.974 321.098L262.037 309.194Z" fill="#413D3D"/>
<path fill-rule="evenodd" clip-rule="evenodd" d="M338.726 261.362L399.469 304.277L402.692 303.584L401.756 291.68L346.897 249.211L338.726 261.362Z" fill="#363333"/>
<path fill-rule="evenodd" clip-rule="evenodd" d="M330.972 268.259L336.907 274.518L391.765 316.986L402.692 303.584L347.834 261.116L330.972 268.259Z" fill="#282524"/>
<path fill-rule="evenodd" clip-rule="evenodd" d="M207.179 266.726L346.897 249.211L347.834 261.116L336.922 274.517L220.886 289.055L208.115 278.63L207.179 266.726Z" fill="#413D3D"/>
<path fill-rule="evenodd" clip-rule="evenodd" d="M220.917 289.053L275.775 331.521L391.765 316.986L336.907 274.518L220.917 289.053Z" fill="#282524"/>
<path fill-rule="evenodd" clip-rule="evenodd" d="M356.274 228.86L346.573 220.969L345.862 211.932L451.758 198.662L493.341 230.855L494.05 239.876L485.769 250.029L397.857 261.053L356.274 228.86Z" fill="#413D3D"/>
<path fill-rule="evenodd" clip-rule="evenodd" d="M387.445 244.124L493.341 230.855L494.05 239.876L485.784 250.028L397.841 261.054L388.156 253.162L387.445 244.124Z" fill="#413D3D"/>
<path fill-rule="evenodd" clip-rule="evenodd" d="M445.568 207.882L491.598 240.399L494.05 239.876L493.341 230.855L451.758 198.662L445.568 207.882Z" fill="#363333"/>
<path fill-rule="evenodd" clip-rule="evenodd" d="M439.689 213.095L444.186 217.836L485.769 250.029L494.05 239.876L452.468 207.684L439.689 213.095Z" fill="#282524"/>
<path fill-rule="evenodd" clip-rule="evenodd" d="M345.862 211.932L451.758 198.662L452.468 207.684L444.202 217.835L356.259 228.861L346.573 220.969L345.862 211.932Z" fill="#413D3D"/>
<path fill-rule="evenodd" clip-rule="evenodd" d="M356.274 228.86L397.857 261.053L485.769 250.029L444.186 217.836L356.274 228.86Z" fill="#282524"/>
<path fill-rule="evenodd" clip-rule="evenodd" d="M490.352 217.983C488.255 218.242 486.653 220.202 486.818 222.306L487.972 236.968C488.139 239.087 489.999 240.603 492.111 240.343C494.208 240.084 495.81 238.123 495.643 236.004L494.49 221.342C494.323 219.222 492.463 217.707 490.351 217.967L490.352 217.983Z" fill="#282524"/>
<path fill-rule="evenodd" clip-rule="evenodd" d="M489.207 203.633C488.338 203.748 487.694 204.536 487.763 205.409L489.869 232.178C489.937 233.051 490.691 233.666 491.561 233.55C492.431 233.45 493.073 232.647 493.005 231.775L490.899 205.005C490.83 204.132 490.076 203.518 489.206 203.617L489.207 203.633Z" fill="#282524"/>
<path fill-rule="evenodd" clip-rule="evenodd" d="M494.416 184.331C493.655 184.422 493.083 185.126 493.144 185.905L497.431 240.394C497.491 241.158 498.162 241.717 498.923 241.61C499.684 241.518 500.256 240.815 500.194 240.036L495.908 185.546C495.847 184.783 495.176 184.224 494.416 184.331Z" fill="#282524"/>
<path fill-rule="evenodd" clip-rule="evenodd" d="M375.482 269.68L362.68 259.258L361.744 247.354L501.462 229.839L556.321 272.307L557.258 284.212L546.33 297.614L430.34 312.149L375.482 269.68Z" fill="#413D3D"/>
<path fill-rule="evenodd" clip-rule="evenodd" d="M416.602 289.822L556.321 272.307L557.257 284.212L546.346 297.613L430.309 312.151L417.539 301.726L416.602 289.822Z" fill="#413D3D"/>
<path fill-rule="evenodd" clip-rule="evenodd" d="M493.291 241.99L554.034 284.904L557.257 284.212L556.321 272.307L501.462 229.839L493.291 241.99Z" fill="#363333"/>
<path fill-rule="evenodd" clip-rule="evenodd" d="M485.538 248.887L491.472 255.146L546.331 297.614L557.258 284.212L502.399 241.744L485.538 248.887Z" fill="#282524"/>
<path fill-rule="evenodd" clip-rule="evenodd" d="M361.744 247.354L501.462 229.839L502.399 241.744L491.487 255.145L375.451 269.683L362.68 259.258L361.744 247.354Z" fill="#413D3D"/>
<path fill-rule="evenodd" clip-rule="evenodd" d="M375.482 269.68L430.341 312.148L546.331 297.614L491.472 255.146L375.482 269.68Z" fill="#282524"/>
<path d="M370.685 52.0357C371.574 51.9658 372.347 52.6262 372.417 53.5143L382.974 187.705C383.044 188.593 382.384 189.366 381.495 189.436C380.607 189.506 379.833 188.846 379.764 187.958L369.206 53.7669C369.136 52.8788 369.797 52.1056 370.685 52.0357Z" fill="#282524"/>
<path fill-rule="evenodd" clip-rule="evenodd" d="M379.752 167.075C377.702 167.33 376.143 169.24 376.304 171.297L378.04 193.361C378.203 195.434 380.013 196.906 382.078 196.649C384.128 196.394 385.689 194.5 385.526 192.427L383.79 170.363C383.628 168.307 381.802 166.82 379.752 167.075Z" fill="#5B595E"/>
<path fill-rule="evenodd" clip-rule="evenodd" d="M366.751 136.977C366.021 137.065 365.463 137.752 365.521 138.484L368.859 180.914C368.917 181.646 369.57 182.175 370.3 182.086C371.03 181.997 371.588 181.31 371.53 180.578L368.192 138.149C368.133 137.401 367.481 136.888 366.751 136.977Z" fill="#282524"/>
<path fill-rule="evenodd" clip-rule="evenodd" d="M368.831 163.419C367.107 163.633 365.821 165.224 365.956 166.938L366.932 179.341C367.068 181.07 368.576 182.3 370.3 182.086C372.008 181.873 373.31 180.281 373.175 178.567L372.2 166.164C372.063 164.435 370.54 163.206 368.831 163.419Z" fill="#5B595E"/>
<path fill-rule="evenodd" clip-rule="evenodd" d="M304.25 101.224C308.194 100.726 311.72 104.274 312.104 109.151C312.487 114.028 309.599 118.379 305.639 118.878C301.695 119.377 298.169 115.829 297.786 110.952C297.402 106.075 300.29 101.724 304.25 101.224Z" fill="#282524"/>
<path fill-rule="evenodd" clip-rule="evenodd" d="M300.367 247.416C302.054 248.726 303.185 250.738 303.37 253.091C303.731 257.687 300.313 261.876 295.731 262.44C293.495 262.726 291.391 262.092 289.786 260.838L289.67 260.753L254.089 232.886L258.238 229.204L262.829 218.386L300.303 247.405L300.337 247.434L300.367 247.416Z" fill="#282524"/>
<path fill-rule="evenodd" clip-rule="evenodd" d="M256.948 216.795C261.529 216.215 265.533 219.474 265.895 224.071C266.256 228.668 262.838 232.856 258.256 233.42C253.675 234 249.67 230.741 249.309 226.144C248.947 221.547 252.366 217.359 256.947 216.779L256.948 216.795Z" fill="#282524"/>
<path fill-rule="evenodd" clip-rule="evenodd" d="M301.717 264.572C303.404 265.881 304.534 267.893 304.719 270.246C305.081 274.843 301.662 279.031 297.08 279.596C294.845 279.881 292.74 279.247 291.135 277.978L291.018 277.893L255.438 250.026L259.586 246.344L264.177 235.526L301.652 264.545L301.685 264.574L301.717 264.572Z" fill="#282524"/>
<path fill-rule="evenodd" clip-rule="evenodd" d="M258.297 233.95C262.878 233.37 266.883 236.63 267.244 241.226C267.606 245.823 264.187 250.012 259.605 250.576C255.025 251.156 251.02 247.896 250.658 243.3C250.297 238.703 253.715 234.514 258.296 233.935L258.297 233.95Z" fill="#282524"/>
<path fill-rule="evenodd" clip-rule="evenodd" d="M257.258 220.737C259.665 220.438 261.776 222.153 261.966 224.568C262.156 226.983 260.353 229.179 257.946 229.478C255.538 229.777 253.427 228.062 253.239 225.662C253.05 223.263 254.852 221.051 257.258 220.737Z" fill="#282524"/>
<path fill-rule="evenodd" clip-rule="evenodd" d="M258.607 237.892C261.015 237.593 263.126 239.308 263.316 241.724C263.506 244.139 261.702 246.335 259.295 246.634C256.888 246.933 254.777 245.218 254.587 242.802C254.397 240.387 256.2 238.191 258.606 237.877L258.607 237.892Z" fill="#282524"/>
<path fill-rule="evenodd" clip-rule="evenodd" d="M295.64 130.123C296.203 129.702 296.982 129.829 297.388 130.408L328.175 174.096C328.58 174.66 328.44 175.471 327.893 175.89C327.33 176.31 326.552 176.184 326.146 175.604L295.358 131.916C294.952 131.337 295.093 130.542 295.64 130.123Z" fill="#282524"/>
<path fill-rule="evenodd" clip-rule="evenodd" d="M367.821 121.073C367.204 120.808 366.473 121.085 366.191 121.687L342.717 172.356C342.435 172.958 342.711 173.674 343.328 173.939C343.945 174.204 344.676 173.927 344.957 173.324L368.431 122.655C368.713 122.053 368.438 121.338 367.821 121.073Z" fill="#282524"/>
<path fill-rule="evenodd" clip-rule="evenodd" d="M284.692 131.501C285.255 131.081 286.034 131.208 286.44 131.787L317.228 175.475C317.633 176.039 317.493 176.849 316.945 177.269C316.382 177.689 315.604 177.562 315.198 176.983L284.395 133.296C283.988 132.717 284.13 131.922 284.677 131.502L284.692 131.501Z" fill="#282524"/>
<path fill-rule="evenodd" clip-rule="evenodd" d="M292.551 118.56L320.317 115.074C321.311 114.949 322.182 115.664 322.261 116.661C322.339 117.659 321.595 118.564 320.601 118.689L292.835 122.175C291.841 122.3 290.969 121.585 290.891 120.588C290.812 119.59 291.557 118.685 292.551 118.56Z" fill="#413D3D"/>
<path fill-rule="evenodd" clip-rule="evenodd" d="M327.069 126.741C315.901 127.917 306.707 126.869 306.511 124.376C306.495 124.173 306.543 123.981 306.636 123.77L308.523 114.466L343.424 110.779L346.733 119.549C346.857 119.728 346.934 119.91 346.95 120.112C347.145 122.59 338.252 125.563 327.1 126.738L327.069 126.741Z" fill="#282524"/>
<path fill-rule="evenodd" clip-rule="evenodd" d="M326.264 116.519C316.622 117.544 308.676 116.617 308.508 114.482C308.34 112.348 316.01 109.769 325.654 108.759C335.298 107.75 343.242 108.661 343.41 110.796C343.578 112.931 335.908 115.509 326.264 116.519Z" fill="#282524"/>
<path fill-rule="evenodd" clip-rule="evenodd" d="M251.118 130.537L392.53 112.811C394.642 112.551 396.502 114.066 396.669 116.185C396.836 118.304 395.249 120.264 393.137 120.524L251.725 138.25C249.613 138.51 247.753 136.994 247.586 134.875C247.419 132.756 249.006 130.797 251.118 130.537Z" fill="#413D3D"/>
<path fill-rule="evenodd" clip-rule="evenodd" d="M326.483 119.292C340.978 117.76 352.943 119.139 353.197 122.365C353.216 122.614 353.159 122.885 353.039 123.145L350.587 135.238L305.249 140.028L300.95 128.639C300.79 128.4 300.692 128.157 300.673 127.908C300.419 124.682 311.971 120.826 326.466 119.278L326.483 119.292Z" fill="#413D3D"/>
<path fill-rule="evenodd" clip-rule="evenodd" d="M327.528 132.584C340.048 131.254 350.383 132.448 350.602 135.237C350.822 138.026 340.843 141.351 328.323 142.681C315.803 144.011 305.468 142.817 305.249 140.028C305.029 137.239 315.009 133.914 327.528 132.584Z" fill="#282524"/>
<path fill-rule="evenodd" clip-rule="evenodd" d="M307.766 186.974L315.472 137.217L338.115 134.385L353.079 181.669L307.766 186.974Z" fill="#282524"/>
<path fill-rule="evenodd" clip-rule="evenodd" d="M307.766 186.974L315.472 137.217L324.929 136.034L324.207 185.054L307.766 186.974Z" fill="#413D3D"/>
<path fill-rule="evenodd" clip-rule="evenodd" d="M275.397 201.123L266.147 193.588L265.47 184.987L366.335 172.348L405.945 203.003L406.622 211.604L398.726 221.272L314.992 231.779L275.397 201.123Z" fill="#413D3D"/>
<path fill-rule="evenodd" clip-rule="evenodd" d="M305.082 215.657L405.945 203.003L406.622 211.604L398.741 221.27L314.976 231.78L305.759 224.258L305.082 215.657Z" fill="#413D3D"/>
<path fill-rule="evenodd" clip-rule="evenodd" d="M360.438 181.122L404.293 212.101L406.622 211.604L405.946 203.003L366.335 172.348L360.438 181.122Z" fill="#363333"/>
<path fill-rule="evenodd" clip-rule="evenodd" d="M354.84 186.109L359.115 190.617L398.726 221.272L406.622 211.604L367.011 180.949L354.84 186.109Z" fill="#282524"/>
<path fill-rule="evenodd" clip-rule="evenodd" d="M265.47 184.987L366.335 172.348L367.011 180.949L359.146 190.614L275.381 201.124L266.147 193.588L265.47 184.987Z" fill="#413D3D"/>
<path fill-rule="evenodd" clip-rule="evenodd" d="M275.397 201.123L314.992 231.779L398.726 221.272L359.115 190.617L275.397 201.123Z" fill="#282524"/>
<path fill-rule="evenodd" clip-rule="evenodd" d="M262.902 237.46L250.101 227.038L249.164 215.134L388.883 197.619L443.741 240.087L444.678 251.992L433.751 265.394L317.761 279.928L262.902 237.46Z" fill="#413D3D"/>
<path fill-rule="evenodd" clip-rule="evenodd" d="M304.023 257.602L443.741 240.087L444.678 251.992L433.766 265.393L317.73 279.931L304.959 269.506L304.023 257.602Z" fill="#413D3D"/>
<path fill-rule="evenodd" clip-rule="evenodd" d="M380.711 209.77L441.455 252.684L444.678 251.992L443.741 240.087L388.883 197.619L380.711 209.77Z" fill="#363333"/>
<path fill-rule="evenodd" clip-rule="evenodd" d="M372.958 216.667L378.892 222.926L433.751 265.394L444.678 251.992L389.819 209.524L372.958 216.667Z" fill="#282524"/>
<path fill-rule="evenodd" clip-rule="evenodd" d="M249.164 215.134L388.883 197.619L389.819 209.524L378.908 222.925L262.871 237.463L250.101 227.038L249.164 215.134Z" fill="#413D3D"/>
<path fill-rule="evenodd" clip-rule="evenodd" d="M262.902 237.46L317.76 279.928L433.75 265.394L378.892 222.926L262.902 237.46Z" fill="#282524"/>
<path fill-rule="evenodd" clip-rule="evenodd" d="M246.324 214.918L391.649 196.696C392.58 196.576 393.386 197.249 393.459 198.184C393.533 199.119 392.832 199.974 391.916 200.093L246.591 218.315C245.66 218.435 244.854 217.762 244.781 216.827C244.707 215.892 245.408 215.037 246.324 214.918Z" fill="#5B595E"/>
<path fill-rule="evenodd" clip-rule="evenodd" d="M270.675 218.85L272.741 218.594C273.766 218.466 274.654 219.196 274.735 220.224L275.319 227.641C275.4 228.669 274.642 229.607 273.617 229.735L271.552 229.991C270.542 230.118 269.638 229.389 269.557 228.361L268.974 220.944C268.893 219.915 269.666 218.977 270.675 218.85Z" fill="#282524"/>
<path fill-rule="evenodd" clip-rule="evenodd" d="M284.45 217.124L286.515 216.867C287.54 216.739 288.429 217.469 288.51 218.497L289.093 225.914C289.174 226.943 288.401 227.882 287.392 228.008L285.326 228.265C284.301 228.392 283.413 227.663 283.332 226.634L282.748 219.217C282.667 218.189 283.425 217.251 284.45 217.124Z" fill="#282524"/>
<path fill-rule="evenodd" clip-rule="evenodd" d="M298.224 215.397L300.29 215.141C301.315 215.013 302.203 215.743 302.284 216.771L302.868 224.188C302.949 225.216 302.176 226.155 301.166 226.282L299.101 226.538C298.091 226.665 297.187 225.936 297.106 224.908L296.523 217.491C296.442 216.462 297.199 215.525 298.224 215.397Z" fill="#282524"/>
<path fill-rule="evenodd" clip-rule="evenodd" d="M339.564 210.216L341.63 209.96C342.655 209.832 343.543 210.562 343.624 211.59L344.208 219.007C344.288 220.036 343.515 220.974 342.506 221.101L340.44 221.357C339.431 221.484 338.527 220.755 338.446 219.727L337.862 212.31C337.781 211.282 338.554 210.343 339.564 210.216Z" fill="#282524"/>
<path fill-rule="evenodd" clip-rule="evenodd" d="M353.338 208.49L355.388 208.235C356.413 208.107 357.302 208.837 357.383 209.865L357.966 217.282C358.047 218.31 357.274 219.249 356.265 219.376L354.215 219.631C353.205 219.757 352.301 219.029 352.22 218.001L351.637 210.584C351.556 209.555 352.329 208.616 353.338 208.49Z" fill="#282524"/>
<path fill-rule="evenodd" clip-rule="evenodd" d="M367.113 206.763L369.179 206.507C370.204 206.379 371.092 207.109 371.173 208.137L371.757 215.554C371.838 216.583 371.065 217.521 370.055 217.648L367.99 217.904C366.98 218.031 366.076 217.302 365.995 216.274L365.412 208.857C365.331 207.829 366.104 206.89 367.113 206.763Z" fill="#282524"/>
<path fill-rule="evenodd" clip-rule="evenodd" d="M328.15 67.5327C327.42 67.6215 326.862 68.3082 326.92 69.0406L330.258 111.47C330.316 112.202 330.969 112.731 331.699 112.642C332.429 112.553 332.987 111.867 332.929 111.134L329.591 68.705C329.532 67.9571 328.88 67.444 328.15 67.5327Z" fill="#282524"/>
<path fill-rule="evenodd" clip-rule="evenodd" d="M327.525 59.586C326.795 59.6748 326.237 60.3615 326.295 61.0938L326.49 63.5714C326.548 64.3037 327.201 64.8324 327.931 64.7436C328.661 64.6548 329.219 63.9681 329.161 63.2358L328.966 60.7583C328.907 60.0104 328.255 59.4972 327.525 59.586Z" fill="#B9071C"/>
<path fill-rule="evenodd" clip-rule="evenodd" d="M323.733 98.4999C321.87 98.7406 320.468 100.45 320.615 102.32L321.258 110.5C321.405 112.37 323.048 113.715 324.911 113.474C326.774 113.233 328.177 111.524 328.029 109.654L327.386 101.474C327.239 99.6038 325.596 98.2593 323.733 98.4999Z" fill="#282524"/>
<path fill-rule="evenodd" clip-rule="evenodd" d="M322.484 82.622C321.645 82.7194 321.001 83.5069 321.068 84.364L322.665 104.651C322.732 105.508 323.485 106.108 324.324 106.01C325.178 105.896 325.807 105.125 325.74 104.268L324.144 83.9809C324.076 83.1239 323.323 82.5247 322.484 82.622Z" fill="#282524"/>
<path fill-rule="evenodd" clip-rule="evenodd" d="M341.096 119.256L404.053 111.371C406.165 111.111 408.025 112.626 408.192 114.746C408.359 116.865 406.772 118.824 404.66 119.084L341.703 126.969C339.59 127.229 337.73 125.714 337.564 123.595C337.397 121.475 338.984 119.516 341.096 119.256Z" fill="#282524"/>
<path fill-rule="evenodd" clip-rule="evenodd" d="M336.235 113.085L364.001 109.599C364.995 109.474 365.867 110.189 365.944 111.171C366.023 112.168 365.278 113.073 364.285 113.199L336.518 116.684C335.524 116.81 334.653 116.094 334.574 115.097C334.496 114.1 335.24 113.195 336.234 113.069L336.235 113.085Z" fill="#413D3D"/>
<path fill-rule="evenodd" clip-rule="evenodd" d="M311.4 37.0236C310.655 37.1137 310.113 37.7991 310.17 38.5315L316.048 113.246C316.106 113.979 316.744 114.509 317.489 114.419C318.219 114.33 318.777 113.643 318.719 112.911L312.843 38.2115C312.785 37.4791 312.132 36.9504 311.402 37.0392L311.4 37.0236Z" fill="#282524"/>
<path fill-rule="evenodd" clip-rule="evenodd" d="M356.004 122.567C355.387 122.302 354.656 122.579 354.374 123.181L330.9 173.85C330.618 174.453 330.894 175.168 331.511 175.433C332.128 175.698 332.859 175.421 333.141 174.819L356.615 124.15C356.896 123.547 356.621 122.832 356.004 122.567Z" fill="#282524"/>
<path fill-rule="evenodd" clip-rule="evenodd" d="M451.469 228.473C453.156 229.783 454.286 231.795 454.471 234.148C454.833 238.744 451.414 242.933 446.832 243.497C444.596 243.783 442.492 243.149 440.888 241.895L440.772 241.81L405.191 213.943L409.339 210.261L413.93 199.443L451.405 228.463L451.439 228.491L451.469 228.473Z" fill="#282524"/>
<path fill-rule="evenodd" clip-rule="evenodd" d="M408.034 197.853C412.614 197.273 416.619 200.533 416.981 205.129C417.342 209.726 413.924 213.914 409.342 214.479C404.761 215.059 400.756 211.799 400.395 207.202C400.033 202.606 403.452 198.417 408.032 197.837L408.034 197.853Z" fill="#413D3D"/>
<path fill-rule="evenodd" clip-rule="evenodd" d="M452.818 245.629C454.505 246.939 455.636 248.95 455.821 251.303C456.183 255.9 452.764 260.088 448.182 260.653C445.946 260.938 443.842 260.304 442.238 259.051L442.121 258.966L406.54 231.099L410.689 227.417L415.28 216.598L452.755 245.618L452.788 245.647L452.818 245.629Z" fill="#363333"/>
<path fill-rule="evenodd" clip-rule="evenodd" d="M409.383 215.008C413.964 214.429 417.969 217.688 418.33 222.285C418.692 226.881 415.273 231.07 410.693 231.65C406.112 232.23 402.107 228.97 401.746 224.373C401.384 219.777 404.803 215.588 409.385 215.024L409.383 215.008Z" fill="#413D3D"/>
<path fill-rule="evenodd" clip-rule="evenodd" d="M408.344 201.795C410.751 201.496 412.862 203.211 413.052 205.626C413.242 208.042 411.439 210.237 409.032 210.536C406.624 210.836 404.513 209.12 404.323 206.705C404.133 204.29 405.937 202.094 408.343 201.779L408.344 201.795Z" fill="#282524"/>
<path fill-rule="evenodd" clip-rule="evenodd" d="M409.694 218.951C412.101 218.652 414.212 220.367 414.402 222.782C414.592 225.197 412.789 227.393 410.383 227.708C407.975 228.007 405.864 226.291 405.674 223.876C405.484 221.461 407.288 219.265 409.695 218.966L409.694 218.951Z" fill="#282524"/>
<path fill-rule="evenodd" clip-rule="evenodd" d="M273.125 172.25C274.585 172.072 275.875 173.115 275.991 174.595L276.697 183.571C276.814 185.051 275.712 186.392 274.253 186.585C272.793 186.763 271.503 185.72 271.386 184.239L270.68 175.264C270.564 173.784 271.666 172.443 273.126 172.265L273.125 172.25Z" fill="#363333"/>
<path fill-rule="evenodd" clip-rule="evenodd" d="M274.525 174.099L298.285 171.117C298.828 171.043 299.314 171.444 299.357 171.989C299.4 172.534 298.986 173.053 298.442 173.111L274.682 176.094C274.138 176.152 273.653 175.767 273.61 175.222C273.567 174.676 273.981 174.158 274.525 174.099Z" fill="#413D3D"/>
<path fill-rule="evenodd" clip-rule="evenodd" d="M274.817 177.808L298.577 174.825C299.12 174.751 299.606 175.152 299.649 175.697C299.692 176.243 299.278 176.761 298.734 176.82L274.974 179.802C274.431 179.876 273.945 179.476 273.902 178.93C273.859 178.385 274.273 177.866 274.817 177.808Z" fill="#413D3D"/>
<path fill-rule="evenodd" clip-rule="evenodd" d="M299.246 168.987C300.707 168.81 301.996 169.853 302.113 171.333L302.82 180.324C302.935 181.789 301.834 183.145 300.375 183.338C298.915 183.516 297.626 182.473 297.509 180.993L296.802 172.002C296.687 170.537 297.787 169.181 299.246 168.987Z" fill="#363333"/>
<path fill-rule="evenodd" clip-rule="evenodd" d="M159.495 334.993L437.989 313.083L563.031 406.236L568.801 479.58L443.759 386.427L165.266 408.337L159.495 334.993Z" fill="#B9071C"/>
<path fill-rule="evenodd" clip-rule="evenodd" d="M324.288 320.445L433.849 306.714L422.097 299.267L443.167 268.667L460.255 232.109L545.823 298.344C549.997 301.559 552.83 306.478 553.284 312.244L555.389 338.998C556.266 350.154 547.886 360.44 536.751 361.833L523.411 363.51L329.572 387.806C318.437 389.2 308.619 381.208 307.74 370.036L305.635 343.282C304.756 332.11 313.138 321.84 324.273 320.446L324.288 320.445Z" fill="#62020B"/>
<path fill-rule="evenodd" clip-rule="evenodd" d="M447.555 259.26L460.254 232.094L545.822 298.328C549.996 301.543 552.829 306.463 553.283 312.228L555.388 338.982C555.921 345.76 553.041 352.211 548.207 356.542L460.632 291.923L449.822 288.07C449.822 288.07 448.633 274.555 447.554 259.244L447.555 259.26Z" fill="#800A15"/>
<path fill-rule="evenodd" clip-rule="evenodd" d="M194.589 320.191L421.505 291.741L523.426 363.493L528.145 423.483L426.225 351.731L199.307 380.166L194.589 320.191Z" fill="#9F0B1B"/>
<path fill-rule="evenodd" clip-rule="evenodd" d="M235.981 238.935C235.097 239.052 234.438 239.856 234.508 240.745L235.731 256.28C235.8 257.168 236.571 257.797 237.457 257.696C238.342 257.579 239 256.775 238.93 255.887L237.708 240.352C237.638 239.464 236.867 238.834 235.983 238.951L235.981 238.935Z" fill="#413D3D"/>
<path fill-rule="evenodd" clip-rule="evenodd" d="M443.097 212.968C442.213 213.084 441.554 213.888 441.624 214.777L442.846 230.312C442.916 231.2 443.687 231.829 444.572 231.712C445.457 231.596 446.115 230.791 446.045 229.903L444.823 214.368C444.753 213.48 443.982 212.851 443.097 212.968Z" fill="#5B595E"/>
<path fill-rule="evenodd" clip-rule="evenodd" d="M194.573 320.193L421.505 291.741L426.225 351.731L199.292 380.167L194.573 320.193Z" fill="#9F0B1B"/>
<path fill-rule="evenodd" clip-rule="evenodd" d="M523.426 363.493L421.505 291.741L426.225 351.731L528.146 423.483L523.426 363.493Z" fill="#800A15"/>
<path fill-rule="evenodd" clip-rule="evenodd" d="M238.689 254.213L445.961 228.232C457.064 226.841 466.868 234.834 467.747 246.007L469.851 272.761C470.73 283.933 462.364 294.202 451.26 295.593L243.988 321.573C232.885 322.964 223.081 314.971 222.202 303.799L220.098 277.045C219.219 265.873 227.585 255.604 238.689 254.213Z" fill="#B9071C"/>
<path fill-rule="evenodd" clip-rule="evenodd" d="M238.735 254.209L362.163 238.729L300.329 314.506L244.035 321.569C232.9 322.963 223.081 314.971 222.202 303.799L220.098 277.045C219.219 265.873 227.601 255.602 238.735 254.209Z" fill="#CF0820"/>
<path fill-rule="evenodd" clip-rule="evenodd" d="M268.645 250.46L297.405 246.849L236.773 321.153C229.847 319.44 224.338 313.994 222.658 306.804L268.645 250.46Z" fill="#F6112D"/>
<path fill-rule="evenodd" clip-rule="evenodd" d="M468.919 261.107L469.344 266.513L221.695 297.552L221.27 292.145L468.919 261.107ZM469.86 273.073L222.227 304.11C222.405 305.978 222.828 307.763 223.476 309.421L469.478 278.575C469.839 276.791 469.992 274.944 469.876 273.072L469.86 273.073Z" fill="#FFD4CF"/>
<path fill-rule="evenodd" clip-rule="evenodd" d="M245.307 264.385L250.245 263.761C252.621 263.464 254.716 265.165 254.904 267.565L255.715 277.864C255.902 280.248 254.116 282.458 251.738 282.74L246.8 283.363C244.424 283.66 242.33 281.959 242.141 279.559L241.331 269.26C241.143 266.876 242.931 264.681 245.307 264.385ZM436.102 240.469L441.04 239.845C443.417 239.548 445.511 241.249 445.699 243.649L446.51 253.949C446.697 256.333 444.911 258.543 442.534 258.824L437.596 259.447C435.219 259.744 433.125 258.043 432.936 255.644L432.126 245.344C431.939 242.96 433.726 240.765 436.102 240.469ZM412.249 243.459L417.187 242.835C419.563 242.538 421.657 244.239 421.846 246.639L422.656 256.938C422.844 259.322 421.056 261.517 418.68 261.814L413.742 262.437C411.366 262.734 409.272 261.033 409.083 258.633L408.273 248.334C408.085 245.95 409.873 243.755 412.249 243.459ZM388.396 246.448L393.334 245.825C395.71 245.528 397.804 247.229 397.993 249.629L398.803 259.928C398.991 262.312 397.203 264.507 394.827 264.803L389.889 265.427C387.513 265.724 385.419 264.023 385.23 261.623L384.42 251.324C384.232 248.94 386.02 246.745 388.396 246.448ZM364.543 249.438L369.481 248.814C371.857 248.518 373.951 250.219 374.14 252.618L374.95 262.918C375.137 265.302 373.35 267.496 370.974 267.793L366.036 268.417C363.66 268.713 361.565 267.013 361.377 264.613L360.566 254.313C360.379 251.929 362.166 249.735 364.543 249.438ZM340.689 252.428L345.627 251.804C348.003 251.508 350.098 253.209 350.286 255.608L351.097 265.908C351.284 268.292 349.498 270.502 347.12 270.783L342.182 271.407C339.806 271.703 337.712 270.002 337.523 267.603L336.713 257.303C336.525 254.919 338.313 252.725 340.689 252.428ZM316.836 255.418L321.774 254.794C324.15 254.497 326.244 256.198 326.433 258.598L327.243 268.897C327.431 271.281 325.643 273.476 323.267 273.773L318.329 274.396C315.953 274.693 313.859 272.992 313.67 270.592L312.86 260.293C312.672 257.909 314.46 255.714 316.836 255.418ZM292.983 258.407L297.921 257.784C300.297 257.487 302.391 259.188 302.58 261.588L303.39 271.887C303.578 274.271 301.79 276.466 299.414 276.762L294.476 277.386C292.1 277.683 290.006 275.982 289.817 273.582L289.006 263.283C288.819 260.899 290.607 258.704 292.983 258.407ZM269.129 261.397L274.067 260.774C276.444 260.477 278.538 262.178 278.726 264.577L279.537 274.877C279.724 277.261 277.937 279.456 275.561 279.752L270.622 280.376C268.246 280.673 266.152 278.972 265.963 276.572L265.153 266.272C264.966 263.888 266.753 261.694 269.129 261.397Z" fill="#62020B"/>
<path fill-rule="evenodd" clip-rule="evenodd" d="M254.64 266.394C254.778 266.759 254.871 267.144 254.904 267.565L255.715 277.864C255.902 280.248 254.116 282.458 251.738 282.74L246.8 283.363C245.574 283.522 244.415 283.143 243.572 282.394C243.434 282.029 243.341 281.644 243.307 281.224L242.497 270.924C242.31 268.54 244.097 266.345 246.473 266.049L251.411 265.425C252.638 265.266 253.781 265.646 254.639 266.378L254.64 266.394ZM437.269 242.133L442.207 241.509C443.433 241.35 444.576 241.731 445.435 242.478C445.573 242.844 445.666 243.228 445.698 243.633L446.509 253.933C446.696 256.317 444.91 258.527 442.532 258.808L437.594 259.432C436.368 259.591 435.209 259.212 434.366 258.463C434.227 258.098 434.134 257.713 434.101 257.292L433.291 246.993C433.104 244.609 434.891 242.414 437.267 242.117L437.269 242.133ZM413.415 245.123L418.353 244.499C419.58 244.34 420.723 244.72 421.58 245.452C421.719 245.818 421.812 246.202 421.845 246.623L422.655 256.923C422.843 259.307 421.055 261.501 418.679 261.798L413.741 262.422C412.515 262.581 411.356 262.202 410.513 261.453C410.374 261.087 410.281 260.703 410.248 260.282L409.438 249.982C409.25 247.598 411.038 245.404 413.414 245.107L413.415 245.123ZM389.562 248.113L394.5 247.489C395.726 247.33 396.87 247.71 397.728 248.458C397.867 248.823 397.96 249.208 397.993 249.629L398.803 259.928C398.991 262.312 397.203 264.507 394.827 264.803L389.889 265.427C388.663 265.586 387.504 265.207 386.661 264.458C386.522 264.093 386.429 263.708 386.396 263.287L385.586 252.988C385.398 250.604 387.186 248.409 389.562 248.113ZM365.709 251.102L370.647 250.479C371.873 250.319 373.032 250.699 373.874 251.432C374.012 251.797 374.105 252.182 374.138 252.603L374.949 262.902C375.136 265.286 373.349 267.481 370.973 267.778L366.035 268.401C364.808 268.56 363.664 268.164 362.806 267.432C362.668 267.067 362.575 266.682 362.541 266.262L361.731 255.962C361.544 253.578 363.331 251.383 365.707 251.087L365.709 251.102ZM341.855 254.092L346.793 253.468C348.02 253.309 349.163 253.69 350.022 254.437C350.16 254.803 350.238 255.189 350.27 255.594L351.08 265.893C351.267 268.277 349.481 270.487 347.104 270.769L342.166 271.392C340.939 271.551 339.78 271.172 338.937 270.423C338.799 270.058 338.706 269.673 338.673 269.253L337.862 258.953C337.675 256.569 339.462 254.374 341.839 254.078L341.855 254.092ZM318.002 257.082L322.94 256.458C324.166 256.299 325.31 256.679 326.167 257.412C326.306 257.777 326.399 258.162 326.432 258.582L327.242 268.882C327.43 271.266 325.642 273.46 323.266 273.757L318.328 274.381C317.102 274.54 315.943 274.161 315.1 273.412C314.961 273.046 314.868 272.662 314.835 272.241L314.025 261.942C313.837 259.557 315.625 257.363 318.001 257.066L318.002 257.082ZM294.149 260.072L299.087 259.448C300.313 259.289 301.472 259.668 302.314 260.401C302.453 260.767 302.546 261.151 302.579 261.572L303.389 271.872C303.576 274.256 301.789 276.45 299.413 276.747L294.475 277.371C293.248 277.53 292.089 277.151 291.246 276.402C291.108 276.036 291.015 275.652 290.982 275.231L290.171 264.931C289.984 262.547 291.771 260.353 294.148 260.056L294.149 260.072ZM270.295 263.061L275.233 262.438C276.46 262.279 277.619 262.658 278.461 263.391C278.599 263.756 278.692 264.141 278.725 264.562L279.536 274.861C279.723 277.245 277.935 279.44 275.559 279.737L270.621 280.36C269.395 280.519 268.235 280.125 267.393 279.391C267.254 279.026 267.177 278.64 267.144 278.219L266.334 267.92C266.146 265.536 267.934 263.341 270.31 263.045L270.295 263.061Z" fill="#363333"/>
<path fill-rule="evenodd" clip-rule="evenodd" d="M562.585 400.565L437.968 312.818L443.738 386.162L568.355 473.908L562.585 400.565Z" fill="#760813"/>
<path fill-rule="evenodd" clip-rule="evenodd" d="M319.322 312.134L315.067 312.673L317.316 320.523L319.957 320.206L319.322 312.134Z" fill="#62020B"/>
<path fill-rule="evenodd" clip-rule="evenodd" d="M312.381 313.01L315.72 312.59L319.957 320.206L316.618 320.625L312.381 313.01Z" fill="#800A15"/>
<path fill-rule="evenodd" clip-rule="evenodd" d="M500.728 414.054L480.162 416.77L475.997 363.838L496.563 361.123L500.728 414.054Z" fill="#9F0B1B"/>
<path fill-rule="evenodd" clip-rule="evenodd" d="M500.728 414.054L592.853 478.911L591.842 466.056L660.657 514.497L655.032 485.26C594.373 431.051 579.279 414.412 496.562 361.107L500.728 414.054Z" fill="#B9071C"/>
<path fill-rule="evenodd" clip-rule="evenodd" d="M160.77 351.198L437.989 313.083L443.759 386.427L166.54 424.542L160.77 351.198Z" fill="#B9071C"/>
<path fill-rule="evenodd" clip-rule="evenodd" d="M420.09 321.797L423.382 321.382C424.624 321.221 425.715 322.123 425.813 323.37L426.364 330.382C426.462 331.628 425.534 332.783 424.292 332.943L421 333.359C419.758 333.52 418.652 332.619 418.554 331.372L418.002 324.361C417.904 323.114 418.848 321.958 420.09 321.797Z" fill="#760813"/>
<path fill-rule="evenodd" clip-rule="evenodd" d="M406.315 323.524L409.607 323.108C410.849 322.948 411.955 323.848 412.053 325.095L412.604 332.091C412.702 333.338 411.758 334.494 410.516 334.654L407.224 335.07C405.982 335.231 404.891 334.329 404.793 333.082L404.242 326.07C404.144 324.824 405.072 323.669 406.314 323.508L406.315 323.524Z" fill="#760813"/>
<path fill-rule="evenodd" clip-rule="evenodd" d="M392.557 325.249L395.849 324.833C397.091 324.673 398.197 325.574 398.295 326.82L398.846 333.832C398.944 335.079 398.016 336.234 396.758 336.395L393.466 336.811C392.224 336.971 391.118 336.071 391.02 334.824L390.469 327.812C390.371 326.566 391.299 325.411 392.557 325.249Z" fill="#760813"/>
<path fill-rule="evenodd" clip-rule="evenodd" d="M378.782 326.976L382.074 326.56C383.316 326.4 384.422 327.3 384.52 328.547L385.071 335.559C385.169 336.805 384.241 337.96 382.983 338.122L379.691 338.537C378.449 338.698 377.359 337.796 377.261 336.549L376.709 329.538C376.611 328.291 377.54 327.136 378.782 326.976Z" fill="#760813"/>
<path fill-rule="evenodd" clip-rule="evenodd" d="M365.007 328.702L368.299 328.286C369.541 328.126 370.647 329.027 370.745 330.273L371.297 337.285C371.395 338.532 370.466 339.687 369.209 339.848L365.917 340.264C364.675 340.424 363.569 339.524 363.471 338.277L362.919 331.265C362.821 330.019 363.75 328.864 365.007 328.702Z" fill="#760813"/>
<path fill-rule="evenodd" clip-rule="evenodd" d="M351.232 330.429L354.524 330.013C355.766 329.853 356.872 330.753 356.97 332L357.522 339.012C357.62 340.258 356.692 341.413 355.434 341.575L352.142 341.99C350.9 342.151 349.81 341.249 349.712 340.002L349.161 333.006C349.063 331.76 349.992 330.605 351.234 330.444L351.232 330.429Z" fill="#760813"/>
<path fill-rule="evenodd" clip-rule="evenodd" d="M337.458 332.155L340.75 331.74C341.992 331.579 343.098 332.48 343.196 333.726L343.748 340.738C343.846 341.985 342.902 343.141 341.66 343.301L338.368 343.717C337.126 343.877 336.035 342.975 335.937 341.729L335.386 334.717C335.288 333.471 336.216 332.316 337.458 332.155Z" fill="#760813"/>
<path fill-rule="evenodd" clip-rule="evenodd" d="M29.2968 232.118C155.607 261.047 283.075 298.524 401.842 350.78C475.919 383.379 550.099 423.261 614.032 473.231C649.256 500.75 684.043 533.477 709.786 570.256C717.913 581.861 728.397 598.502 732.876 612.182C733.701 614.688 733.303 617.212 731.746 619.342C730.188 621.471 727.911 622.622 725.258 622.596L110.504 617.67C107.727 617.653 105.348 616.32 103.846 613.976C98.4728 605.478 93.564 595.909 89.1239 586.914C77.2247 562.843 67.1341 537.642 58.5469 512.213C29.0957 424.913 16.7202 331.598 19.5682 239.625C19.642 237.173 20.7164 235.082 22.6527 233.581C24.6047 232.079 26.8857 231.57 29.2812 232.119L29.2968 232.118Z" fill="#363333"/>
<path fill-rule="evenodd" clip-rule="evenodd" d="M29.2969 232.118C155.607 261.047 283.075 298.524 401.842 350.78C475.919 383.379 550.099 423.261 614.032 473.231C649.256 500.75 684.043 533.478 709.786 570.256C717.913 581.861 728.397 598.502 732.876 612.182C733.702 614.704 733.304 617.228 731.731 619.358C730.158 621.489 727.881 622.64 725.227 622.598L140.505 615.482C137.585 615.445 135.101 613.963 133.662 611.427C130.505 605.78 127.696 599.385 125.099 593.475C116.669 574.242 109.285 554.332 102.332 534.528C89.2734 497.316 77.6563 459.489 66.7561 421.606C49.6194 362.06 34.2265 301.953 19.7793 241.709C19.1235 238.954 19.8695 236.277 21.8602 234.271C23.8508 232.264 26.5187 231.49 29.2813 232.119L29.2969 232.118Z" fill="#413D3D"/>
<path fill-rule="evenodd" clip-rule="evenodd" d="M29.2969 232.118C94.6158 247.078 160.256 264.334 224.858 284.729C230.429 290.358 235.879 296.044 241.176 301.773C344.667 413.617 352.231 498.202 258.078 490.699C206.346 486.569 134.663 455.506 63.3952 409.782C47.5985 354.113 33.2868 297.982 19.7962 241.723C19.1403 238.969 19.8864 236.292 21.877 234.285C23.8677 232.278 26.5355 231.504 29.2981 232.133L29.2969 232.118Z" fill="#434040"/>
<path fill-rule="evenodd" clip-rule="evenodd" d="M29.3415 231.939C69.4755 241.136 109.724 251.187 149.773 262.303C162.402 273.523 174.409 285.199 185.448 297.14C255.087 372.404 260.177 429.324 196.814 424.275C158.038 421.179 102.611 395.594 49.4816 358.964C39.0424 319.962 29.2324 280.786 19.8252 241.546C19.1694 238.791 19.9154 236.114 21.9061 234.108C23.8967 232.101 26.5646 231.327 29.3272 231.956L29.3415 231.939Z" fill="#484545"/>
<path fill-rule="evenodd" clip-rule="evenodd" d="M406.261 352.737C478.867 384.966 551.354 424.26 614.032 473.231C649.256 500.75 684.043 533.477 709.786 570.256C715.033 577.745 721.245 587.337 726.213 596.855C715.169 611.772 706.72 622.377 706.72 622.377L346.756 617.991C339.371 608.444 340.374 596.669 353.719 582.105C430.217 498.557 406.261 352.737 406.261 352.737Z" fill="#363333"/>
<path fill-rule="evenodd" clip-rule="evenodd" d="M193.147 367.246C189.838 383.796 178.777 398.682 168.444 400.499C158.111 402.315 152.419 390.361 155.726 373.796C159.035 357.246 170.096 342.359 180.429 340.543C190.762 338.726 196.454 350.68 193.147 367.246Z" fill="#363333"/>
<path fill-rule="evenodd" clip-rule="evenodd" d="M159.967 360.919C164.983 350.13 172.896 341.872 180.43 340.558C190.47 338.796 196.137 350.031 193.413 365.845C188.397 376.634 180.484 384.892 172.95 386.206C162.91 387.968 157.243 376.734 159.967 360.919Z" fill="#2D2A2B"/>
<path fill-rule="evenodd" clip-rule="evenodd" d="M484.69 367.089L487.982 366.674C489.458 366.495 490.749 367.553 490.864 369.018L491.611 378.507C491.727 379.988 490.626 381.344 489.151 381.523L485.859 381.939C484.383 382.118 483.092 381.059 482.976 379.579L482.229 370.089C482.112 368.609 483.213 367.253 484.689 367.074L484.69 367.089Z" fill="#6C0811"/>
<path fill-rule="evenodd" clip-rule="evenodd" d="M515.365 379.241L517.734 380.654C518.788 381.292 519.757 383.035 519.874 384.531L520.237 389.143C520.356 390.654 519.596 391.357 518.528 390.735L516.158 389.323C515.105 388.7 514.136 386.942 514.018 385.446L513.655 380.834C513.536 379.322 514.312 378.619 515.365 379.241Z" fill="#6C0811"/>
<path fill-rule="evenodd" clip-rule="evenodd" d="M524.746 385.856L527.115 387.269C528.169 387.907 529.137 389.65 529.255 391.146L529.618 395.758C529.737 397.269 528.961 397.973 527.908 397.351L525.539 395.938C524.485 395.299 523.517 393.557 523.399 392.061L523.036 387.449C522.917 385.937 523.678 385.235 524.746 385.856Z" fill="#6C0811"/>
<path fill-rule="evenodd" clip-rule="evenodd" d="M534.126 392.456L536.495 393.869C537.548 394.491 538.517 396.249 538.635 397.745L538.998 402.357C539.117 403.869 538.341 404.573 537.288 403.95L534.919 402.537C533.865 401.899 532.897 400.156 532.779 398.661L532.416 394.048C532.297 392.537 533.073 391.833 534.126 392.456Z" fill="#6C0811"/>
<path fill-rule="evenodd" clip-rule="evenodd" d="M543.507 399.071L545.877 400.484C546.929 401.106 547.899 402.864 548.016 404.36L548.379 408.973C548.498 410.484 547.738 411.187 546.67 410.565L544.3 409.152C543.246 408.514 542.278 406.772 542.16 405.276L541.797 400.663C541.679 399.152 542.454 398.448 543.507 399.071Z" fill="#6C0811"/>
<path fill-rule="evenodd" clip-rule="evenodd" d="M552.887 405.67L555.256 407.083C556.31 407.721 557.279 409.464 557.396 410.96L557.759 415.572C557.878 417.083 557.102 417.787 556.05 417.165L553.68 415.752C552.627 415.129 551.658 413.371 551.54 411.875L551.177 407.263C551.058 405.752 551.834 405.048 552.887 405.67Z" fill="#6C0811"/>
<path fill-rule="evenodd" clip-rule="evenodd" d="M562.282 412.269L564.652 413.681C565.706 414.32 566.674 416.062 566.792 417.558L567.155 422.17C567.272 423.666 566.513 424.384 565.445 423.763L563.076 422.35C562.023 421.727 561.053 419.969 560.936 418.473L560.573 413.861C560.454 412.35 561.23 411.646 562.282 412.269Z" fill="#6C0811"/>
<path fill-rule="evenodd" clip-rule="evenodd" d="M264.532 183.822L368.936 170.732C369.868 170.612 370.674 171.286 370.747 172.22C370.821 173.155 370.12 174.01 369.204 174.129L264.799 187.219C263.868 187.339 263.062 186.666 262.988 185.731C262.915 184.796 263.616 183.941 264.532 183.822Z" fill="#5B595E"/>
<path fill-rule="evenodd" clip-rule="evenodd" d="M274.224 186.023L270.42 186.51L272.417 193.55L274.793 193.253L274.224 186.023Z" fill="#282524"/>
<path fill-rule="evenodd" clip-rule="evenodd" d="M268.013 186.809L270.994 186.434L274.793 193.253L271.811 193.628L268.013 186.809Z" fill="#5B595E"/>
<path fill-rule="evenodd" clip-rule="evenodd" d="M303.218 182.393L299.413 182.865L301.409 189.905L303.786 189.608L303.218 182.393Z" fill="#282524"/>
<path fill-rule="evenodd" clip-rule="evenodd" d="M297.007 183.18L299.989 182.804L303.786 189.608L300.804 189.984L297.007 183.18Z" fill="#5B595E"/>
<path fill-rule="evenodd" clip-rule="evenodd" d="M332.197 178.765L328.407 179.236L330.404 186.275L332.764 185.98L332.197 178.765Z" fill="#282524"/>
<path fill-rule="evenodd" clip-rule="evenodd" d="M326 179.535L328.981 179.159L332.764 185.98L329.798 186.354L326 179.535Z" fill="#5B595E"/>
<path fill-rule="evenodd" clip-rule="evenodd" d="M361.205 175.119L357.385 175.608L359.398 182.646L361.774 182.349L361.205 175.119Z" fill="#282524"/>
<path fill-rule="evenodd" clip-rule="evenodd" d="M354.994 175.906L357.975 175.53L361.774 182.349L358.791 182.709L354.994 175.906Z" fill="#5B595E"/>
<path fill-rule="evenodd" clip-rule="evenodd" d="M351.701 308.082L347.445 308.605L349.695 316.471L352.335 316.138L351.701 308.082Z" fill="#62020B"/>
<path fill-rule="evenodd" clip-rule="evenodd" d="M344.774 308.94L348.098 308.522L352.335 316.137L349.012 316.556L344.774 308.94Z" fill="#800A15"/>
<path fill-rule="evenodd" clip-rule="evenodd" d="M384.095 304.012L379.841 304.551L382.075 312.418L384.73 312.084L384.095 304.012Z" fill="#62020B"/>
<path fill-rule="evenodd" clip-rule="evenodd" d="M377.154 304.888L380.493 304.468L384.73 312.084L381.391 312.503L377.154 304.888Z" fill="#800A15"/>
<path fill-rule="evenodd" clip-rule="evenodd" d="M416.475 299.96L412.22 300.498L414.469 308.349L417.108 308.016L416.475 299.96Z" fill="#62020B"/>
<path fill-rule="evenodd" clip-rule="evenodd" d="M409.549 300.834L412.872 300.416L417.108 308.016L413.785 308.434L409.549 300.834Z" fill="#800A15"/>
<path fill-rule="evenodd" clip-rule="evenodd" d="M303.133 101.375C307.093 100.875 310.603 104.425 310.986 109.302C311.37 114.179 308.482 118.529 304.522 119.029C300.578 119.528 297.052 115.979 296.669 111.102C296.285 106.225 299.173 101.875 303.133 101.375Z" fill="#413D3D"/>
<path fill-rule="evenodd" clip-rule="evenodd" d="M303.277 108.387C304.116 108.29 304.849 109.032 304.93 110.06C305.011 111.089 304.394 112.015 303.57 112.111C302.732 112.224 301.998 111.467 301.917 110.439C301.836 109.41 302.453 108.484 303.277 108.387Z" fill="#282524"/>
<path fill-rule="evenodd" clip-rule="evenodd" d="M482.995 286.135L485.373 287.657C486.43 288.342 487.406 290.178 487.529 291.736L487.873 296.114C487.997 297.688 487.224 298.423 486.166 297.738L483.788 296.216C482.73 295.531 481.755 293.695 481.632 292.137L481.288 287.759C481.164 286.185 481.937 285.45 482.995 286.135Z" fill="#6C0811"/>
<path fill-rule="evenodd" clip-rule="evenodd" d="M492.407 293.139L494.785 294.661C495.842 295.346 496.818 297.182 496.94 298.74L497.285 303.119C497.409 304.693 496.651 305.427 495.578 304.743L493.2 303.221C492.142 302.536 491.166 300.7 491.044 299.142L490.699 294.763C490.576 293.189 491.349 292.454 492.407 293.139Z" fill="#6C0811"/>
<path fill-rule="evenodd" clip-rule="evenodd" d="M501.818 300.144L504.196 301.666C505.254 302.351 506.229 304.187 506.352 305.745L506.696 310.124C506.82 311.697 506.047 312.432 504.989 311.747L502.611 310.225C501.554 309.54 500.578 307.704 500.456 306.146L500.111 301.768C499.987 300.194 500.745 299.46 501.818 300.144Z" fill="#6C0811"/>
<path fill-rule="evenodd" clip-rule="evenodd" d="M511.23 307.149L513.608 308.67C514.666 309.356 515.642 311.192 515.764 312.75L516.109 317.128C516.232 318.702 515.459 319.437 514.401 318.752L512.023 317.23C510.966 316.545 509.99 314.709 509.868 313.151L509.523 308.772C509.399 307.199 510.173 306.464 511.23 307.149Z" fill="#6C0811"/>
<path fill-rule="evenodd" clip-rule="evenodd" d="M520.643 314.169L523.021 315.691C524.078 316.376 525.054 318.212 525.177 319.77L525.521 324.148C525.645 325.722 524.887 326.456 523.814 325.772L521.436 324.25C520.38 323.581 519.403 321.729 519.28 320.171L518.936 315.793C518.812 314.219 519.57 313.485 520.643 314.169Z" fill="#6C0811"/>
<path fill-rule="evenodd" clip-rule="evenodd" d="M530.071 321.172L532.449 322.694C533.506 323.379 534.482 325.215 534.604 326.773L534.949 331.152C535.073 332.726 534.299 333.461 533.242 332.775L530.864 331.254C529.807 330.584 528.831 328.733 528.708 327.174L528.363 322.796C528.24 321.222 529.013 320.487 530.071 321.172Z" fill="#6C0811"/>
<path fill-rule="evenodd" clip-rule="evenodd" d="M481.802 270.974L484.18 272.496C485.238 273.181 486.214 275.017 486.337 276.59L486.682 280.969C486.806 282.543 486.032 283.278 484.975 282.593L482.597 281.071C481.54 280.401 480.563 278.55 480.441 276.991L480.096 272.613C479.973 271.039 480.746 270.304 481.803 270.989L481.802 270.974Z" fill="#6C0811"/>
<path fill-rule="evenodd" clip-rule="evenodd" d="M491.214 277.978L493.592 279.5C494.65 280.185 495.625 282.021 495.749 283.595L496.093 287.973C496.217 289.547 495.459 290.281 494.386 289.597L492.008 288.075C490.952 287.406 489.975 285.554 489.852 283.996L489.508 279.618C489.384 278.044 490.158 277.309 491.215 277.994L491.214 277.978Z" fill="#6C0811"/>
<path fill-rule="evenodd" clip-rule="evenodd" d="M500.627 284.998L503.005 286.52C504.062 287.205 505.038 289.041 505.162 290.615L505.506 294.994C505.63 296.567 504.856 297.302 503.799 296.617L501.421 295.095C500.365 294.426 499.388 292.574 499.265 291.016L498.921 286.638C498.797 285.064 499.555 284.33 500.628 285.014L500.627 284.998Z" fill="#6C0811"/>
<path fill-rule="evenodd" clip-rule="evenodd" d="M510.038 292.003L512.416 293.525C513.473 294.194 514.45 296.046 514.572 297.604L514.917 301.983C515.041 303.556 514.267 304.291 513.21 303.606L510.832 302.085C509.775 301.415 508.798 299.564 508.676 298.005L508.331 293.627C508.207 292.053 508.981 291.318 510.038 292.003Z" fill="#6C0811"/>
<path fill-rule="evenodd" clip-rule="evenodd" d="M519.45 299.008L521.828 300.53C522.885 301.199 523.862 303.051 523.984 304.609L524.329 308.987C524.453 310.561 523.695 311.295 522.622 310.611L520.244 309.089C519.187 308.42 518.21 306.568 518.088 305.01L517.743 300.631C517.62 299.058 518.377 298.324 519.45 299.008Z" fill="#6C0811"/>
<path fill-rule="evenodd" clip-rule="evenodd" d="M528.878 306.011L531.256 307.533C532.312 308.202 533.289 310.054 533.412 311.612L533.756 315.991C533.88 317.564 533.106 318.299 532.049 317.614L529.671 316.093C528.614 315.423 527.638 313.572 527.515 312.013L527.171 307.635C527.047 306.061 527.82 305.326 528.878 306.011Z" fill="#6C0811"/>
<path fill-rule="evenodd" clip-rule="evenodd" d="M310.803 29.4353C310.058 29.5253 309.516 30.2107 309.573 30.9431L309.768 33.4206C309.826 34.1529 310.463 34.6829 311.209 34.5929C311.939 34.5041 312.497 33.8174 312.439 33.085L312.244 30.6075C312.187 29.8752 311.533 29.3465 310.803 29.4353Z" fill="#B9071C"/>
<path fill-rule="evenodd" clip-rule="evenodd" d="M237.266 241.515L442.038 215.842C442.674 215.76 443.243 216.217 443.295 216.872C443.345 217.51 442.859 218.113 442.223 218.194L237.452 243.868C236.815 243.95 236.246 243.493 236.194 242.838C236.144 242.199 236.63 241.597 237.266 241.515Z" fill="#5B595E"/>
<path fill-rule="evenodd" clip-rule="evenodd" d="M237.68 246.766L442.451 221.093C443.087 221.011 443.656 221.468 443.708 222.123C443.758 222.761 443.272 223.364 442.636 223.446L237.865 249.119C237.228 249.201 236.659 248.744 236.607 248.089C236.556 247.435 237.043 246.848 237.68 246.766Z" fill="#5B595E"/>
<path fill-rule="evenodd" clip-rule="evenodd" d="M202.188 320.095L336.121 423.006C336.121 423.006 226.055 346.783 202.188 320.095Z" fill="#2D2A2B"/>
<path fill-rule="evenodd" clip-rule="evenodd" d="M246.973 368.483L347.723 445.893C347.723 445.893 264.926 388.565 246.973 368.483Z" fill="#2D2A2B"/>
<path fill-rule="evenodd" clip-rule="evenodd" d="M189.52 483.001L323.453 585.912C323.453 585.912 213.387 509.69 189.52 483.001Z" fill="#2D2A2B"/>
<path fill-rule="evenodd" clip-rule="evenodd" d="M154.84 465.787L288.774 568.698C288.774 568.698 178.707 492.475 154.84 465.787Z" fill="#2D2A2B"/>
<path fill-rule="evenodd" clip-rule="evenodd" d="M156.502 524.199L290.436 627.11C290.436 627.11 180.37 550.887 156.502 524.199Z" fill="#2D2A2B"/>
<path fill-rule="evenodd" clip-rule="evenodd" d="M429.547 313.026L537.669 387.85C537.669 387.85 449.405 332.614 429.547 313.026Z" fill="#FBFEFA"/>
<path fill-rule="evenodd" clip-rule="evenodd" d="M490.537 317.619L542.045 356.165C542.045 356.165 499.999 327.458 490.537 317.619Z" fill="#FBFEFA"/>
<path fill-rule="evenodd" clip-rule="evenodd" d="M491.031 238.578L542.658 278.65C542.658 278.65 500.514 248.681 491.031 238.578Z" fill="#FBFEFA"/>
<path fill-rule="evenodd" clip-rule="evenodd" d="M65.7561 244.441L178.082 315.093C178.082 315.093 86.393 263.56 65.7561 244.441Z" fill="#2D2A2B"/>
<path fill-rule="evenodd" clip-rule="evenodd" d="M74.1003 255.418L148.754 311.882C148.754 311.882 87.8079 269.783 74.1003 255.418Z" fill="#2D2A2B"/>
<path fill-rule="evenodd" clip-rule="evenodd" d="M180.124 519.064C179.202 517.506 165.721 489.671 165.721 489.671L166.89 501.949L131.991 449.853L153.694 500.463L125.062 469.823L127.676 482.113L114.354 470.258L131.697 490.169L131.957 482.905L162.217 515.503L160.675 502.877L169.537 515.852L170.956 506.976L180.108 519.049L180.124 519.064Z" fill="#363333"/>
<path fill-rule="evenodd" clip-rule="evenodd" d="M181.202 351.363C185.921 353.343 188.156 358.827 186.16 363.547L162.464 419.767C160.482 424.486 154.997 426.72 150.276 424.724C145.557 422.744 143.322 417.26 145.319 412.54L169.014 356.319C170.996 351.601 176.481 349.367 181.202 351.363Z" fill="#5E5B5B"/>
<path fill-rule="evenodd" clip-rule="evenodd" d="M202.765 416.534C203.646 415.179 208.417 407.654 208.417 407.654L190.129 410.818L188.273 423.695L202.765 416.534Z" fill="#363333"/>
<path fill-rule="evenodd" clip-rule="evenodd" d="M119.229 382.327C119.544 380.75 121.479 372.053 121.479 372.053L132.236 387.183L124.463 397.625L119.229 382.327Z" fill="#363333"/>
<path fill-rule="evenodd" clip-rule="evenodd" d="M183.621 434.142C182.286 437.304 178.61 438.816 175.431 437.483L123.593 415.66C120.43 414.326 118.933 410.649 120.267 407.472C121.602 404.309 125.278 402.797 128.457 404.13L180.295 425.953C183.458 427.287 184.955 430.964 183.621 434.142Z" fill="#5E5B5B"/>
<path fill-rule="evenodd" clip-rule="evenodd" d="M176.162 435.81C177.492 437.571 180.014 437.922 181.774 436.576L210.486 414.813C212.248 413.483 212.583 410.964 211.252 409.203C209.922 407.442 207.401 407.092 205.64 408.437L176.928 430.2C175.167 431.53 174.832 434.049 176.162 435.81Z" fill="#5E5B5B"/>
<path fill-rule="evenodd" clip-rule="evenodd" d="M124.51 414.757C122.323 415.07 120.289 413.537 119.991 411.35L114.959 375.686C114.646 373.5 116.179 371.467 118.367 371.169C120.554 370.856 122.588 372.389 122.885 374.576L127.902 410.242C128.216 412.428 126.682 414.461 124.494 414.759L124.51 414.757Z" fill="#5E5B5B"/>
<path fill-rule="evenodd" clip-rule="evenodd" d="M172.851 371.194C175.024 372.105 176.038 374.628 175.127 376.8L164.236 402.633C163.325 404.805 160.802 405.819 158.644 404.907C156.471 403.996 155.457 401.473 156.368 399.301L167.258 373.468C168.17 371.296 170.693 370.282 172.851 371.194Z" fill="#484545"/>
<path fill-rule="evenodd" clip-rule="evenodd" d="M260.429 478.128L202.521 522.476C202.521 522.476 246.612 485.095 260.429 478.128Z" fill="#2D2A2B"/>
<path fill-rule="evenodd" clip-rule="evenodd" d="M441.121 395.759L383.213 440.107C383.213 440.107 427.32 402.724 441.121 395.759Z" fill="#2D2A2B"/>
<path fill-rule="evenodd" clip-rule="evenodd" d="M438.754 381.616L380.846 425.963C380.846 425.963 424.953 388.581 438.754 381.616Z" fill="#2D2A2B"/>
<path fill-rule="evenodd" clip-rule="evenodd" d="M616.015 475.709C650.654 502.772 684.865 534.949 710.185 571.134C715.344 578.504 721.463 587.916 726.342 597.3C715.483 611.967 707.176 622.388 707.176 622.388L541.439 620.36C611.762 565.77 616.015 475.709 616.015 475.709Z" fill="#2D2A2B"/>
<path fill-rule="evenodd" clip-rule="evenodd" d="M228.406 497.267L200.081 518.967C200.081 518.967 221.649 500.683 228.406 497.267Z" fill="#2D2A2B"/>
<path fill-rule="evenodd" clip-rule="evenodd" d="M482.872 385.435L590.993 460.259C590.993 460.259 502.73 405.023 482.872 385.435Z" fill="#FBFEFA"/>
</g>
<defs>
<clipPath id="clip0_1105_11618">
<rect width="687.065" height="623.902" fill="white" transform="translate(0 53.8872) rotate(-4.49838)"/>
</clipPath>
</defs>
</svg>
