<svg width="961" height="586" fill="none" xmlns="http://www.w3.org/2000/svg">
    <g clip-path="url(#a)">
        <path style="mix-blend-mode:color-dodge" d="M798.704 26.506C796.95 13.741 805.879 1.972 818.648.22c12.768-1.753 24.54 7.174 26.294 19.938 1.754 12.765-7.176 24.535-19.944 26.288-12.768 1.753-24.541-7.174-26.294-19.939Z" fill="url(#b)"/>
    </g>
    <g clip-path="url(#c)">
        <path style="mix-blend-mode:color-dodge" d="M570.68 90.31c-1.754-12.765 7.176-24.534 19.944-26.287 12.769-1.753 24.541 7.174 26.295 19.939 1.753 12.765-7.176 24.534-19.945 26.287-12.768 1.753-24.54-7.174-26.294-19.939Z" fill="url(#d)"/>
    </g>
    <g clip-path="url(#e)">
        <path style="mix-blend-mode:color-dodge" d="M455.907 52.745c-1.754-12.764 7.175-24.534 19.944-26.287 12.768-1.753 24.541 7.174 26.294 19.939 1.754 12.765-7.176 24.534-19.944 26.287-12.768 1.753-24.541-7.174-26.294-19.939Z" fill="url(#f)"/>
    </g>
    <g clip-path="url(#g)">
        <path style="mix-blend-mode:color-dodge" d="M187.875 144.074c-1.753-12.765 7.176-24.535 19.944-26.288 12.769-1.753 24.541 7.174 26.295 19.939 1.753 12.765-7.176 24.534-19.944 26.287-12.769 1.753-24.541-7.174-26.295-19.938Z" fill="url(#h)"/>
    </g>
    <g clip-path="url(#i)">
        <path style="mix-blend-mode:color-dodge" d="M.211 186.356c-1.753-12.765 7.176-24.534 19.944-26.288 12.769-1.753 24.541 7.174 26.295 19.939 1.753 12.765-7.176 24.534-19.944 26.287-12.769 1.754-24.541-7.173-26.295-19.938Z" fill="url(#j)"/>
    </g>
    <g clip-path="url(#k)">
        <path style="mix-blend-mode:color-dodge" d="M743.965 379.378c-1.753-12.765 7.176-24.534 19.944-26.287 12.769-1.753 24.541 7.174 26.295 19.939 1.753 12.765-7.176 24.534-19.944 26.287-12.769 1.753-24.541-7.174-26.295-19.939Z" fill="url(#l)"/>
    </g>
    <g clip-path="url(#m)">
        <path style="mix-blend-mode:color-dodge" d="M914.395 239.568c-1.754-12.765 7.176-24.534 19.944-26.287 12.768-1.753 24.541 7.174 26.294 19.939 1.754 12.764-7.175 24.534-19.944 26.287-12.768 1.753-24.54-7.174-26.294-19.939Z" fill="url(#n)"/>
    </g>
    <g clip-path="url(#o)">
        <path style="mix-blend-mode:color-dodge" d="M5.07 442.957c-1.753-12.765 7.176-24.535 19.945-26.288 12.768-1.753 24.54 7.174 26.294 19.939 1.754 12.765-7.175 24.534-19.944 26.287-12.768 1.753-24.54-7.173-26.294-19.938Z" fill="url(#p)"/>
    </g>
    <g clip-path="url(#q)">
        <path style="mix-blend-mode:color-dodge" d="M339.25 270.185c-1.753-12.765 7.176-24.534 19.944-26.287 12.769-1.753 24.541 7.174 26.295 19.939 1.753 12.765-7.176 24.534-19.944 26.287-12.769 1.753-24.541-7.174-26.295-19.939Z" fill="url(#r)"/>
    </g>
    <g clip-path="url(#s)">
        <path style="mix-blend-mode:color-dodge" d="M843.411 184.251c-1.754-12.765 7.175-24.534 19.944-26.287 12.768-1.753 24.54 7.174 26.294 19.939 1.754 12.765-7.176 24.534-19.944 26.287-12.768 1.753-24.541-7.174-26.294-19.939Z" fill="url(#t)"/>
    </g>
    <g clip-path="url(#u)">
        <path style="mix-blend-mode:color-dodge" d="M537.157 392.978c-1.754-12.765 7.175-24.534 19.944-26.287 12.768-1.753 24.541 7.174 26.294 19.938 1.754 12.765-7.176 24.535-19.944 26.288-12.768 1.753-24.541-7.174-26.294-19.939Z" fill="url(#v)"/>
    </g>
    <g clip-path="url(#w)">
        <path style="mix-blend-mode:color-dodge" d="M794.325 556.471c-1.754-12.765 7.175-24.534 19.944-26.287 12.768-1.753 24.541 7.173 26.294 19.938 1.754 12.765-7.176 24.535-19.944 26.288-12.768 1.753-24.541-7.174-26.294-19.939Z" fill="url(#x)"/>
    </g>
    <g clip-path="url(#y)">
        <path style="mix-blend-mode:color-dodge" d="M93.22 565.552c-1.754-12.765 7.175-24.534 19.943-26.287 12.769-1.754 24.541 7.173 26.295 19.938 1.753 12.765-7.176 24.534-19.944 26.287-12.769 1.754-24.541-7.173-26.295-19.938Z" fill="url(#z)"/>
    </g>
    <path style="mix-blend-mode:color-dodge" d="M312.287 108.596c1.271 0 2.302 18.19 2.302 40.63s-1.031 40.63-2.302 40.63c-1.271 0-2.303-18.19-2.303-40.63s1.032-40.63 2.303-40.63Z" fill="url(#A)"/>
    <path style="mix-blend-mode:color-dodge" d="M271.66 149.212c0-1.271 18.195-2.302 40.641-2.302 22.446 0 40.641 1.031 40.641 2.302 0 1.271-18.195 2.302-40.641 2.302-22.446 0-40.641-1.031-40.641-2.302Z" fill="url(#B)"/>
    <path style="mix-blend-mode:color-dodge" d="M168.2 340.201c.89 0 1.611 12.71 1.611 28.386 0 15.675-.721 28.385-1.611 28.385s-1.61-12.71-1.61-28.385c0-15.676.72-28.386 1.61-28.386Z" fill="url(#C)"/>
    <path style="mix-blend-mode:color-dodge" d="M168.202 370.196c15.681 0 28.393-.72 28.393-1.61 0-.889-12.712-1.609-28.393-1.609-15.681 0-28.393.72-28.393 1.609 0 .89 12.712 1.61 28.393 1.61Z" fill="url(#D)"/>
    <path style="mix-blend-mode:color-dodge" d="M712.533 434.721c.539 0 .975-7.695.975-17.187s-.436-17.187-.975-17.187c-.538 0-.974 7.695-.974 17.187s.436 17.187.974 17.187Z" fill="url(#E)"/>
    <path style="mix-blend-mode:color-dodge" d="M695.344 417.534c0-.536 7.699-.974 17.191-.974 9.493 0 17.192.438 17.192.974 0 .537-7.699.975-17.192.975-9.492 0-17.191-.438-17.191-.975Z" fill="url(#F)"/>
    <path style="mix-blend-mode:color-dodge" d="M846.025 269.491c.539 0 .975-7.695.975-17.187s-.436-17.187-.975-17.187c-.538 0-.974 7.695-.974 17.187s.436 17.187.974 17.187Z" fill="url(#G)"/>
    <path style="mix-blend-mode:color-dodge" d="M828.836 252.304c0-.537 7.699-.974 17.191-.974 9.493 0 17.192.437 17.192.974 0 .537-7.699.974-17.192.974-9.492 0-17.191-.437-17.191-.974Z" fill="url(#H)"/>
    <path style="mix-blend-mode:color-dodge" d="M580.455 73.192c.538 0 .975-7.695.975-17.187s-.437-17.187-.975-17.187-.975 7.695-.975 17.187.437 17.187.975 17.187Z" fill="url(#I)"/>
    <path style="mix-blend-mode:color-dodge" d="M563.266 56.005c0-.536 7.698-.974 17.191-.974 9.493 0 17.191.438 17.191.974 0 .537-7.698.975-17.191.975-9.493 0-17.191-.438-17.191-.975Z" fill="url(#J)"/>
    <defs>
        <radialGradient id="b" cx="0" cy="0" r="1" gradientUnits="userSpaceOnUse" gradientTransform="matrix(-20.9207 0 0 -21.1242 821.546 23.235)">
            <stop offset=".09" stop-color="#fff"/>
            <stop offset=".1" stop-color="#EBEBEB"/>
            <stop offset=".13" stop-color="#BABABA"/>
            <stop offset=".17" stop-color="#8E8E8E"/>
            <stop offset=".2" stop-color="#686868"/>
            <stop offset=".23" stop-color="#484848"/>
            <stop offset=".27" stop-color="#2E2E2E"/>
            <stop offset=".31" stop-color="#191919"/>
            <stop offset=".36" stop-color="#0B0B0B"/>
            <stop offset=".42" stop-color="#030303"/>
            <stop offset=".52" stop-color="#010101"/>
            <stop offset="1"/>
        </radialGradient>
        <radialGradient id="d" cx="0" cy="0" r="1" gradientUnits="userSpaceOnUse" gradientTransform="matrix(-20.9207 0 0 -21.1242 593.523 87.039)">
            <stop offset=".09" stop-color="#fff"/>
            <stop offset=".1" stop-color="#EBEBEB"/>
            <stop offset=".13" stop-color="#BABABA"/>
            <stop offset=".17" stop-color="#8E8E8E"/>
            <stop offset=".2" stop-color="#686868"/>
            <stop offset=".23" stop-color="#484848"/>
            <stop offset=".27" stop-color="#2E2E2E"/>
            <stop offset=".31" stop-color="#191919"/>
            <stop offset=".36" stop-color="#0B0B0B"/>
            <stop offset=".42" stop-color="#030303"/>
            <stop offset=".52" stop-color="#010101"/>
            <stop offset="1"/>
        </radialGradient>
        <radialGradient id="f" cx="0" cy="0" r="1" gradientUnits="userSpaceOnUse" gradientTransform="matrix(-20.9207 0 0 -21.1242 478.749 49.474)">
            <stop offset=".09" stop-color="#fff"/>
            <stop offset=".1" stop-color="#EBEBEB"/>
            <stop offset=".13" stop-color="#BABABA"/>
            <stop offset=".17" stop-color="#8E8E8E"/>
            <stop offset=".2" stop-color="#686868"/>
            <stop offset=".23" stop-color="#484848"/>
            <stop offset=".27" stop-color="#2E2E2E"/>
            <stop offset=".31" stop-color="#191919"/>
            <stop offset=".36" stop-color="#0B0B0B"/>
            <stop offset=".42" stop-color="#030303"/>
            <stop offset=".52" stop-color="#010101"/>
            <stop offset="1"/>
        </radialGradient>
        <radialGradient id="h" cx="0" cy="0" r="1" gradientUnits="userSpaceOnUse" gradientTransform="matrix(-20.9207 0 0 -21.1242 210.718 140.802)">
            <stop offset=".09" stop-color="#fff"/>
            <stop offset=".1" stop-color="#EBEBEB"/>
            <stop offset=".13" stop-color="#BABABA"/>
            <stop offset=".17" stop-color="#8E8E8E"/>
            <stop offset=".2" stop-color="#686868"/>
            <stop offset=".23" stop-color="#484848"/>
            <stop offset=".27" stop-color="#2E2E2E"/>
            <stop offset=".31" stop-color="#191919"/>
            <stop offset=".36" stop-color="#0B0B0B"/>
            <stop offset=".42" stop-color="#030303"/>
            <stop offset=".52" stop-color="#010101"/>
            <stop offset="1"/>
        </radialGradient>
        <radialGradient id="j" cx="0" cy="0" r="1" gradientUnits="userSpaceOnUse" gradientTransform="matrix(-20.9207 0 0 -21.1242 23.054 183.084)">
            <stop offset=".09" stop-color="#fff"/>
            <stop offset=".1" stop-color="#EBEBEB"/>
            <stop offset=".13" stop-color="#BABABA"/>
            <stop offset=".17" stop-color="#8E8E8E"/>
            <stop offset=".2" stop-color="#686868"/>
            <stop offset=".23" stop-color="#484848"/>
            <stop offset=".27" stop-color="#2E2E2E"/>
            <stop offset=".31" stop-color="#191919"/>
            <stop offset=".36" stop-color="#0B0B0B"/>
            <stop offset=".42" stop-color="#030303"/>
            <stop offset=".52" stop-color="#010101"/>
            <stop offset="1"/>
        </radialGradient>
        <radialGradient id="l" cx="0" cy="0" r="1" gradientUnits="userSpaceOnUse" gradientTransform="matrix(-20.9207 0 0 -21.1242 766.808 376.107)">
            <stop offset=".09" stop-color="#fff"/>
            <stop offset=".1" stop-color="#EBEBEB"/>
            <stop offset=".13" stop-color="#BABABA"/>
            <stop offset=".17" stop-color="#8E8E8E"/>
            <stop offset=".2" stop-color="#686868"/>
            <stop offset=".23" stop-color="#484848"/>
            <stop offset=".27" stop-color="#2E2E2E"/>
            <stop offset=".31" stop-color="#191919"/>
            <stop offset=".36" stop-color="#0B0B0B"/>
            <stop offset=".42" stop-color="#030303"/>
            <stop offset=".52" stop-color="#010101"/>
            <stop offset="1"/>
        </radialGradient>
        <radialGradient id="n" cx="0" cy="0" r="1" gradientUnits="userSpaceOnUse" gradientTransform="matrix(-20.9207 0 0 -21.1242 937.237 236.297)">
            <stop offset=".09" stop-color="#fff"/>
            <stop offset=".1" stop-color="#EBEBEB"/>
            <stop offset=".13" stop-color="#BABABA"/>
            <stop offset=".17" stop-color="#8E8E8E"/>
            <stop offset=".2" stop-color="#686868"/>
            <stop offset=".23" stop-color="#484848"/>
            <stop offset=".27" stop-color="#2E2E2E"/>
            <stop offset=".31" stop-color="#191919"/>
            <stop offset=".36" stop-color="#0B0B0B"/>
            <stop offset=".42" stop-color="#030303"/>
            <stop offset=".52" stop-color="#010101"/>
            <stop offset="1"/>
        </radialGradient>
        <radialGradient id="p" cx="0" cy="0" r="1" gradientUnits="userSpaceOnUse" gradientTransform="matrix(-20.9207 0 0 -21.1242 27.913 439.685)">
            <stop offset=".09" stop-color="#fff"/>
            <stop offset=".1" stop-color="#EBEBEB"/>
            <stop offset=".13" stop-color="#BABABA"/>
            <stop offset=".17" stop-color="#8E8E8E"/>
            <stop offset=".2" stop-color="#686868"/>
            <stop offset=".23" stop-color="#484848"/>
            <stop offset=".27" stop-color="#2E2E2E"/>
            <stop offset=".31" stop-color="#191919"/>
            <stop offset=".36" stop-color="#0B0B0B"/>
            <stop offset=".42" stop-color="#030303"/>
            <stop offset=".52" stop-color="#010101"/>
            <stop offset="1"/>
        </radialGradient>
        <radialGradient id="r" cx="0" cy="0" r="1" gradientUnits="userSpaceOnUse" gradientTransform="matrix(-20.9207 0 0 -21.1242 362.093 266.914)">
            <stop offset=".09" stop-color="#fff"/>
            <stop offset=".1" stop-color="#EBEBEB"/>
            <stop offset=".13" stop-color="#BABABA"/>
            <stop offset=".17" stop-color="#8E8E8E"/>
            <stop offset=".2" stop-color="#686868"/>
            <stop offset=".23" stop-color="#484848"/>
            <stop offset=".27" stop-color="#2E2E2E"/>
            <stop offset=".31" stop-color="#191919"/>
            <stop offset=".36" stop-color="#0B0B0B"/>
            <stop offset=".42" stop-color="#030303"/>
            <stop offset=".52" stop-color="#010101"/>
            <stop offset="1"/>
        </radialGradient>
        <radialGradient id="t" cx="0" cy="0" r="1" gradientUnits="userSpaceOnUse" gradientTransform="matrix(-20.9207 0 0 -21.1242 866.253 180.98)">
            <stop offset=".09" stop-color="#fff"/>
            <stop offset=".1" stop-color="#EBEBEB"/>
            <stop offset=".13" stop-color="#BABABA"/>
            <stop offset=".17" stop-color="#8E8E8E"/>
            <stop offset=".2" stop-color="#686868"/>
            <stop offset=".23" stop-color="#484848"/>
            <stop offset=".27" stop-color="#2E2E2E"/>
            <stop offset=".31" stop-color="#191919"/>
            <stop offset=".36" stop-color="#0B0B0B"/>
            <stop offset=".42" stop-color="#030303"/>
            <stop offset=".52" stop-color="#010101"/>
            <stop offset="1"/>
        </radialGradient>
        <radialGradient id="v" cx="0" cy="0" r="1" gradientUnits="userSpaceOnUse" gradientTransform="matrix(-20.9207 0 0 -21.1242 559.999 389.706)">
            <stop offset=".09" stop-color="#fff"/>
            <stop offset=".1" stop-color="#EBEBEB"/>
            <stop offset=".13" stop-color="#BABABA"/>
            <stop offset=".17" stop-color="#8E8E8E"/>
            <stop offset=".2" stop-color="#686868"/>
            <stop offset=".23" stop-color="#484848"/>
            <stop offset=".27" stop-color="#2E2E2E"/>
            <stop offset=".31" stop-color="#191919"/>
            <stop offset=".36" stop-color="#0B0B0B"/>
            <stop offset=".42" stop-color="#030303"/>
            <stop offset=".52" stop-color="#010101"/>
            <stop offset="1"/>
        </radialGradient>
        <radialGradient id="x" cx="0" cy="0" r="1" gradientUnits="userSpaceOnUse" gradientTransform="matrix(-20.9207 0 0 -21.1242 817.167 553.199)">
            <stop offset=".09" stop-color="#fff"/>
            <stop offset=".1" stop-color="#EBEBEB"/>
            <stop offset=".13" stop-color="#BABABA"/>
            <stop offset=".17" stop-color="#8E8E8E"/>
            <stop offset=".2" stop-color="#686868"/>
            <stop offset=".23" stop-color="#484848"/>
            <stop offset=".27" stop-color="#2E2E2E"/>
            <stop offset=".31" stop-color="#191919"/>
            <stop offset=".36" stop-color="#0B0B0B"/>
            <stop offset=".42" stop-color="#030303"/>
            <stop offset=".52" stop-color="#010101"/>
            <stop offset="1"/>
        </radialGradient>
        <radialGradient id="z" cx="0" cy="0" r="1" gradientUnits="userSpaceOnUse" gradientTransform="matrix(-20.9207 0 0 -21.1242 116.062 562.28)">
            <stop offset=".09" stop-color="#fff"/>
            <stop offset=".1" stop-color="#EBEBEB"/>
            <stop offset=".13" stop-color="#BABABA"/>
            <stop offset=".17" stop-color="#8E8E8E"/>
            <stop offset=".2" stop-color="#686868"/>
            <stop offset=".23" stop-color="#484848"/>
            <stop offset=".27" stop-color="#2E2E2E"/>
            <stop offset=".31" stop-color="#191919"/>
            <stop offset=".36" stop-color="#0B0B0B"/>
            <stop offset=".42" stop-color="#030303"/>
            <stop offset=".52" stop-color="#010101"/>
            <stop offset="1"/>
        </radialGradient>
        <radialGradient id="A" cx="0" cy="0" r="1" gradientUnits="userSpaceOnUse" gradientTransform="matrix(0 -37.861 2.06947 0 312.26 148.869)">
            <stop stop-color="#fff"/>
            <stop offset="1"/>
        </radialGradient>
        <radialGradient id="B" cx="0" cy="0" r="1" gradientUnits="userSpaceOnUse" gradientTransform="matrix(-37.8713 0 0 -2.0689 312.017 149.284)">
            <stop stop-color="#fff"/>
            <stop offset="1"/>
        </radialGradient>
        <radialGradient id="C" cx="0" cy="0" r="1" gradientUnits="userSpaceOnUse" gradientTransform="matrix(0 -26.4639 1.44651 0 168.026 368.282)">
            <stop stop-color="#fff"/>
            <stop offset="1"/>
        </radialGradient>
        <radialGradient id="D" cx="0" cy="0" r="1" gradientUnits="userSpaceOnUse" gradientTransform="matrix(-26.4711 0 0 -1.44612 168.237 368.851)">
            <stop stop-color="#fff"/>
            <stop offset="1"/>
        </radialGradient>
        <radialGradient id="E" cx="0" cy="0" r="1" gradientUnits="userSpaceOnUse" gradientTransform="matrix(0 -16.0231 .87582 0 712.823 417.411)">
            <stop stop-color="#fff"/>
            <stop offset="1"/>
        </radialGradient>
        <radialGradient id="F" cx="0" cy="0" r="1" gradientUnits="userSpaceOnUse" gradientTransform="matrix(-16.0275 0 0 -.87558 712.394 417.863)">
            <stop stop-color="#fff"/>
            <stop offset="1"/>
        </radialGradient>
        <radialGradient id="G" cx="0" cy="0" r="1" gradientUnits="userSpaceOnUse" gradientTransform="matrix(0 -16.0231 .87582 0 846.429 252.295)">
            <stop stop-color="#fff"/>
            <stop offset="1"/>
        </radialGradient>
        <radialGradient id="H" cx="0" cy="0" r="1" gradientUnits="userSpaceOnUse" gradientTransform="matrix(-16.0275 0 0 -.87557 845.784 252.496)">
            <stop stop-color="#fff"/>
            <stop offset="1"/>
        </radialGradient>
        <radialGradient id="I" cx="0" cy="0" r="1" gradientUnits="userSpaceOnUse" gradientTransform="matrix(0 -16.0231 .8758 0 580.622 56.116)">
            <stop stop-color="#fff"/>
            <stop offset="1"/>
        </radialGradient>
        <radialGradient id="J" cx="0" cy="0" r="1" gradientUnits="userSpaceOnUse" gradientTransform="matrix(-16.0274 0 0 -.87558 580.4 56.012)">
            <stop stop-color="#fff"/>
            <stop offset="1"/>
        </radialGradient>
        <clipPath id="a">
            <path fill="#fff" transform="matrix(-1 0 0 1 845.164 0)" d="M0 0h46.672v46.66H0z"/>
        </clipPath>
        <clipPath id="c">
            <path fill="#fff" transform="matrix(-1 0 0 1 617.141 63.804)" d="M0 0h46.672v46.66H0z"/>
        </clipPath>
        <clipPath id="e">
            <path fill="#fff" transform="matrix(-1 0 0 1 502.367 26.24)" d="M0 0h46.672v46.66H0z"/>
        </clipPath>
        <clipPath id="g">
            <path fill="#fff" transform="matrix(-1 0 0 1 234.336 117.567)" d="M0 0h46.672v46.66H0z"/>
        </clipPath>
        <clipPath id="i">
            <path fill="#fff" transform="matrix(-1 0 0 1 46.672 159.85)" d="M0 0h46.672v46.66H0z"/>
        </clipPath>
        <clipPath id="k">
            <path fill="#fff" transform="matrix(-1 0 0 1 790.426 352.872)" d="M0 0h46.672v46.66H0z"/>
        </clipPath>
        <clipPath id="m">
            <path fill="#fff" transform="matrix(-1 0 0 1 960.855 213.062)" d="M0 0h46.672v46.66H0z"/>
        </clipPath>
        <clipPath id="o">
            <path fill="#fff" transform="matrix(-1 0 0 1 51.531 416.45)" d="M0 0h46.672v46.66H0z"/>
        </clipPath>
        <clipPath id="q">
            <path fill="#fff" transform="matrix(-1 0 0 1 385.711 243.679)" d="M0 0h46.672v46.66H0z"/>
        </clipPath>
        <clipPath id="s">
            <path fill="#fff" transform="matrix(-1 0 0 1 889.871 157.745)" d="M0 0h46.672v46.66H0z"/>
        </clipPath>
        <clipPath id="u">
            <path fill="#fff" transform="matrix(-1 0 0 1 583.617 366.472)" d="M0 0h46.672v46.66H0z"/>
        </clipPath>
        <clipPath id="w">
            <path fill="#fff" transform="matrix(-1 0 0 1 840.785 529.965)" d="M0 0h46.672v46.66H0z"/>
        </clipPath>
        <clipPath id="y">
            <path fill="#fff" transform="matrix(-1 0 0 1 139.68 539.046)" d="M0 0h46.672v46.66H0z"/>
        </clipPath>
    </defs>
</svg>
