<svg width="123" height="134" viewBox="0 0 123 134" fill="none" xmlns="http://www.w3.org/2000/svg">
<g clip-path="url(#clip0_1105_15892)">
<path d="M114.229 84.2379L115.294 88.3202L79.7717 112.949L42.3759 103.136L0 46.8125L2.14235 45.5003L22.8816 32.7149L43.6658 14.8714L71.9762 4.37395L75.1953 0.515902L93.7586 5.38333L102.373 0L117.19 32.5467L122.136 55.0894L122.989 59.0035L112.098 72.6637L111.436 73.4936L114.229 84.2379Z" fill="#CFEEFF"/>
<path d="M115.294 88.3314L109.305 102.328L76.0142 134L79.7717 112.949L115.294 88.3314Z" fill="#B4E6FF"/>
<path d="M123 59.0035L114.049 83.5425L111.436 73.5048L123 59.0035Z" fill="#9CD8F8"/>
<path d="M79.7717 112.949L76.0142 134L49.3414 127.002L42.376 103.124L79.7717 112.949Z" fill="#9CD8F8"/>
<path d="M42.3759 103.124L49.3413 127.002L10.88 81.4901L0 46.8237L42.3759 103.124Z" fill="#B4E6FF"/>
<path d="M12.1812 63.0074L105.906 7.74976L110.909 18.7295L21.1656 74.9404L12.1812 63.0074Z" fill="#E6F5FE"/>
<path d="M23.8687 78.5293L113.051 23.4399L115.047 27.8363L27.1326 82.8696L23.8687 78.5293Z" fill="#E6F5FE"/>
<path d="M117.19 32.5467L76.0591 60.125L119.108 41.2497L117.19 32.5467Z" fill="#E6F5FE"/>
<path d="M111.436 73.5049L73.1089 97.7523L112.625 78.0807L111.436 73.5049Z" fill="#E6F5FE"/>
<path d="M114.229 84.2379L115.294 88.3202L79.7717 112.949L42.3759 103.136L0 46.8125L42.0618 98.5261L79.4576 108.339L114.229 84.2379Z" fill="#E6F5FE"/>
<path d="M112.097 72.6637L111.122 68.9066L122.136 55.0894L122.989 59.0035L112.097 72.6637Z" fill="#E6F5FE"/>
<g style="mix-blend-mode:multiply" opacity="0.2">
<path d="M12.1812 63.0074L15.2657 86.6716L21.4348 93.9727L21.1656 74.9404L12.1812 63.0074Z" fill="#9CD8F8"/>
</g>
<g style="mix-blend-mode:multiply" opacity="0.2">
<path d="M24.4634 79.3256L24.6316 97.7635L28.2658 102.059L28.0863 84.1369L24.4634 79.3256Z" fill="#9CD8F8"/>
</g>
<g style="mix-blend-mode:multiply" opacity="0.2">
<path d="M99.7597 99.0869L94.9702 115.966L103.977 107.397L108.744 92.8624L99.7597 99.0869Z" fill="#9CD8F8"/>
</g>
<g style="mix-blend-mode:multiply">
<path d="M36.7227 20.8267L43.6432 28.0045L42.7123 22.3969L41.4224 23.1147L39.6838 18.2809L36.7227 20.8267Z" fill="#9CD8F8"/>
</g>
</g>
<defs>
<clipPath id="clip0_1105_15892">
<rect width="123" height="134" fill="white"/>
</clipPath>
</defs>
</svg>
