<svg width="253" height="61" viewBox="0 0 253 61" fill="none" xmlns="http://www.w3.org/2000/svg">
<g clip-path="url(#clip0_1105_15828)">
<path d="M253 23.6979L206.914 30.6531L194.17 36.4272L164.11 30.7187L147.566 29.1768L106.767 34.3603L103.121 31.0249L84.1094 34.426L57.7949 42.8684L53.6974 41.8186L3.65693 43.459L1.1575e-07 42.0482L1.10662e-07 40.2001L1.21163 39.9704L30.7975 34.3603L53.5432 26.3663L53.5432 23.8401L55.9334 21.478L92.8992 11.8544L85.6735 9.47042L91.7206 5.85066L127.882 -3.52032e-07L198.488 -5.46392e-07L188.872 10.6624L214.074 10.6624L214.745 12.0622L248.748 10.6624L252.196 21.2592L253 23.6979Z" fill="#CFEEFF"/>
<path d="M253 23.6979L206.914 30.6531L194.17 36.4272L164.11 30.7187L147.566 29.1768L106.767 34.3604L103.121 31.0249L84.1094 34.426L57.7949 42.8684L53.6974 41.8186L3.65693 43.459L5.72275e-08 42.0482L53.6974 39.2815L57.7949 40.3204L84.1094 31.8779L103.121 28.4769L106.767 31.8123L147.566 26.6287L164.11 28.1707L194.17 33.8792L206.914 28.1051L252.196 21.2592L253 23.6979Z" fill="#E6F5FE"/>
<path d="M198.488 -2.64706e-08L197.672 10.6624L188.872 10.6624L198.488 -2.64706e-08Z" fill="#9CD8F8"/>
<path d="M253 23.6979L240.399 50.2719L206.617 55.379L206.914 30.6531L253 23.6979Z" fill="#B4E6FF"/>
<path d="M206.914 30.6531L206.616 55.379C206.616 55.379 190.898 61.3171 191.019 60.9891C191.129 60.661 194.169 36.4272 194.169 36.4272L206.925 30.6531L206.914 30.6531Z" fill="#9CD8F8"/>
<path d="M194.17 36.4272L191.02 60.9891C191.02 60.9891 171.843 59.7643 171.667 59.7096C171.501 59.6549 150.639 54.0995 150.639 54.0995L153.657 42.1029L164.11 30.7187L194.159 36.4163L194.17 36.4272Z" fill="#B4E6FF"/>
<path d="M164.121 30.7297L153.657 42.1029L147.566 29.1658L164.121 30.7297Z" fill="#89CAEC"/>
<path d="M147.566 29.1658L153.657 42.1029L150.639 54.0995L139.062 54.0995L109.201 58.4848L106.778 34.3494L147.566 29.1658Z" fill="#9CD8F8"/>
<path d="M109.201 58.4848L97.1177 53.7168L103.121 31.0249L106.778 34.3494L109.201 58.4848Z" fill="#B4E6FF"/>
<path d="M103.121 31.0249L97.1177 53.7168L78.8882 55.1603L84.1092 34.426L103.121 31.0249Z" fill="#89CAEC"/>
<path d="M84.1093 34.426L78.8882 55.1603L54.1709 60.0377L57.7948 42.8684L84.1093 34.426Z" fill="#9CD8F8"/>
<path d="M57.7951 42.8684L54.1712 60.0376L50.0957 59.1518L53.6865 41.8295L57.7951 42.8684Z" fill="#B4E6FF"/>
<path d="M53.6862 41.8295L50.0953 59.1518L30.4669 55.882L5.68347 55.7617L3.65674 43.4589L53.6862 41.8295Z" fill="#9CD8F8"/>
<path d="M5.68366 55.7617L2.44745e-08 50.939L0 42.0482L3.65693 43.4589L5.68366 55.7617Z" fill="#B4E6FF"/>
<path d="M85.6736 9.48135L85.2109 13.8557L92.9103 11.8435L85.6736 9.48135Z" fill="#9CD8F8"/>
<path d="M57.7951 42.8684L53.6865 41.8295L112.263 2.52616L121.725 0.995148L69.1404 39.2268L57.7951 42.8684Z" fill="#E6F5FE"/>
<path d="M75.8154 37.0834L127.883 -1.43329e-07L134.767 -1.6228e-07L84.1096 34.426L75.8154 37.0834Z" fill="#E6F5FE"/>
<path d="M98.0981 31.9217L121.725 13.1449L101.27 31.353L98.0981 31.9217Z" fill="#E6F5FE"/>
<path d="M191.02 -1.07247e-07L152.06 29.5923L157.854 30.1391L195.448 -1.19436e-07L191.02 -1.07247e-07Z" fill="#E6F5FE"/>
<path d="M186.569 -1.52426e-07L141.904 29.8876L131.198 31.2546L174.53 -1.19285e-07L186.569 -1.52426e-07Z" fill="#E6F5FE"/>
<path d="M147.566 29.1658L171.446 12.0622L150.639 29.4611L147.566 29.1658Z" fill="#E6F5FE"/>
<path d="M214.074 10.6624L201.616 27.7004L214.745 12.0731L214.074 10.6624Z" fill="#E6F5FE"/>
<g style="mix-blend-mode:multiply" opacity="0.2">
<path d="M72.2684 38.2207L67.1134 57.4787L58.665 59.1519L61.0222 41.8295L72.2684 38.2207Z" fill="#9CD8F8"/>
</g>
<g style="mix-blend-mode:multiply" opacity="0.2">
<path d="M131.198 31.2546L128.51 55.6524L139.062 54.0995L141.904 29.8876L131.198 31.2546Z" fill="#9CD8F8"/>
</g>
<g style="mix-blend-mode:multiply" opacity="0.2">
<path d="M180.192 33.7807L171.667 59.7096L176.866 60.0376L184.994 34.6884L180.192 33.7807Z" fill="#9CD8F8"/>
</g>
<g style="mix-blend-mode:multiply">
<path d="M113.563 57.8505L111.999 33.7807L124.941 22.5387L122.419 21.7295L141.904 15.6273L126.495 21.2592L131.198 21.7295L115.777 33.2121L116.713 57.3803L113.563 57.8505Z" fill="#9CD8F8"/>
</g>
<g style="mix-blend-mode:multiply">
<path d="M250.059 14.6759L228.216 17.6614L229.803 19.1814L226.773 20.0235L231.994 20.0235L231.543 18.2081L250.554 16.2288L250.059 14.6759Z" fill="#9CD8F8"/>
</g>
<g style="mix-blend-mode:multiply">
<path d="M116.713 57.3803L114.51 32.3591L127.287 23.1402L126.494 21.2592L131.198 21.7295L115.777 33.2121L116.713 57.3803Z" fill="#4BB8F2"/>
</g>
<g style="mix-blend-mode:multiply">
<path d="M250.554 16.2288L230.353 17.9894L230.849 19.4548L229.692 19.6298L226.773 20.0235L231.994 20.0235L231.543 18.2081L250.554 16.2288Z" fill="#4BB8F2"/>
</g>
</g>
<defs>
<clipPath id="clip0_1105_15828">
<rect width="253" height="61" fill="white"/>
</clipPath>
</defs>
</svg>
