<svg width="217" height="53" viewBox="0 0 217 53" fill="none" xmlns="http://www.w3.org/2000/svg">
<g clip-path="url(#clip0_1105_16112)">
<path d="M217 20.59L177.472 26.633L166.541 31.6499L140.759 26.69L126.568 25.3503L91.5748 29.8541L88.4476 26.9561L72.1412 29.9111L49.5711 37.2463L46.0566 36.3342L3.13658 37.7594L0 36.5337V34.9279L1.03923 34.7284L26.4153 29.8541L45.9244 22.9084V20.7135L47.9745 18.6612L79.6803 10.2997L73.4828 8.2284L78.6695 5.08336L109.686 0H170.244L161.997 9.26407H183.612L184.189 10.4803L213.353 9.26407L216.31 18.4711L217 20.59Z" fill="#CFEEFF"/>
<path d="M217 20.59L177.472 26.633L166.541 31.6499L140.759 26.69L126.568 25.3503L91.5748 29.8541L88.4476 26.9561L72.1412 29.9111L49.5711 37.2463L46.0566 36.3342L3.13658 37.7594L0 36.5337L46.0566 34.1298L49.5711 35.0324L72.1412 27.6972L88.4476 24.7422L91.5748 27.6402L126.568 23.1364L140.759 24.4761L166.541 29.436L177.472 24.4191L216.31 18.4711L217 20.59Z" fill="#E6F5FE"/>
<path d="M170.244 0L169.545 9.26407H161.997L170.244 0Z" fill="#9CD8F8"/>
<path d="M217 20.59L206.192 43.6789L177.216 48.1162L177.471 26.633L217 20.59Z" fill="#B4E6FF"/>
<path d="M177.472 26.633L177.217 48.1162C177.217 48.1162 163.735 53.2755 163.839 52.9905C163.933 52.7055 166.541 31.6499 166.541 31.6499L177.481 26.633H177.472Z" fill="#9CD8F8"/>
<path d="M166.541 31.6499L163.839 52.9905C163.839 52.9905 147.391 51.9263 147.239 51.8788C147.098 51.8313 129.204 47.0045 129.204 47.0045L131.793 36.5812L140.758 26.69L166.531 31.6404L166.541 31.6499Z" fill="#B4E6FF"/>
<path d="M140.768 26.6995L131.793 36.5812L126.568 25.3408L140.768 26.6995Z" fill="#89CAEC"/>
<path d="M126.568 25.3408L131.793 36.5812L129.204 47.0045H119.275L93.6624 50.8146L91.584 29.8446L126.568 25.3408Z" fill="#9CD8F8"/>
<path d="M93.6628 50.8146L83.2988 46.6719L88.4477 26.9561L91.5843 29.8446L93.6628 50.8146Z" fill="#B4E6FF"/>
<path d="M88.4476 26.9561L83.2987 46.6719L67.6631 47.9261L72.1412 29.9111L88.4476 26.9561Z" fill="#89CAEC"/>
<path d="M72.1412 29.9111L67.6631 47.9261L46.4629 52.1639L49.5711 37.2463L72.1412 29.9111Z" fill="#9CD8F8"/>
<path d="M49.5711 37.2463L46.4629 52.1639L42.9673 51.3942L46.0472 36.3437L49.5711 37.2463Z" fill="#B4E6FF"/>
<path d="M46.0471 36.3437L42.9672 51.3942L26.1317 48.5533L4.87482 48.4487L3.13647 37.7594L46.0471 36.3437Z" fill="#9CD8F8"/>
<path d="M4.87492 48.4487L0 44.2585V36.5337L3.13658 37.7594L4.87492 48.4487Z" fill="#B4E6FF"/>
<path d="M73.4827 8.23788L73.0859 12.0385L79.6897 10.2902L73.4827 8.23788Z" fill="#9CD8F8"/>
<path d="M49.5713 37.2463L46.0474 36.3437L96.2893 2.19488L104.405 0.864655L59.3022 34.0823L49.5713 37.2463Z" fill="#E6F5FE"/>
<path d="M65.0273 32.22L109.686 0H115.59L72.1413 29.9111L65.0273 32.22Z" fill="#E6F5FE"/>
<path d="M84.1396 27.7352L104.405 11.4209L86.8605 27.2411L84.1396 27.7352Z" fill="#E6F5FE"/>
<path d="M163.839 0L130.423 25.7114L135.392 26.1864L167.637 0H163.839Z" fill="#E6F5FE"/>
<path d="M160.022 0L121.712 25.9679L112.529 27.1556L149.696 0H160.022Z" fill="#E6F5FE"/>
<path d="M126.568 25.3408L147.051 10.4803L129.204 25.5974L126.568 25.3408Z" fill="#E6F5FE"/>
<path d="M183.612 9.26407L172.927 24.0676L184.189 10.4898L183.612 9.26407Z" fill="#E6F5FE"/>
<g style="mix-blend-mode:multiply" opacity="0.2">
<path d="M61.9851 33.2081L57.5636 49.9405L50.3174 51.3942L52.3392 36.3437L61.9851 33.2081Z" fill="#9CD8F8"/>
</g>
<g style="mix-blend-mode:multiply" opacity="0.2">
<path d="M112.529 27.1556L110.224 48.3537L119.275 47.0045L121.712 25.9679L112.529 27.1556Z" fill="#9CD8F8"/>
</g>
<g style="mix-blend-mode:multiply" opacity="0.2">
<path d="M154.552 29.3505L147.24 51.8788L151.699 52.1639L158.671 30.1391L154.552 29.3505Z" fill="#9CD8F8"/>
</g>
<g style="mix-blend-mode:multiply">
<path d="M97.404 50.2635L96.0625 29.3505L107.163 19.5828L105 18.8797L121.713 13.5778L108.495 18.4712L112.53 18.8797L99.303 28.8564L100.106 49.855L97.404 50.2635Z" fill="#9CD8F8"/>
</g>
<g style="mix-blend-mode:multiply">
<path d="M214.477 12.7512L195.743 15.3451L197.103 16.6658L194.505 17.3974H198.983L198.596 15.8202L214.903 14.1004L214.477 12.7512Z" fill="#9CD8F8"/>
</g>
<g style="mix-blend-mode:multiply">
<path d="M100.106 49.855L98.2163 28.1153L109.175 20.1054L108.495 18.4711L112.529 18.8797L99.3028 28.8564L100.106 49.855Z" fill="#4BB8F2"/>
</g>
<g style="mix-blend-mode:multiply">
<path d="M214.903 14.1004L197.576 15.6302L198.001 16.9034L197.009 17.0554L194.505 17.3975H198.983L198.596 15.8202L214.903 14.1004Z" fill="#4BB8F2"/>
</g>
</g>
<defs>
<clipPath id="clip0_1105_16112">
<rect width="217" height="53" fill="white"/>
</clipPath>
</defs>
</svg>
