<svg width="137" height="145" viewBox="0 0 137 145" fill="none" xmlns="http://www.w3.org/2000/svg">
<g clip-path="url(#clip0_1105_15694)">
<path d="M13.7852 49.8947L53.9059 68.0532L63.7729 80.2467L80.9212 89.1157L116.347 101.903L125.727 107.867L139.832 89.9836L138.308 88.1791L133.685 82.6919L99.9568 61.4251L97.0177 48.8808L74.2304 38.9472L37.9893 36.9359L27.8436 33.2929L15.7176 47.6136L13.7852 49.8947Z" fill="#CFEEFF"/>
<path d="M13.7801 49.8874L19.3535 60.7005L52.5982 77.8265L53.8986 68.0583L13.7801 49.8874Z" fill="#B4E6FF"/>
<path d="M53.8985 68.0583L63.7729 80.2467L62.8557 88.1811L52.5981 77.8265L53.8985 68.0583Z" fill="#9CD8F8"/>
<path d="M63.7727 80.2467L80.921 89.1157L79.3848 96.7598L62.8555 88.1811L63.7727 80.2467Z" fill="#B4E6FF"/>
<path d="M80.921 89.1157L116.347 101.903L113.229 109.086L79.3848 96.7598L80.921 89.1157Z" fill="#9CD8F8"/>
<path d="M116.347 101.903L125.726 107.867L119.486 112.227L113.229 109.086L116.347 101.903Z" fill="#B4E6FF"/>
<path d="M74.2253 38.9399L25.9893 55.4178L35.9849 59.9432L80.1667 41.5343L74.2253 38.9399Z" fill="#E6F5FE"/>
<path d="M82.7162 42.644L41.1587 62.2855L46.4281 64.6705L85.3737 43.7987L82.7162 42.644Z" fill="#E6F5FE"/>
<path d="M99.9494 61.4302L63.7729 80.2467L69.0877 82.9943L105.858 65.1535L99.9494 61.4302Z" fill="#E6F5FE"/>
<path d="M113.901 70.2222L76.2739 86.7121L80.9212 89.1157L120.767 74.5472L113.901 70.2222Z" fill="#E6F5FE"/>
<path d="M133.69 82.6992L107.859 94.0027L137.444 87.162L133.69 82.6992Z" fill="#E6F5FE"/>
<path d="M13.7852 49.8947L53.9059 68.0532L63.7729 80.2467L80.9212 89.1157L116.347 101.903L125.727 107.867L139.832 89.9836L125.398 104.559L116.006 98.5935L80.5872 85.8009L63.4337 76.9245L53.5697 64.7509L15.7176 47.6136L13.7852 49.8947Z" fill="#E6F5FE"/>
<g style="mix-blend-mode:multiply" opacity="0.2">
<path d="M70.9416 83.9549L69.3423 91.5555L65.0045 89.2971L66.7906 81.8069L70.9416 83.9549Z" fill="#9CD8F8"/>
</g>
<g style="mix-blend-mode:multiply" opacity="0.2">
<path d="M46.8105 64.8415L45.6868 74.2671L40.4228 71.5607L42.4893 62.889L46.8105 64.8415Z" fill="#9CD8F8"/>
</g>
<g style="mix-blend-mode:multiply" opacity="0.2">
<path d="M35.9846 59.9432L33.8184 68.1589L25.4082 63.818L26.7763 55.7766L35.9846 59.9432Z" fill="#9CD8F8"/>
</g>
<g style="mix-blend-mode:multiply">
<path d="M98.6595 55.8701L88.8521 59.1528L96.3406 55.1688L97.8549 52.4461L98.6595 55.8701Z" fill="#9CD8F8"/>
</g>
<path d="M59.1017 74.4866L63.7725 80.2467L66.7901 81.8069L69.0946 82.9892L70.9485 83.9498L76.2809 86.707L80.9333 89.1179L116.359 101.905L125.734 107.861L139.831 89.9836L138.308 88.1791L137.449 87.1694L133.69 82.6992L120.764 74.5597L105.856 65.166L99.9541 61.4376L98.6572 55.8826L98.4095 54.8072L97.8578 52.4659L97.8651 52.4608L97.0327 48.9028L91.7125 46.5862C82.8636 51.225 78.8203 56.3938 71.1403 63.348C66.9497 67.1303 63.6124 70.5354 60.4904 73.3082C60.0238 73.7219 59.5719 74.1252 59.1097 74.5139L59.1017 74.4866Z" fill="#5CBBF4"/>
<path d="M53.3114 78.5655L62.8482 88.1862L63.7654 80.2519L59.0945 74.4918C57.1678 76.1228 55.2927 77.4986 53.304 78.5706L53.3114 78.5655Z" fill="#1D78D4"/>
<path d="M63.7727 80.2467L80.921 89.1157L79.3848 96.7598L62.8555 88.1811L63.7727 80.2467Z" fill="#2686DA"/>
<path d="M80.921 89.1157L116.347 101.903L113.229 109.086L79.3848 96.7598L80.921 89.1157Z" fill="#1D78D4"/>
<path d="M116.347 101.903L125.726 107.867L119.486 112.227L113.229 109.086L116.347 101.903Z" fill="#2686DA"/>
<path d="M99.9494 61.4302L63.7729 80.2467L69.0877 82.9943L105.858 65.1535L99.9494 61.4302Z" fill="#6DC8FA"/>
<path d="M113.901 70.2222L76.2739 86.7121L80.9212 89.1157L120.767 74.5472L113.901 70.2222Z" fill="#6DC8FA"/>
<path d="M133.69 82.6992L107.859 94.0027L137.444 87.162L133.69 82.6992Z" fill="#6DC8FA"/>
<path d="M59.1021 74.4866L63.773 80.2467L66.7906 81.8069L69.0951 82.9892L70.949 83.9498L76.2814 86.707L80.9338 89.1179L116.36 101.905L125.734 107.861L139.832 89.9836L125.405 104.554L116.018 98.5957L85.3315 87.5126L80.5998 85.8031L79.5721 85.2727L72.2396 81.471L66.819 78.6659L63.4537 76.9216L60.5026 73.2781C60.036 73.6917 59.5841 74.0951 59.122 74.4837L59.1021 74.4866Z" fill="#6DC8FA"/>
<g style="mix-blend-mode:multiply" opacity="0.2">
<path d="M70.9416 83.9549L69.3423 91.5555L65.0045 89.2971L66.7906 81.8069L70.9416 83.9549Z" fill="#9CD8F8"/>
</g>
<g style="mix-blend-mode:multiply">
<path d="M98.6595 55.8701L88.8521 59.1527L96.3406 55.1687L97.8549 52.446L98.6595 55.8701Z" fill="#9CD8F8"/>
</g>
<g style="mix-blend-mode:multiply">
<path d="M98.6595 55.8701L90.5654 58.5798L96.8469 55.6582L98.2946 54.3291L98.6595 55.8701Z" fill="#4BB8F2"/>
</g>
<g style="mix-blend-mode:screen" opacity="0.4">
<path d="M43.9692 81.1506C54.9392 80.5819 60.0212 73.3733 71.1397 63.3156C82.2582 53.2579 85.7708 46.9378 107.234 40.4939C91.848 47.2033 79.8051 54.7311 87.0114 53.901C94.2177 53.071 89.4049 55.054 81.7369 60.9595C74.0688 66.865 79.2971 59.6307 77.01 61.2945C74.7229 62.9583 67.5308 67.8522 71.652 72.2771C75.7732 76.7019 64.1725 76.1015 61.2317 76.7984C56.7426 77.8653 51.4326 81.5975 43.9766 81.1455L43.9692 81.1506Z" fill="white"/>
</g>
<g style="mix-blend-mode:screen" opacity="0.4">
<path d="M111.444 50.5948C92.0497 62.2082 97.9895 64.0481 84.0669 72.3965C70.1442 80.7448 69.6951 78.7699 59.0668 89.153C66.544 82.8333 73.6242 78.1709 80.1177 77.5432C86.6112 76.9156 97.6649 68.7868 96.5037 64.4292C95.6467 61.228 111.457 50.597 111.457 50.597L111.444 50.5948Z" fill="white"/>
</g>
<path d="M102.339 42.0628C94.2924 44.8712 86.8586 49.4193 80.4946 55.0597C74.2849 60.9208 68.3 67.1506 61.6693 72.5503C58.4707 75.3546 55.1669 78.353 51.065 79.8174C49.7084 80.3053 48.3035 80.6299 46.8958 80.8251C48.2963 80.5255 49.6593 80.1097 50.9674 79.5681C54.9224 77.8778 58.0372 74.8909 61.1513 71.9813C67.6659 66.3999 73.5465 60.1774 79.8797 54.3833C86.348 48.7356 94.0391 44.3363 102.337 42.0753L102.339 42.0628Z" fill="white"/>
<path d="M72.5388 69.3141C76.1374 67.3801 78.3839 64.2006 81.7305 61.906C83.4654 60.9566 85.2993 60.4308 86.8007 59.0532C88.3894 57.9102 89.7322 56.3369 91.5581 55.5647C89.9466 56.6908 88.8207 58.3864 87.312 59.6596C85.962 61.1286 83.9905 61.8491 82.2725 62.7757C79.1341 64.9138 76.3647 68.2069 72.544 69.3215L72.5388 69.3141Z" fill="white"/>
</g>
<defs>
<clipPath id="clip0_1105_15694">
<rect width="83.6019" height="117.194" fill="white" transform="translate(0.46875 48.1479) rotate(-34.9433)"/>
</clipPath>
</defs>
</svg>
