<svg width="74" height="28" viewBox="0 0 74 28" fill="none" xmlns="http://www.w3.org/2000/svg">
<g clip-path="url(#clip0_1105_16284)">
<path d="M74 6.98871L71.2156 12.7129L55.0481 16.5742L50.355 19.4306L8.86967 18.6516L0 13.9661L0.999241 12.6L5.35548 6.67258L24.7116 0H52.9822L72.2148 6.39032L74 6.98871Z" fill="#CFEEFF"/>
<path d="M50.355 19.4194L51.4216 28L55.1603 25.471L55.048 16.5742L50.355 19.4194Z" fill="#9CD8F8"/>
<path d="M55.0479 16.5742L71.2154 12.7129L70.1038 22.6597L55.1601 25.471L55.0479 16.5742Z" fill="#B4E6FF"/>
<path d="M71.2155 12.7129L73.9999 6.97742L72.6077 18.4145L70.104 22.6597L71.2155 12.7129Z" fill="#9CD8F8"/>
<path d="M50.355 19.4194L51.4216 28L12.9452 25.471L8.86963 18.6403L50.355 19.4194Z" fill="#B4E6FF"/>
<path d="M0 13.9661L8.86967 18.6403L12.9452 25.471L4.7492 22.0387L0 13.9661Z" fill="#89CAEC"/>
<path d="M8.86963 18.6403L35.4674 0H43.2031L17.3912 18.7984L8.86963 18.6403Z" fill="#E6F5FE"/>
<path d="M21.2422 18.8774L46.1671 0H50.9275L26.0363 18.9677L21.2422 18.8774Z" fill="#E6F5FE"/>
<path d="M39.7002 19.2274L58.8317 1.94193L60.4485 2.48386L41.4741 19.2613L39.7002 19.2274Z" fill="#E6F5FE"/>
<path d="M45.5049 19.329L59.1687 6.97742L48.5475 19.3855L45.5049 19.329Z" fill="#E6F5FE"/>
<path d="M74 6.98871L71.2156 12.7129L55.0481 16.5742L50.355 19.4306L8.86967 18.6516L0 13.9661L0.999241 12.6L7.94902 16.2694L49.4344 17.0484L54.1274 14.2032L70.2949 10.3419L72.2148 6.39032L74 6.98871Z" fill="#E6F5FE"/>
<g style="mix-blend-mode:multiply" opacity="0.2">
<path d="M11.542 18.6968L14.7755 25.5952L20.6138 25.979L17.3915 18.7984L11.542 18.6968Z" fill="#9CD8F8"/>
</g>
<g style="mix-blend-mode:multiply" opacity="0.2">
<path d="M22.8589 18.9113L25.6208 26.3064L28.3379 26.4871L25.5984 18.9677L22.8589 18.9113Z" fill="#9CD8F8"/>
</g>
<g style="mix-blend-mode:multiply" opacity="0.2">
<path d="M40.8677 19.2387L43.203 27.4581L44.0114 27.5145L42.4395 19.2387H40.8677Z" fill="#9CD8F8"/>
</g>
<g style="mix-blend-mode:multiply" opacity="0.2">
<path d="M63.1318 14.6435V23.9694L65.8713 23.45L65.9948 13.9661L63.1318 14.6435Z" fill="#9CD8F8"/>
</g>
</g>
<defs>
<clipPath id="clip0_1105_16284">
<rect width="74" height="28" fill="white"/>
</clipPath>
</defs>
</svg>
