<svg width="110" height="60" viewBox="0 0 110 60" fill="none" xmlns="http://www.w3.org/2000/svg">
<g clip-path="url(#clip0_1105_16093)">
<path d="M109.55 14.78L105.43 26.91L81.49 35.09L74.55 41.12L13.13 39.47L0 29.55L1.47 26.68L7.93 14.12L36.58 0H78.43L106.91 13.53L109.55 14.78Z" fill="#CFEEFF"/>
<path d="M74.5498 41.11L76.1198 59.28L81.6498 53.91L81.4898 35.09L74.5498 41.11Z" fill="#9CD8F8"/>
<path d="M81.4902 35.09L105.43 26.91L103.78 47.97L81.6502 53.91L81.4902 35.09Z" fill="#B4E6FF"/>
<path d="M105.43 26.91L109.56 14.78L107.49 38.97L103.78 47.97L105.43 26.91Z" fill="#9CD8F8"/>
<path d="M74.5499 41.11L76.1199 59.28L19.1599 53.91L13.1299 39.46L74.5499 41.11Z" fill="#B4E6FF"/>
<path d="M0 29.56L13.13 39.46L19.16 53.91L7.02 46.64L0 29.56Z" fill="#89CAEC"/>
<path d="M13.1299 39.46L52.5099 0H63.9499L25.7499 39.8L13.1299 39.46Z" fill="#E6F5FE"/>
<path d="M31.4399 39.95L68.3499 0H75.3899L38.5399 40.14L31.4399 39.95Z" fill="#E6F5FE"/>
<path d="M58.77 40.69L87.09 4.10999L89.5 5.24999L61.4 40.76L58.77 40.69Z" fill="#E6F5FE"/>
<path d="M67.3701 40.92L87.5901 14.78L71.8701 41.04L67.3701 40.92Z" fill="#E6F5FE"/>
<path d="M109.55 14.78L105.43 26.91L81.49 35.09L74.55 41.12L13.13 39.47L0 29.55L1.47 26.68L11.77 34.44L73.18 36.09L80.12 30.07L104.07 21.9L106.91 13.53L109.55 14.78Z" fill="#E6F5FE"/>
<g style="mix-blend-mode:multiply" opacity="0.2">
<path d="M17.0801 39.57L21.8701 54.16L30.5201 54.98L25.7501 39.8L17.0801 39.57Z" fill="#9CD8F8"/>
</g>
<g style="mix-blend-mode:multiply" opacity="0.2">
<path d="M33.8501 40.02L37.9301 55.68L41.9501 56.06L37.9001 40.14L33.8501 40.02Z" fill="#9CD8F8"/>
</g>
<g style="mix-blend-mode:multiply" opacity="0.2">
<path d="M60.4902 40.73L63.9502 58.13L65.1602 58.24L62.8302 40.73H60.4902Z" fill="#9CD8F8"/>
</g>
<g style="mix-blend-mode:multiply" opacity="0.2">
<path d="M93.46 31V50.74L97.52 49.65L97.69 29.56L93.46 31Z" fill="#9CD8F8"/>
</g>
</g>
<defs>
<clipPath id="clip0_1105_16093">
<rect width="109.56" height="59.28" fill="white"/>
</clipPath>
</defs>
</svg>
