<svg width="92" height="116" viewBox="0 0 92 116" fill="none" xmlns="http://www.w3.org/2000/svg">
<g clip-path="url(#clip0_1105_15994)">
<path d="M88.8444 17.6075L63.3473 47.1874L59.9403 60.6834L49.4542 74.2266L25.7281 97.7309L20.4053 106.024L2.43568 96.8822L2.98843 94.8625L4.66095 88.7234L23.8775 59.0215L21.5775 47.8262L36.2046 31.3267L64.5815 16.2003L71.3881 9.48321L86.4459 16.4914L88.8444 17.6075Z" fill="#CFEEFF"/>
<path d="M88.853 17.6091L88.3819 28.3921L68.0274 54.5801L63.356 47.189L88.853 17.6091Z" fill="#B4E6FF"/>
<path d="M63.3559 47.189L59.9401 60.6834L63.6253 66.7337L68.0274 54.5801L63.3559 47.189Z" fill="#9CD8F8"/>
<path d="M59.9405 60.6834L49.4544 74.2266L53.5346 79.8065L63.6257 66.7338L59.9405 60.6834Z" fill="#B4E6FF"/>
<path d="M49.4542 74.2266L25.737 97.7325L30.9036 102.351L53.5345 79.8065L49.4542 74.2266Z" fill="#9CD8F8"/>
<path d="M25.7368 97.7325L20.4052 106.024L27.0358 107.208L30.9034 102.351L25.7368 97.7325Z" fill="#B4E6FF"/>
<path d="M36.2046 31.3267L81.091 26.6041L74.734 33.9792L32.391 35.6253L36.2046 31.3267Z" fill="#E6F5FE"/>
<path d="M30.7625 37.4713L71.4548 37.7955L68.0992 41.6807L29.0561 39.395L30.7625 37.4713Z" fill="#E6F5FE"/>
<path d="M23.8862 59.0231L59.9401 60.6834L56.6933 64.8815L20.5148 64.2261L23.8862 59.0231Z" fill="#E6F5FE"/>
<path d="M15.9396 71.305L52.2963 70.5524L49.4541 74.2266L12.0252 77.3463L15.9396 71.305Z" fill="#E6F5FE"/>
<path d="M4.67002 88.725L29.6163 88.2L3.30132 93.7261L4.67002 88.725Z" fill="#E6F5FE"/>
<path d="M88.8443 17.6075L63.3472 47.1874L59.9402 60.6834L49.4541 74.2266L25.728 97.7309L20.4052 106.024L2.43559 96.8822L19.4392 103.238L24.7724 94.9375L48.4896 71.4316L58.9758 57.8884L62.39 44.4029L86.4458 16.4914L88.8443 17.6075Z" fill="#E6F5FE"/>
<g style="mix-blend-mode:multiply" opacity="0.2">
<path d="M55.5538 66.347L59.6629 71.8678L62.3157 68.4348L58.0967 63.0686L55.5538 66.347Z" fill="#9CD8F8"/>
</g>
<g style="mix-blend-mode:multiply" opacity="0.2">
<path d="M67.8574 41.9585L72.2561 49.1359L75.4845 44.9895L70.6019 38.7804L67.8574 41.9585Z" fill="#9CD8F8"/>
</g>
<g style="mix-blend-mode:multiply" opacity="0.2">
<path d="M74.734 33.9792L79.5236 39.7866L84.6768 33.1594L80.5939 27.1848L74.734 33.9792Z" fill="#9CD8F8"/>
</g>
<g style="mix-blend-mode:multiply">
<path d="M22.8606 54.0621L31.9588 53.0548L24.4693 52.6344L22.2354 51.0067L22.8606 54.0621Z" fill="#9CD8F8"/>
</g>
<path d="M61.555 54.3047L59.9403 60.6834L58.0966 63.0686L56.6846 64.8799L55.5537 66.347L52.2964 70.5524L49.4542 74.2266L25.7281 97.7309L20.4053 106.024L2.43569 96.8822L2.98844 94.8625L3.30112 93.7261L4.66095 88.7234L12.0253 77.3463L20.515 64.2261L23.8775 59.0215L22.8605 54.0621L22.6573 53.0996L22.2353 51.0067L22.2264 51.0051L21.5775 47.8262L24.9904 43.9788C33.8211 44.4185 38.9921 47.066 47.742 49.8023C52.5168 51.2877 56.4579 52.7801 59.9984 53.8525C60.528 54.0113 61.0399 54.1669 61.555 54.3047Z" fill="#5CBBF4"/>
<path d="M67.7201 55.4331L63.6257 66.7337L59.9405 60.6834L61.5552 54.3047C63.7082 54.9001 65.7302 55.307 67.7201 55.4331Z" fill="#1D78D4"/>
<path d="M59.9405 60.6834L49.4544 74.2266L53.5346 79.8065L63.6257 66.7338L59.9405 60.6834Z" fill="#2686DA"/>
<path d="M49.4542 74.2266L25.737 97.7325L30.9036 102.351L53.5345 79.8065L49.4542 74.2266Z" fill="#1D78D4"/>
<path d="M25.7368 97.7325L20.4052 106.024L27.0358 107.208L30.9034 102.351L25.7368 97.7325Z" fill="#2686DA"/>
<path d="M23.8862 59.0231L59.9401 60.6834L56.6933 64.8815L20.5148 64.2261L23.8862 59.0231Z" fill="#6DC8FA"/>
<path d="M15.9396 71.305L52.2963 70.5524L49.4541 74.2266L12.0252 77.3463L15.9396 71.305Z" fill="#6DC8FA"/>
<path d="M4.67002 88.725L29.6163 88.2L3.30132 93.7261L4.67002 88.725Z" fill="#6DC8FA"/>
<path d="M61.5548 54.3047L59.9401 60.6834L58.0964 63.0686L56.6845 64.8799L55.5535 66.347L52.2963 70.5524L49.454 74.2266L25.7279 97.7309L20.4052 106.024L2.43553 96.8822L19.4392 103.238L24.7723 94.9375L45.3221 74.5709L48.4896 71.4316L49.1197 70.6179L53.6026 64.8248L56.9185 60.5473L58.9757 57.8884L59.9982 53.8525C60.5279 54.0113 61.0397 54.1669 61.5548 54.3047Z" fill="#6DC8FA"/>
<g style="mix-blend-mode:multiply" opacity="0.2">
<path d="M55.5538 66.347L59.6629 71.8678L62.3157 68.4348L58.0967 63.0686L55.5538 66.347Z" fill="#9CD8F8"/>
</g>
<g style="mix-blend-mode:multiply">
<path d="M22.8606 54.0621L31.9588 53.0548L24.4693 52.6344L22.2354 51.0067L22.8606 54.0621Z" fill="#9CD8F8"/>
</g>
<g style="mix-blend-mode:multiply">
<path d="M22.8607 54.0621L30.3638 53.2285L24.2358 53.2255L22.5751 52.6905L22.8607 54.0621Z" fill="#4BB8F2"/>
</g>
<g style="mix-blend-mode:screen" opacity="0.4">
<path d="M76.1935 54.03C67.1676 57.6546 60.4097 53.7517 47.7435 49.7934C35.0773 45.835 29.9065 42.0596 10.2688 44.8715C25.1183 44.5427 37.5984 46.111 31.4951 48.1208C25.3903 50.1395 29.9987 49.9444 38.35 51.8393C46.7014 53.7341 39.8187 49.8639 42.2751 50.3484C44.7298 50.8417 52.3279 52.0885 50.6575 57.1917C48.987 62.2948 58.0879 57.4822 60.7074 56.9504C64.7132 56.1342 70.3656 57.1619 76.1967 54.0122L76.1935 54.03Z" fill="white"/>
</g>
<g style="mix-blend-mode:screen" opacity="0.4">
<path d="M10.6289 54.5833C30.5289 56.7062 26.4398 60.3962 40.7192 61.9281C55.0075 63.4617 54.6362 61.6988 67.0321 66.0949C58.6797 63.7964 51.2503 62.6807 45.8041 64.5969C40.3578 66.5131 28.4521 64.0845 27.7738 60.1484C27.2754 57.2532 10.6289 54.5833 10.6289 54.5833Z" fill="white"/>
</g>
<path d="M14.7763 44.3191C24.8598 42.5065 35.1643 44.6309 44.6021 48.2787C49.3463 50.0887 54.1123 51.5726 58.9804 53.0471C62.5655 54.2284 66.175 55.4782 69.9829 55.3603C71.2361 55.309 72.4849 55.1285 73.7229 54.8543C71.3078 55.6244 68.7083 55.8389 66.1791 55.5064C56.2257 53.619 46.7433 49.8624 37.1656 46.6389C29.9517 44.4704 22.3182 43.575 14.7867 44.3118L14.7763 44.3191Z" fill="white"/>
<path d="M48.8354 55.1514C45.3467 55.6839 41.9046 54.0605 38.583 53.5041C36.8549 53.3972 35.0068 53.5533 33.3715 52.8761C31.6788 52.4179 30.1563 51.4674 28.4366 51.1603C30.1932 51.1072 31.8586 51.8723 33.5558 52.2029C35.2785 52.7489 36.9427 52.4959 38.6885 52.6058C42.2317 53.2019 45.215 54.936 48.8281 55.1409L48.8354 55.1514Z" fill="white"/>
</g>
<defs>
<clipPath id="clip0_1105_15994">
<rect width="74" height="104" fill="white" transform="translate(18.2812) rotate(10.1246)"/>
</clipPath>
</defs>
</svg>
