<svg width="45" height="24" viewBox="0 0 45 24" fill="none" xmlns="http://www.w3.org/2000/svg">
<g clip-path="url(#clip0_1105_15937)">
<path d="M4.91992 5.01L9.46992 0.84L18.9699 0L31.3799 0.54L38.8799 7.19L20.1099 14.06L4.91992 5.01Z" fill="#CFEEFF"/>
<path d="M20.1099 14.06L22.3899 23.86L44.3599 15.35L38.8799 7.19L20.1099 14.06Z" fill="#9CD8F8"/>
<path d="M4.92 5.00999L0 12.23L17.06 23.86L20.11 14.06L4.92 5.00999Z" fill="#9CD8F8"/>
<path d="M17.0601 23.86H22.3901L20.1101 14.06L17.0601 23.86Z" fill="#B4E6FF"/>
<path d="M18.9698 0L13.3198 10.01L16.4198 11.86L22.8798 0.17L18.9698 0Z" fill="#E6F5FE"/>
<path d="M14.6698 0.379996L13.0098 3.54L16.3698 0.229996L14.6698 0.379996Z" fill="#E6F5FE"/>
<path d="M27.8699 0.389999L21.8999 13.41L24.8799 12.31L30.2899 0.489999L27.8699 0.389999Z" fill="#E6F5FE"/>
<path d="M31.3802 0.539993L26.9702 11.55L28.8102 10.88L32.1602 1.22999L31.3802 0.539993Z" fill="#E6F5FE"/>
<path d="M4.91992 5.00999L20.1099 14.06L38.8799 7.18999L20.4099 12.05L4.91992 5.00999Z" fill="#E6F5FE"/>
<g style="mix-blend-mode:multiply" opacity="0.2">
<path d="M13.3201 10.01L10.3501 19.29L13.0501 21.13L16.4201 11.86L13.3201 10.01Z" fill="#9CD8F8"/>
</g>
<g style="mix-blend-mode:multiply" opacity="0.2">
<path d="M21.8999 13.41L24.9099 22.88L26.9699 22.08L24.8799 12.31L21.8999 13.41Z" fill="#9CD8F8"/>
</g>
<g style="mix-blend-mode:multiply" opacity="0.2">
<path d="M26.9702 11.55L30.7302 20.63L33.0802 19.72L28.8102 10.88L26.9702 11.55Z" fill="#9CD8F8"/>
</g>
</g>
<defs>
<clipPath id="clip0_1105_15937">
<rect width="44.36" height="23.86" fill="white"/>
</clipPath>
</defs>
</svg>
