<svg width="43" height="29" viewBox="0 0 43 29" fill="none" xmlns="http://www.w3.org/2000/svg">
<g clip-path="url(#clip0_1105_16032)">
<path d="M0 16.7913L24.9369 0L43 8.40429L38.1218 12.8658L0 16.7913Z" fill="#CFEEFF"/>
<path d="M38.1218 12.8658L33.8747 28.1354L4.77588 29L0 16.7913L38.1218 12.8658Z" fill="#9CD8F8"/>
<path d="M42.9999 8.4043L37.5076 24.5385L33.8745 28.1354L38.1216 12.8658L42.9999 8.4043Z" fill="#B4E6FF"/>
<path d="M24.937 0L14.8735 15.2695L28.4677 13.8688L35.6827 4.99761L24.937 0Z" fill="#E6F5FE"/>
<path d="M0 16.7913L36.5867 11.3614L40.4756 7.22839L43 8.4043L38.1218 12.8658L0 16.7913Z" fill="#E6F5FE"/>
<g style="mix-blend-mode:multiply" opacity="0.2">
<path d="M14.8735 15.2695L16.2722 28.6541L25.2781 28.3947L27.4955 13.9726L14.8735 15.2695Z" fill="#9CD8F8"/>
</g>
</g>
<defs>
<clipPath id="clip0_1105_16032">
<rect width="43" height="29" fill="white"/>
</clipPath>
</defs>
</svg>
