<svg width="128" height="61" viewBox="0 0 128 61" fill="none" xmlns="http://www.w3.org/2000/svg">
<g clip-path="url(#clip0_1105_16211)">
<path d="M101.39 17.61L105.69 19.65L56.64 35.98L48.27 34.53L12.71 45.9L21.98 39.09L30.66 32.73L34.17 23.67L48.7 10.59L46.47 8.62L80.82 0L120.55 1.68L127.23 1.97L103.69 16.22L102.79 16.76L101.39 17.61Z" fill="#CFEEFF"/>
<path d="M105.7 19.66L104.08 45.21L54.25 50.17L56.64 35.98L105.7 19.66Z" fill="#9CD8F8"/>
<path d="M127.24 1.97L124.67 28.46L104.38 40.42L105.7 19.66L101.38 17.61L127.24 1.97Z" fill="#B4E6FF"/>
<path d="M54.25 50.17L43.27 48.84L48.27 34.53L56.64 35.98L54.25 50.17Z" fill="#B4E6FF"/>
<path d="M48.27 34.53L43.27 48.84L0 60.96L12.71 45.89L48.27 34.53Z" fill="#9CD8F8"/>
<path d="M46.47 8.63L48.69 10.6L45.28 13.67L46.47 8.63Z" fill="#9CD8F8"/>
<path d="M48.27 34.53L80.83 0L89.85 0.38L56.64 35.98L48.27 34.53Z" fill="#E6F5FE"/>
<path d="M66.3799 32.74L92.9099 0.509995L98.3999 0.739995L74.0599 30.18L66.3799 32.74Z" fill="#E6F5FE"/>
<path d="M114.31 1.42L104.25 11.15L118.75 1.61L114.31 1.42Z" fill="#E6F5FE"/>
<path d="M101.39 17.61L105.69 19.65L56.64 35.98L48.27 34.53L12.71 45.9L46.57 31.23L54.95 32.68L102.79 16.76L101.39 17.61Z" fill="#E6F5FE"/>
<path d="M103.69 16.22L120.55 1.67999L127.23 1.96999L103.69 16.22Z" fill="#E6F5FE"/>
<g style="mix-blend-mode:multiply" opacity="0.2">
<path d="M66.3799 32.74L64.1399 49.18L71.9199 48.41L75.1499 29.82L66.3799 32.74Z" fill="#9CD8F8"/>
</g>
<g style="mix-blend-mode:multiply" opacity="0.2">
<path d="M82.39 27.41L79.2 47.69L81.24 47.48L85.1 26.51L82.39 27.41Z" fill="#9CD8F8"/>
</g>
<g style="mix-blend-mode:multiply" opacity="0.2">
<path d="M116.47 8.47999L114.31 34.57L117.57 32.64L119.46 6.67999L116.47 8.47999Z" fill="#9CD8F8"/>
</g>
</g>
<defs>
<clipPath id="clip0_1105_16211">
<rect width="127.24" height="60.96" fill="white"/>
</clipPath>
</defs>
</svg>
