<svg width="206" height="76" viewBox="0 0 206 76" fill="none" xmlns="http://www.w3.org/2000/svg">
<g clip-path="url(#clip0_1105_16145)">
<path d="M202.504 25.9765L160.474 47.9652L73.9018 45.7329L8.07495 55.893L3.17975 53.4692L5.38477 51.9669L63.6862 12.1991L145.656 22.8044L188.547 22.485L198.828 25.07L202.504 25.9765Z" fill="#CFEEFF"/>
<path d="M8.08414 55.8822L14.0786 67.6854L77.4802 57.4609L73.892 45.7338L8.08414 55.8822Z" fill="#9CD8F8"/>
<path d="M3.18066 53.4792L14.0786 67.6854L8.08405 55.8822L3.18066 53.4792Z" fill="#B4E6FF"/>
<path d="M73.8918 45.7338L160.473 47.9552L159.929 61.2966L77.48 57.4609L73.8918 45.7338Z" fill="#B4E6FF"/>
<path d="M159.929 61.2967L160.473 47.9552L202.505 25.9864L201.548 40.7803L159.929 61.2967Z" fill="#9CD8F8"/>
<path d="M21.6521 53.7961L77.9879 14.0534L92.8482 15.9782L46.4792 49.9608L21.6521 53.7961Z" fill="#E6F5FE"/>
<path d="M53.7484 48.8392L97.3272 16.5517L105.525 17.6162L61.9484 47.5743L53.7484 48.8392Z" fill="#E6F5FE"/>
<path d="M90.979 46.1745L125.585 20.2108L140.841 22.1805L105.661 46.549L90.979 46.1745Z" fill="#E6F5FE"/>
<path d="M130.355 47.1832L164.408 22.6646L178.153 22.5606L144.031 47.5372L130.355 47.1832Z" fill="#E6F5FE"/>
<path d="M117.041 46.837L138.639 31.6943L122.012 46.965L117.041 46.837Z" fill="#E6F5FE"/>
<path d="M202.504 25.9765L160.474 47.9652L73.9019 45.7329L8.07499 55.893L3.17979 53.4692L5.38482 51.9669L7.83108 53.1639L73.6589 43.0137L160.23 45.236L198.828 25.07L202.504 25.9765Z" fill="#E6F5FE"/>
<g style="mix-blend-mode:multiply" opacity="0.2">
<path d="M21.6521 53.7961L27.0636 65.5912L52.2921 61.5292L46.4793 49.9608L21.6521 53.7961Z" fill="#9CD8F8"/>
</g>
<g style="mix-blend-mode:multiply" opacity="0.2">
<path d="M53.7484 48.8392L58.4574 60.5264L64.9704 59.4825L61.9483 47.5743L53.7484 48.8392Z" fill="#9CD8F8"/>
</g>
<g style="mix-blend-mode:multiply" opacity="0.2">
<path d="M91.8435 46.1875L94.2262 58.2433L106.757 58.8201L105.661 46.549L91.8435 46.1875Z" fill="#9CD8F8"/>
</g>
<g style="mix-blend-mode:multiply" opacity="0.2">
<path d="M117.042 46.837L119.782 56.0397L122.013 46.965L117.042 46.837Z" fill="#9CD8F8"/>
</g>
<g style="mix-blend-mode:multiply" opacity="0.2">
<path d="M130.355 47.1832L134.421 60.1025L145.774 60.6341L143.105 47.5096L130.355 47.1832Z" fill="#9CD8F8"/>
</g>
<g style="mix-blend-mode:multiply" opacity="0.2">
<path d="M184.165 35.567L181.824 50.4947L190.239 46.3492L193.027 30.9297L184.165 35.567Z" fill="#9CD8F8"/>
</g>
<g style="mix-blend-mode:multiply">
<path d="M111.984 18.4445L109.157 21.2975L114.534 18.7789L111.984 18.4445Z" fill="#9CD8F8"/>
</g>
<g style="mix-blend-mode:multiply">
<path d="M80.6339 45.9043L83.58 57.749L84.9606 57.8064L83.1217 45.9932L92.8978 38.212L91.0834 37.6814L96.5796 31.8892L89.2124 37.9792L89.7141 39.0989L80.6339 45.9043Z" fill="#9CD8F8"/>
</g>
<g style="mix-blend-mode:multiply">
<path d="M180.761 38.6021L180.654 37.4068C180.654 37.4068 165.322 37.6126 165.317 37.5627C165.313 37.5129 182.918 36.2207 182.918 36.2207L180.761 38.6021Z" fill="#9CD8F8"/>
</g>
<g style="mix-blend-mode:multiply">
<path d="M84.3757 57.7783L82.1257 45.9717L90.9547 38.9379L91.0833 37.6814L92.8978 38.212L83.1216 45.9932L84.9605 57.8064L84.3757 57.7783Z" fill="#4BB8F2"/>
</g>
<g style="mix-blend-mode:multiply">
<path d="M113.417 18.6377L110.159 20.8265L114.534 18.7789L113.417 18.6377Z" fill="#4BB8F2"/>
</g>
<g style="mix-blend-mode:multiply">
<path d="M180.761 38.6021L181.333 37.0249L169.392 37.54L180.654 37.4068L180.761 38.6021Z" fill="#4BB8F2"/>
</g>
</g>
<defs>
<clipPath id="clip0_1105_16145">
<rect width="200.98" height="57.47" fill="white" transform="translate(0 17.891) rotate(-5.10716)"/>
</clipPath>
</defs>
</svg>
