<svg width="172" height="64" viewBox="0 0 172 64" fill="none" xmlns="http://www.w3.org/2000/svg">
<g clip-path="url(#clip0_1105_15911)">
<path d="M172 31.0413L131.731 32.8842L97.3954 41.9707C97.3954 41.9707 91.4629 41.1398 90.9401 41.1398C90.4173 41.1398 53.7766 48.7031 53.7766 48.7031L2.36865 28.2929L5.69768 27.0253L28.1366 18.482V15.1158L22.791 12.1545V8.98003L48.8577 0L83.5565 11.2277L114.499 15.8189L166.814 21.4328L170.634 28.506L171.989 31.0306L172 31.0413Z" fill="#CFEEFF"/>
<path d="M22.791 12.1545V20.5166L28.1473 18.482V15.1158L22.791 12.1545Z" fill="#9CD8F8"/>
<path d="M2.36873 28.2929L0 41.534L41.0901 62.9134L53.7767 48.7137L2.36873 28.2929Z" fill="#B4E6FF"/>
<path d="M53.7769 48.7137L70.0059 64L90.9404 56.3622V41.1611L53.7769 48.7137Z" fill="#B4E6FF"/>
<path d="M41.0898 62.9135L53.7764 48.7137L70.0055 64L41.0898 62.9135Z" fill="#9CD8F8"/>
<path d="M97.3958 41.9707L94.5255 56.3622H90.9404V41.1611L97.3958 41.9707Z" fill="#9CD8F8"/>
<path d="M94.5254 56.3622L142.519 50.3116L131.732 32.8842L97.3956 41.9707L94.5254 56.3622Z" fill="#B4E6FF"/>
<path d="M142.519 50.3116H166.345L172 31.0519L131.731 32.8842L142.519 50.3116Z" fill="#9CD8F8"/>
<path d="M51.0347 0.703064L29.6094 39.1158L38.9776 42.8336L59.0798 3.30226L51.0347 0.703064Z" fill="#E6F5FE"/>
<path d="M61.7256 4.16512L43.48 44.6232C43.48 44.6232 47.2678 46.1252 47.4812 46.2104C47.6946 46.2956 65.0013 5.21971 65.0013 5.21971L61.7256 4.15446V4.16512Z" fill="#E6F5FE"/>
<path d="M21.0308 35.6964L34.3576 22.2636L25.9816 37.6671L21.0308 35.6964Z" fill="#E6F5FE"/>
<path d="M90.9404 41.1611L99.6044 13.6138L107.842 14.8389L97.3958 41.9707L90.9404 41.1611Z" fill="#E6F5FE"/>
<path d="M103.21 40.4368L111.533 15.3822L115.545 15.9361L107.841 39.2117L103.21 40.4368Z" fill="#E6F5FE"/>
<path d="M119.728 16.3941L115.545 28.2929L124.113 16.8628L119.728 16.3941Z" fill="#E6F5FE"/>
<path d="M172 31.0413L131.731 32.8842L97.3954 41.9707C97.3954 41.9707 91.4629 41.1398 90.9401 41.1398C90.4173 41.1398 53.7766 48.7031 53.7766 48.7031L2.36865 28.2929L53.7766 46.1252C53.7766 46.1252 90.4173 38.5619 90.9401 38.5619C91.4629 38.5619 97.3954 39.3928 97.3954 39.3928L131.731 30.3063L170.645 28.5166L172 31.0413Z" fill="#E6F5FE"/>
<g style="mix-blend-mode:multiply" opacity="0.2">
<path d="M29.6092 39.1158L28.1475 56.1704L32.7249 58.5566L38.4653 42.8336L29.6092 39.1158Z" fill="#9CD8F8"/>
</g>
<g style="mix-blend-mode:multiply" opacity="0.2">
<path d="M42.7548 44.3355L35.4565 59.984L38.4655 61.5499L46.5213 45.8375L42.7548 44.3355Z" fill="#9CD8F8"/>
</g>
<g style="mix-blend-mode:multiply" opacity="0.2">
<path d="M21.0308 35.6964L24.5412 45.6032L25.4695 37.6671L21.0308 35.6964Z" fill="#9CD8F8"/>
</g>
<g style="mix-blend-mode:multiply" opacity="0.2">
<path d="M104.085 40.2131L107.244 54.7537L111.512 54.2211L107.841 39.2117L104.085 40.2131Z" fill="#9CD8F8"/>
</g>
<g style="mix-blend-mode:multiply" opacity="0.2">
<path d="M149.742 32.0639L151.866 50.3116H157.958L158.844 31.6485L149.742 32.0639Z" fill="#9CD8F8"/>
</g>
<g style="mix-blend-mode:multiply">
<path d="M28.1475 15.1158L32.9916 16.7244H28.1475V15.1158Z" fill="#9CD8F8"/>
</g>
<g style="mix-blend-mode:multiply">
<path d="M28.1475 16.3409L32.1167 16.7244H28.1475V16.3409Z" fill="#4BB8F2"/>
</g>
</g>
<defs>
<clipPath id="clip0_1105_15911">
<rect width="172" height="64" fill="white"/>
</clipPath>
</defs>
</svg>
