<svg width="139" height="62" viewBox="0 0 139 62" fill="none" xmlns="http://www.w3.org/2000/svg">
<g clip-path="url(#clip0_1105_15861)">
<path d="M136.029 43.3152L119.82 51.2193L83.1661 40.1778L68.6946 29.5648L13.6036 27.5058L2.82542 16.3344L4.22621 15.6597L10.6793 12.5483L31.8973 2.33584L61.6806 4.84789L64.5205 9.96533L77.3169 18.367L95.7067 20.9201L105.689 24.4157L111.928 25.5475L133.788 29.5275L135.503 29.8372L126.261 37.9327L124.607 39.3898L133.759 42.5401L136.029 43.3152Z" fill="#CFEEFF"/>
<path d="M135.502 29.8372L131.115 41.6235L124.606 39.3898L135.502 29.8372Z" fill="#9CD8F8"/>
<path d="M136.029 43.3152L133.706 51.1353L119.55 59.9063L119.82 51.2193L136.029 43.3152Z" fill="#B4E6FF"/>
<path d="M119.82 51.2193L119.549 59.9063L84.342 48.5684L83.166 40.1778L119.82 51.2193Z" fill="#9CD8F8"/>
<path d="M68.6948 29.5648L83.1663 40.1778L84.3422 48.5684L70.1933 40.0086L68.6948 29.5648Z" fill="#B4E6FF"/>
<path d="M68.6946 29.5648L70.1931 40.0086L27.5471 36.4116L13.6036 27.5058L68.6946 29.5648Z" fill="#9CD8F8"/>
<path d="M13.6035 27.5058L11.7311 31.4219L27.547 36.4116L13.6035 27.5058Z" fill="#89CAEC"/>
<path d="M2.8252 16.3344L13.6034 27.5058L11.7309 31.4219L2.8252 16.3344Z" fill="#B4E6FF"/>
<path d="M22.3667 27.8265L52.7005 4.09049L61.6804 4.84788L32.1062 28.1965L22.3667 27.8265Z" fill="#E6F5FE"/>
<path d="M37.367 28.3869L64.5207 9.96534L69.8644 13.4771L45.3063 28.6822L37.367 28.3869Z" fill="#E6F5FE"/>
<path d="M50.6641 28.8918L64.489 21.0508L52.9374 28.9735L50.6641 28.8918Z" fill="#E6F5FE"/>
<path d="M36.2288 2.70115L22.4857 11.7933L43.7649 3.33677L36.2288 2.70115Z" fill="#E6F5FE"/>
<path d="M75.6249 34.6418L95.7169 20.932L105.689 24.4157L80.4272 38.174L75.6249 34.6418Z" fill="#E6F5FE"/>
<path d="M92.8875 43.1119L115.334 26.1652L122.288 27.4344L99.0004 44.9488L92.8875 43.1119Z" fill="#E6F5FE"/>
<path d="M100.858 45.5129L124.534 27.844L127.312 28.3426L103.405 46.2783L100.858 45.5129Z" fill="#E6F5FE"/>
<path d="M114.792 49.7052L124.294 43.0962L116.596 50.2538L114.792 49.7052Z" fill="#E6F5FE"/>
<path d="M126.26 37.9327L133.788 29.5275L135.502 29.8372L126.26 37.9327Z" fill="#E6F5FE"/>
<path d="M136.029 43.3152L119.819 51.2193L83.1658 40.1778L68.6944 29.5648L13.6034 27.5058L2.8252 16.3344L13.7694 25.5378L68.8604 27.5968L83.3309 38.2207L119.984 49.2623L133.759 42.5401L136.029 43.3152Z" fill="#E6F5FE"/>
<g style="mix-blend-mode:multiply" opacity="0.2">
<path d="M23.651 27.8798L30.6751 36.6755L34.2736 36.979L32.7981 28.2218L23.651 27.8798Z" fill="#89CFF6"/>
</g>
<g style="mix-blend-mode:multiply" opacity="0.2">
<path d="M39.1232 28.458L39.9284 37.4559L45.616 37.9356L45.7781 28.7L39.1232 28.458Z" fill="#89CFF6"/>
</g>
<g style="mix-blend-mode:multiply" opacity="0.2">
<path d="M51.3896 28.909L52.361 35.8068L53.6402 28.9997L51.3896 28.909Z" fill="#89CFF6"/>
</g>
<g style="mix-blend-mode:multiply" opacity="0.2">
<path d="M76.1431 35.0269L76.8481 44.0384L80.7363 46.3924L80.9125 38.5563L76.1431 35.0269Z" fill="#89CFF6"/>
</g>
<g style="mix-blend-mode:multiply" opacity="0.2">
<path d="M94.5635 43.6166L95.4412 52.1472L99.4736 53.4452L99.0005 44.9488L94.5635 43.6166Z" fill="#89CFF6"/>
</g>
<g style="mix-blend-mode:multiply" opacity="0.2">
<path d="M100.858 45.5129L102.23 54.3274L104.182 54.9545L103.405 46.2782L100.858 45.5129Z" fill="#89CFF6"/>
</g>
<g style="mix-blend-mode:multiply" opacity="0.2">
<path d="M128.584 46.9486L127.256 55.1278L130.103 53.364L131.41 45.4471L128.584 46.9486Z" fill="#89CFF6"/>
</g>
<g style="mix-blend-mode:multiply">
<path d="M124.607 39.3898L117.728 39.5804L116.146 42.0125L118.69 40.0579L127.594 40.4125L124.607 39.3898Z" fill="#89CFF6"/>
</g>
<g style="mix-blend-mode:multiply">
<path d="M126.095 39.9007L118.69 40.0579L127.594 40.4125L126.095 39.9007Z" fill="#4BB8F2"/>
</g>
</g>
<defs>
<clipPath id="clip0_1105_15861">
<rect width="135" height="50" fill="white" transform="translate(4.20312) rotate(4.82115)"/>
</clipPath>
</defs>
</svg>
