<svg width="93" height="51" viewBox="0 0 93 51" fill="none" xmlns="http://www.w3.org/2000/svg">
<g clip-path="url(#clip0_1105_15761)">
<path d="M92.9915 12.7156L89.4943 23.1513L69.1728 30.1888L63.2818 35.3765L11.1454 33.957L0 25.4226L1.24781 22.9534L6.73138 12.1478L31.0509 0H66.5753L90.7506 11.6402L92.9915 12.7156Z" fill="#CFEEFF"/>
<path d="M63.2817 35.3679L64.6144 51L69.3086 46.3801L69.1728 30.1888L63.2817 35.3679Z" fill="#9CD8F8"/>
<path d="M69.1729 30.1888L89.4943 23.1513L88.0937 41.2697L69.3087 46.3801L69.1729 30.1888Z" fill="#B4E6FF"/>
<path d="M89.4944 23.1513L93.0001 12.7156L91.243 33.5268L88.0938 41.2697L89.4944 23.1513Z" fill="#9CD8F8"/>
<path d="M63.2819 35.3679L64.6146 51L16.2641 46.38L11.1455 33.9484L63.2819 35.3679Z" fill="#B4E6FF"/>
<path d="M0 25.4312L11.1454 33.9484L16.264 46.3801L5.95893 40.1255L0 25.4312Z" fill="#89CAEC"/>
<path d="M11.1455 33.9484L44.5732 0H54.2841L21.858 34.2409L11.1455 33.9484Z" fill="#E6F5FE"/>
<path d="M26.688 34.3699L58.019 0H63.9949L32.7148 34.5334L26.688 34.3699Z" fill="#E6F5FE"/>
<path d="M49.8867 35.0066L73.9261 3.53592L75.9719 4.51669L52.1192 35.0668L49.8867 35.0066Z" fill="#E6F5FE"/>
<path d="M57.187 35.2044L74.3508 12.7156L61.0068 35.3077L57.187 35.2044Z" fill="#E6F5FE"/>
<path d="M92.9915 12.7156L89.4943 23.1513L69.1728 30.1888L63.2818 35.3765L11.1454 33.957L0 25.4226L1.24781 22.9535L9.99096 29.6296L62.1188 31.0491L68.0099 25.87L88.3398 18.8411L90.7506 11.6402L92.9915 12.7156Z" fill="#E6F5FE"/>
<g style="mix-blend-mode:multiply" opacity="0.2">
<path d="M14.4985 34.043L18.5645 46.5952L25.9071 47.3006L21.8581 34.2409L14.4985 34.043Z" fill="#9CD8F8"/>
</g>
<g style="mix-blend-mode:multiply" opacity="0.2">
<path d="M28.7334 34.4302L32.1967 47.9028L35.6091 48.2298L32.1712 34.5334L28.7334 34.4302Z" fill="#9CD8F8"/>
</g>
<g style="mix-blend-mode:multiply" opacity="0.2">
<path d="M51.3472 35.041L54.2842 50.0106L55.3113 50.1053L53.3335 35.041H51.3472Z" fill="#9CD8F8"/>
</g>
<g style="mix-blend-mode:multiply" opacity="0.2">
<path d="M79.3335 26.67V43.6528L82.7798 42.7151L82.9241 25.4312L79.3335 26.67Z" fill="#9CD8F8"/>
</g>
</g>
<defs>
<clipPath id="clip0_1105_15761">
<rect width="93" height="51" fill="white"/>
</clipPath>
</defs>
</svg>
