<svg width="218" height="167" viewBox="0 0 218 167" fill="none" xmlns="http://www.w3.org/2000/svg">
<g clip-path="url(#clip0_1105_16229)">
<path d="M177.877 102.186L161.313 120.632L161.757 139.517L132.813 139.253L125.533 127.096L67.563 116.373L32.7304 58.3598L29.8941 16.5851L76.6042 12.0875L78.2295 9.99602L92.7939 14.0995L91.6895 20.0701L157.013 49.2972L183.196 87.6208L185.45 90.9214L177.877 102.186Z" fill="#CFEEFF"/>
<path d="M161.757 139.517L160.576 156.544L123.929 153.706L132.813 139.253L161.757 139.517Z" fill="#9CD8F8"/>
<path d="M185.452 90.9124L161.154 148.223L161.757 139.517L161.313 120.632L177.877 102.186L185.452 90.9124Z" fill="#B4E6FF"/>
<path d="M132.813 139.253L123.929 153.706L115.914 141.626L125.533 127.096L132.813 139.253Z" fill="#B4E6FF"/>
<path d="M125.533 127.096L115.914 141.626L63.7539 129.121L67.5632 116.373L125.533 127.096Z" fill="#9CD8F8"/>
<path d="M67.563 116.373L63.7538 129.121L32.0203 69.4936L32.7305 58.3598L67.563 116.373Z" fill="#B4E6FF"/>
<path d="M29.894 16.5851L32.7303 58.3598L32.0201 69.4936L28.9094 26.9542L29.894 16.5851Z" fill="#89CAEC"/>
<path d="M39.1407 69.0214L91.6982 20.0718L110.801 28.6214L50.8181 88.4825L39.1407 69.0214Z" fill="#E6F5FE"/>
<path d="M54.6906 94.9288L116.878 31.3403L124.664 34.8202L59.1471 102.364L54.6906 94.9288Z" fill="#E6F5FE"/>
<path d="M61.8895 106.923L99.1781 69.2698L66.1505 114.016L61.8895 106.923Z" fill="#E6F5FE"/>
<path d="M135.111 39.4972L99.7198 83.528L145.294 44.0512L135.111 39.4972Z" fill="#E6F5FE"/>
<path d="M163.988 59.5068L98.8403 122.158L112.522 124.689L169.8 68.0086L163.988 59.5068Z" fill="#E6F5FE"/>
<path d="M173.792 73.8558L127.722 130.755L131.506 137.074L179.205 81.7646L173.792 73.8558Z" fill="#E6F5FE"/>
<path d="M177.877 102.186L161.313 120.632L161.757 139.517L132.813 139.253L125.533 127.096L67.5631 116.373L32.7305 58.3598L32.3257 52.3046L67.1566 110.326L125.127 121.05L132.408 133.198L161.352 133.462L160.908 114.577L177.47 96.1394L183.196 87.6208L185.45 90.9214L177.877 102.186Z" fill="#E6F5FE"/>
<g style="mix-blend-mode:multiply" opacity="0.2">
<path d="M39.1411 69.0213L37.9673 80.6628L48.4593 100.387L50.1469 87.3662L39.1411 69.0213Z" fill="#9CD8F8"/>
</g>
<g style="mix-blend-mode:multiply" opacity="0.2">
<path d="M54.6904 94.9288L53.2673 109.417L56.9921 116.411L59.4879 102.918L54.6904 94.9288Z" fill="#9CD8F8"/>
</g>
<g style="mix-blend-mode:multiply" opacity="0.2">
<path d="M100.404 122.448L93.7619 136.323L102.374 138.379L112.522 124.689L100.404 122.448Z" fill="#9CD8F8"/>
</g>
<g style="mix-blend-mode:multiply" opacity="0.2">
<path d="M127.722 130.755L118.933 146.189L121.253 149.688L130.203 134.978L127.722 130.755Z" fill="#9CD8F8"/>
</g>
<g style="mix-blend-mode:multiply">
<path d="M30.3818 35.9327L30.9888 32.6516L44.7774 33.9041L45.3675 32.3629L57.1557 35.7859L47.1463 34.1384L45.665 36.8499L31.1464 35.147L30.3818 35.9327Z" fill="#9CD8F8"/>
</g>
<g style="mix-blend-mode:multiply">
<path d="M159.006 52.2156L148.359 61.3073L160.279 54.0737L159.006 52.2156Z" fill="#9CD8F8"/>
</g>
<g style="mix-blend-mode:multiply">
<path d="M72.5504 131.231L79.0861 122.129L75.9667 132.048L72.5504 131.231Z" fill="#9CD8F8"/>
</g>
<path d="M177.877 102.186L161.313 120.632L161.757 139.517L132.813 139.253L131.506 137.074L127.721 130.755L125.533 127.096L67.5629 116.373L66.1415 114.014L61.8895 106.923L59.1469 102.364L54.6904 94.9287L50.8181 88.4825L50.1466 87.3662L39.1319 69.0197L32.7304 58.3598L32.3682 53.0728C32.5202 53.1009 32.681 53.1307 32.8385 53.1784C38.9397 54.5202 44.7513 56.578 50.3795 58.5278C58.9817 61.5376 67.1441 64.327 75.2361 64.0993C75.4874 64.0901 75.7297 64.0793 75.9809 64.0702C78.9381 63.9218 82.1274 63.668 85.5037 63.4025C89.3735 63.117 93.4711 62.7994 97.7146 62.5923C103.729 62.3048 110.042 62.2488 116.375 62.7897C118.504 62.9704 120.64 63.217 122.768 63.555C130.51 64.7648 138.165 67.0523 145.263 71.1004C146.776 71.9644 148.221 72.6953 149.622 73.316C154.013 75.2594 157.886 76.1057 161.373 76.3427C165.591 76.6223 169.235 76.0076 172.549 75.3783C173.237 75.2552 173.9 75.1183 174.56 74.9993L179.187 81.7613L183.187 87.6191L185.441 90.9197L177.868 102.184L177.877 102.186Z" fill="#5CBBF4"/>
<path d="M161.757 139.517L160.576 156.544L123.929 153.706L132.813 139.253L161.757 139.517Z" fill="#1D78D4"/>
<path d="M185.452 90.9124L161.154 148.223L161.757 139.517L161.313 120.632L177.877 102.186L185.452 90.9124Z" fill="#2686DA"/>
<path d="M132.813 139.253L123.929 153.706L115.914 141.626L125.533 127.096L132.813 139.253Z" fill="#2686DA"/>
<path d="M125.533 127.096L115.914 141.626L63.7539 129.121L67.5632 116.373L125.533 127.096Z" fill="#1D78D4"/>
<path d="M67.563 116.373L63.7538 129.121L32.0203 69.4936L32.7305 58.3598L67.563 116.373Z" fill="#2686DA"/>
<path d="M32.0205 69.4936L30.7935 52.7444C31.3207 52.8419 31.8446 52.9573 32.3686 53.0728L32.7307 58.3598L32.0205 69.4936Z" fill="#1D78D4"/>
<path d="M75.2454 64.1009L52.8353 86.4727L50.8184 88.4825L50.1469 87.3662L39.1321 69.0197L41.1983 67.0932L50.3887 58.5294C58.9909 61.5392 67.1533 64.3286 75.2454 64.1009Z" fill="#6DC8FA"/>
<path d="M97.7238 62.594L61.1456 100.304L59.1472 102.364L54.6908 94.9287L56.6858 92.8871L85.513 63.4042C89.3828 63.1187 93.4804 62.8011 97.7238 62.594Z" fill="#6DC8FA"/>
<path d="M61.8895 106.923L99.1781 69.2698L66.1505 114.016L61.8895 106.923Z" fill="#6DC8FA"/>
<path d="M122.777 63.5567L99.7203 83.528L116.384 62.7914C118.513 62.972 120.649 63.2187 122.777 63.5567Z" fill="#6DC8FA"/>
<path d="M161.382 76.3443L117.602 119.658L112.522 124.689L98.8403 122.158L104.046 117.15L149.631 73.3177C154.022 75.2611 157.895 76.1073 161.382 76.3443Z" fill="#6DC8FA"/>
<path d="M179.196 81.7629L134.826 133.219L131.506 137.074L127.721 130.755L129.578 128.465L172.558 75.3799C173.246 75.2569 173.909 75.1199 174.569 75.0009L179.196 81.7629Z" fill="#6DC8FA"/>
<path d="M177.877 102.186L161.313 120.632L161.757 139.517L132.813 139.253L131.507 137.074L127.722 130.755L125.533 127.096L67.5632 116.373L66.1418 114.014L61.8897 106.923L59.1471 102.364L54.6907 94.9287L50.8184 88.4825L50.1469 87.3662L39.1321 69.0197L32.7306 58.3598L32.3774 53.0745C32.5294 53.1026 32.6902 53.1323 32.8478 53.18L41.1983 67.0932L52.8353 86.4727L56.6857 92.8871L61.1455 100.304L63.901 104.894L67.1567 110.326L125.127 121.05L129.578 128.465L132.408 133.198L134.826 133.219L161.352 133.462L160.908 114.577L177.471 96.1394L183.196 87.6208L185.451 90.9214L177.877 102.186Z" fill="#6DC8FA"/>
<g style="mix-blend-mode:multiply" opacity="0.2">
<path d="M39.1411 69.0213L37.9673 80.6628L48.4593 100.387L50.1469 87.3662L39.1411 69.0213Z" fill="#9CD8F8"/>
</g>
<g style="mix-blend-mode:multiply" opacity="0.2">
<path d="M54.6904 94.9287L53.2673 109.417L56.9921 116.411L59.4879 102.918L54.6904 94.9287Z" fill="#9CD8F8"/>
</g>
<g style="mix-blend-mode:multiply" opacity="0.2">
<path d="M100.404 122.448L93.7619 136.323L102.374 138.379L112.522 124.689L100.404 122.448Z" fill="#9CD8F8"/>
</g>
<g style="mix-blend-mode:multiply" opacity="0.2">
<path d="M127.722 130.755L118.933 146.189L121.253 149.688L130.203 134.978L127.722 130.755Z" fill="#9CD8F8"/>
</g>
<g style="mix-blend-mode:multiply">
<path d="M72.5504 131.231L79.0861 122.129L75.9667 132.048L72.5504 131.231Z" fill="#9CD8F8"/>
</g>
<g style="mix-blend-mode:screen" opacity="0.4">
<path d="M209.174 83.0339C209.174 83.0339 200.298 86.0001 188.932 77.1478C177.566 68.2954 167.785 83.9449 145.279 71.1127C122.775 58.2714 94.6384 63.1358 75.9885 64.0808C57.3387 65.0257 38.4215 49.5288 14.5963 51.8714C32.1524 53.0421 44.3491 57.5049 48.7035 61.4443C53.058 65.3836 54.5238 66.0534 63.5985 67.6579C72.6749 69.2534 61.9813 64.809 69.1777 65.4263C76.374 66.0435 86.5261 65.3717 91.6549 71.4199C96.7838 77.4682 98.5131 66.4209 109.982 65.6773C121.45 64.9338 147.109 71.0618 138.411 72.3178C129.704 73.5721 162.197 84.58 156.972 80.7486C151.747 76.9172 169.483 82.9609 175.403 79.587C181.323 76.2131 181.557 74.3465 185.932 77.075C190.3 79.793 201.392 87.3335 209.18 83.0535L209.174 83.0339Z" fill="white"/>
</g>
<g style="mix-blend-mode:screen" opacity="0.4">
<path d="M26.2122 75.2617C54.1844 81.4281 53.8349 76.672 71.2861 80.5584C88.7462 84.4465 63.4359 85.6243 89.5872 89.0432C103.276 90.8337 106.635 89.3132 109.777 88.1698C112.918 87.0263 122.493 80.2304 146.872 90.8316C171.251 101.433 154.091 102.616 166.7 105.199C179.318 107.784 189.66 107.638 189.66 107.638C189.66 107.638 182.52 111.259 159.876 105.42C137.231 99.581 175.076 99.841 139.474 94.1546C103.86 88.4755 166.647 103.789 107.028 93.8363C47.4102 83.8745 77.9151 83.843 59.8517 81.5678C41.7882 79.2927 34.2504 77.5738 26.2033 75.2601L26.2122 75.2617Z" fill="white"/>
</g>
<path d="M29.3608 69.3818C34.3944 68.0506 39.7804 68.2124 44.768 69.7284C47.2807 70.4343 49.6489 71.5214 52.0841 72.2964C55.6942 73.4649 59.5232 74.3493 63.2206 73.1974C70.9764 70.1909 78.5605 74.8575 85.6846 77.4641C86.8969 77.8553 88.1777 78.1756 89.4558 77.9114C88.1952 78.2809 86.8531 78.0419 85.613 77.7012C78.4563 75.5707 70.9847 71.0455 63.4533 74.0379C59.64 75.3166 55.4708 74.3229 51.8187 73.0817C49.3488 72.2447 46.9934 71.1878 44.5615 70.3949C39.7061 68.7643 34.4532 68.4324 29.3624 69.3728L29.3608 69.3818Z" fill="white"/>
<path d="M193.818 93.3036C188.215 96.0129 183.761 94.3083 178.622 91.7629C177.039 91.127 175.352 90.6572 173.718 90.8464C172.082 90.9426 170.692 92.1133 168.908 92.6641C164.376 93.884 160.324 90.455 156.423 88.7134C155.643 88.3837 154.741 88.1613 153.912 88.4993C154.704 88.0617 155.686 88.1971 156.511 88.4886C161.1 90.2091 166.238 94.108 170.991 90.7964C173.408 89.3241 176.543 89.9133 178.941 90.9875C180.596 91.683 182.104 92.5739 183.694 93.2204C186.915 94.595 190.534 94.4671 193.827 93.3052L193.818 93.3036Z" fill="white"/>
<path d="M21.751 51.6651C29.2666 51.9056 36.6849 53.6209 43.7976 56.04C50.8462 58.6048 57.8955 61.2161 65.2538 62.707C72.5772 64.3862 80.1014 63.5806 87.5621 62.819C95.0473 62.0247 102.593 61.7516 110.113 61.9188C119.514 62.1094 129.011 63.5323 137.781 67.0831C139.333 67.6855 141.595 68.447 143.01 69.2928C146.308 71.1454 149.414 73.2405 152.945 74.4406C156.438 75.6895 160.188 76.1514 163.91 76.0147C169.554 75.8812 175.035 74.2805 180.664 73.9773C186.673 73.8187 190.561 79.081 195.699 81.2831C190.562 79.2294 186.6 74.0647 180.666 74.3206C175.067 74.7592 169.578 76.4048 163.924 76.5921C160.149 76.7653 156.308 76.3423 152.702 75.1005C149.103 73.9247 145.89 71.8097 142.623 69.9816C141.223 69.1571 139.004 68.4128 137.485 67.835C128.776 64.3512 119.434 62.9939 110.076 62.8205C102.589 62.6224 95.0857 62.8663 87.625 63.628C82.0236 64.1309 76.3322 64.8212 70.6931 64.2788C53.7516 62.4337 38.9323 52.1638 21.7454 51.6455L21.751 51.6651Z" fill="white"/>
<g style="mix-blend-mode:screen" opacity="0.4">
<path d="M84.27 103.098C97.0394 105.664 101.936 105.022 109.555 103.807C117.173 102.593 125.623 105.63 125.623 105.63C125.623 105.63 110.53 103.135 108.361 106.516C106.192 109.898 84.2717 103.089 84.2717 103.089L84.27 103.098Z" fill="white"/>
</g>
<g style="mix-blend-mode:multiply">
<path d="M30.3817 35.9327L31.1121 34.4824L45.2784 35.8419L47.1462 34.1383L45.6649 36.8498L31.1463 35.147L30.3817 35.9327Z" fill="#4BB8F2"/>
</g>
<g style="mix-blend-mode:multiply">
<path d="M159.683 53.203L153.93 57.9244L160.28 54.0737L159.683 53.203Z" fill="#4BB8F2"/>
</g>
<g style="mix-blend-mode:multiply">
<path d="M72.5504 131.231L74.8382 128.056L77.85 126.064L75.9667 132.048L72.5504 131.231Z" fill="#4BB8F2"/>
</g>
</g>
<defs>
<clipPath id="clip0_1105_16229">
<rect width="197" height="133" fill="white" transform="translate(24.1914) rotate(10.4801)"/>
</clipPath>
</defs>
</svg>
