<svg width="228" height="63" viewBox="0 0 228 63" fill="none" xmlns="http://www.w3.org/2000/svg">
<g clip-path="url(#clip0_1105_15732)">
<path d="M199.27 12.362L168.472 27.1779L154.523 32.5692L151.361 36.071L141.141 36.8539L103.063 37.9458L94.153 43.262L54.3144 33.9379L28.3489 20.9835L31.636 19.1169L39.4389 14.6679L54.0461 13.5488L71.6306 15.1603L91.7085 14.2339L94.9825 12.1978L100.736 11.7571L141.036 14.5467L154.357 13.5262L156.655 15.6269L199.27 12.362Z" fill="#CFEEFF"/>
<path d="M199.279 12.3613L225.919 18.7952L183.08 35.8975L168.47 27.168L199.279 12.3613Z" fill="#B4E6FF"/>
<path d="M168.471 27.168L183.08 35.8975L164.636 42.3151L154.522 32.5692L168.471 27.168Z" fill="#9CD8F8"/>
<path d="M164.636 42.3151L164.573 49.862L151.361 36.071L154.522 32.5692L164.636 42.3151Z" fill="#B4E6FF"/>
<path d="M151.361 36.071L164.573 49.862L150.863 50.9123L127.435 49.217L112.41 49.8566L103.063 37.9458L141.141 36.8539L151.361 36.071Z" fill="#9CD8F8"/>
<path d="M103.063 37.9458L112.41 49.8566L108.222 50.1774L94.1527 43.262L103.063 37.9458Z" fill="#B4E6FF"/>
<path d="M108.222 50.1774L55.0126 49.6003L54.3149 33.9479L94.1528 43.2619L108.222 50.1774Z" fill="#9CD8F8"/>
<path d="M54.3151 33.9479L55.0128 49.6003L45.4269 38.2394L46.8583 30.2166L54.3151 33.9479Z" fill="#B4E6FF"/>
<path d="M46.8584 30.2166L45.4271 38.2394L1.76322 32.528L28.349 20.9835L46.8584 30.2166Z" fill="#9CD8F8"/>
<path d="M1.76303 32.528L18.4746 22.2214L39.4388 14.6679L28.3488 20.9835L1.76303 32.528Z" fill="#B4E6FF"/>
<path d="M82.3637 14.6589L54.3144 33.9379C54.3144 33.9379 47.0331 30.5341 46.8583 30.2166C46.6836 29.899 71.6306 15.1603 71.6306 15.1603L82.3637 14.6589Z" fill="#E6F5FE"/>
<path d="M85.8517 14.502L69.6662 25.1295L91.7083 14.2339L85.8517 14.502Z" fill="#E6F5FE"/>
<path d="M79.2425 39.7707L116.939 12.8826L123.543 13.3395L82.2764 40.4911L79.2425 39.7707Z" fill="#E6F5FE"/>
<path d="M87.1065 41.6154L126.85 13.5675L130.853 13.8426L89.2814 42.1207L87.1065 41.6154Z" fill="#E6F5FE"/>
<path d="M154.357 13.5262L142.056 25.2401L156.655 15.6269L154.357 13.5262Z" fill="#E6F5FE"/>
<path d="M132.634 37.0944L161.919 15.2235L166.765 14.8523L134.436 37.0467L132.634 37.0944Z" fill="#E6F5FE"/>
<path d="M192.858 12.8532L199.269 12.3621L168.471 27.1779L154.522 32.5692L151.361 36.071L141.14 36.8539L103.063 37.9458L94.1527 43.262L54.3141 33.9379L28.3486 20.9835L55.2545 30.8972L95.0932 40.2212L104.003 34.9051L142.071 33.814L152.301 33.0303L155.462 29.5185L169.411 24.1273L192.858 12.8532Z" fill="#E6F5FE"/>
<g style="mix-blend-mode:multiply" opacity="0.2">
<path d="M48.1911 30.987L47.6772 40.9052L51.3949 45.3141L51.4364 32.5035L48.1911 30.987Z" fill="#9CD8F8"/>
</g>
<g style="mix-blend-mode:multiply" opacity="0.2">
<path d="M80.8672 40.1578L83.6705 49.9121L86.7621 49.9461L84.0736 40.905L80.8672 40.1578Z" fill="#9CD8F8"/>
</g>
<g style="mix-blend-mode:multiply" opacity="0.2">
<path d="M88.251 41.8888L92.3026 50.003L96.5992 50.055L90.7918 42.4564L88.251 41.8888Z" fill="#9CD8F8"/>
</g>
<g style="mix-blend-mode:multiply" opacity="0.2">
<path d="M118.514 37.5042L127.435 49.217L139.073 50.0604L130.873 37.1491L118.514 37.5042Z" fill="#9CD8F8"/>
</g>
<g style="mix-blend-mode:multiply">
<path d="M30.4312 28.1353L33.2921 22.8012L46.0569 19.7572L36.7086 24.0639L30.4312 28.1353Z" fill="#9CD8F8"/>
</g>
<g style="mix-blend-mode:multiply">
<path d="M177.177 22.9907L162.465 22.3526L178.628 22.2878L182.998 28.1511L184.893 28.5375L181.221 28.5179L177.177 22.9907Z" fill="#9CD8F8"/>
</g>
<g style="mix-blend-mode:multiply">
<path d="M30.4312 28.1353L35.3994 23.7329L46.0569 19.7572L36.7086 24.0639L30.4312 28.1353Z" fill="#4BB8F2"/>
</g>
<g style="mix-blend-mode:multiply">
<path d="M170.485 22.701L177.956 22.6903L181.631 28.1054L184.191 28.5311L181.221 28.5179L177.177 22.9907L170.485 22.701Z" fill="#4BB8F2"/>
</g>
</g>
<defs>
<clipPath id="clip0_1105_15732">
<rect width="224.55" height="44.65" fill="white" transform="translate(0.622559 17.6417) rotate(-4.38096)"/>
</clipPath>
</defs>
</svg>
