<svg width="66" height="25" viewBox="0 0 66 25" fill="none" xmlns="http://www.w3.org/2000/svg">
<g clip-path="url(#clip0_1105_16042)">
<path d="M65.91 6.19L63.43 11.26L49.03 14.68L44.85 17.21L7.9 16.52L0 12.37L0.89 11.16L4.77 5.91L22.01 0H47.19L64.32 5.66L65.91 6.19Z" fill="#CFEEFF"/>
<path d="M44.8501 17.2L45.8001 24.8L49.1301 22.56L49.0301 14.68L44.8501 17.2Z" fill="#9CD8F8"/>
<path d="M49.0298 14.68L63.4298 11.26L62.4398 20.07L49.1298 22.56L49.0298 14.68Z" fill="#B4E6FF"/>
<path d="M63.4299 11.26L65.9099 6.17999L64.6699 16.31L62.4399 20.07L63.4299 11.26Z" fill="#9CD8F8"/>
<path d="M44.8499 17.2L45.7999 24.8L11.5299 22.56L7.8999 16.51L44.8499 17.2Z" fill="#B4E6FF"/>
<path d="M0 12.37L7.9 16.51L11.53 22.56L4.23 19.52L0 12.37Z" fill="#89CAEC"/>
<path d="M7.8999 16.51L31.5899 0H38.4799L15.4899 16.65L7.8999 16.51Z" fill="#E6F5FE"/>
<path d="M18.9199 16.72L41.1199 0H45.3599L23.1899 16.8L18.9199 16.72Z" fill="#E6F5FE"/>
<path d="M35.3599 17.03L52.3999 1.72L53.8399 2.2L36.9399 17.06L35.3599 17.03Z" fill="#E6F5FE"/>
<path d="M40.5298 17.12L52.6998 6.17999L43.2398 17.17L40.5298 17.12Z" fill="#E6F5FE"/>
<path d="M65.91 6.19L63.43 11.26L49.03 14.68L44.85 17.21L7.9 16.52L0 12.37L0.89 11.16L7.08 14.41L44.03 15.1L48.21 12.58L62.61 9.16L64.32 5.66L65.91 6.19Z" fill="#E6F5FE"/>
<g style="mix-blend-mode:multiply" opacity="0.2">
<path d="M10.2798 16.56L13.1598 22.67L18.3598 23.01L15.4898 16.65L10.2798 16.56Z" fill="#9CD8F8"/>
</g>
<g style="mix-blend-mode:multiply" opacity="0.2">
<path d="M20.3599 16.75L22.8199 23.3L25.2399 23.46L22.7999 16.8L20.3599 16.75Z" fill="#9CD8F8"/>
</g>
<g style="mix-blend-mode:multiply" opacity="0.2">
<path d="M36.3999 17.04L38.4799 24.32L39.1999 24.37L37.7999 17.04H36.3999Z" fill="#9CD8F8"/>
</g>
<g style="mix-blend-mode:multiply" opacity="0.2">
<path d="M56.23 12.97V21.23L58.67 20.77L58.78 12.37L56.23 12.97Z" fill="#9CD8F8"/>
</g>
</g>
<defs>
<clipPath id="clip0_1105_16042">
<rect width="65.91" height="24.8" fill="white"/>
</clipPath>
</defs>
</svg>
