<svg width="145" height="132" viewBox="0 0 145 132" fill="none" xmlns="http://www.w3.org/2000/svg">
<g clip-path="url(#clip0_1105_15953)">
<path d="M126.491 75.9956L128.503 79.55L101.165 111.359H63.5399L9.75293 69.0221L11.4389 67.272L27.7998 50.1946L42.946 28.363L67.0024 11.5744L69.069 7.16293H87.7504L94.5213 0L116.502 26.8384L126.726 46.7395L128.503 50.1946L121.623 65.6752L121.206 66.6225L126.491 75.9956Z" fill="#CFEEFF"/>
<path d="M128.503 79.5591L126.328 94.1465L102.815 132L101.156 111.35L128.503 79.5591Z" fill="#B4E6FF"/>
<path d="M128.503 50.1946L126.146 75.3822L121.215 66.6225L128.503 50.1946Z" fill="#9CD8F8"/>
<path d="M101.156 111.35L102.815 132H75.9942L63.54 111.35H101.156Z" fill="#9CD8F8"/>
<path d="M63.5399 111.35L75.9941 132L28.5611 98.8286L9.75293 69.0312L63.5399 111.35Z" fill="#B4E6FF"/>
<path d="M25.2075 81.1919L99.7515 6.39612L107.175 15.4535L36.6193 90.1681L25.2075 81.1919Z" fill="#E6F5FE"/>
<path d="M40.0454 92.8655L110.356 19.3327L113.329 22.9593L44.1877 96.1222L40.0454 92.8655Z" fill="#E6F5FE"/>
<path d="M116.511 26.8474L84.605 62.7884L120.454 34.5336L116.511 26.8474Z" fill="#E6F5FE"/>
<path d="M121.215 66.6225L91.1313 98.7564L123.463 70.6099L121.215 66.6225Z" fill="#E6F5FE"/>
<path d="M126.491 75.9956L128.503 79.55L101.165 111.359H63.5399L9.75293 69.0222L62.1077 107.119H99.7151L126.491 75.9956Z" fill="#E6F5FE"/>
<path d="M121.624 65.6752L119.774 62.3915L126.727 46.7395L128.503 50.1946L121.624 65.6752Z" fill="#E6F5FE"/>
<g style="mix-blend-mode:multiply" opacity="0.2">
<path d="M25.2075 81.1919L33.9545 102.609L41.5684 107.931L36.6193 90.1681L25.2075 81.1919Z" fill="#9CD8F8"/>
</g>
<g style="mix-blend-mode:multiply" opacity="0.2">
<path d="M40.7979 93.4609L45.5203 110.692L49.998 113.822L45.4025 97.0785L40.7979 93.4609Z" fill="#9CD8F8"/>
</g>
<g style="mix-blend-mode:multiply" opacity="0.2">
<path d="M116.548 93.4609L116.203 110.448L122.566 100.209L123.464 85.4139L116.548 93.4609Z" fill="#9CD8F8"/>
</g>
<g style="mix-blend-mode:multiply">
<path d="M37.8882 35.6523L46.1729 40.6772L43.9068 35.6523L42.8735 36.6446L40.0455 32.5399L37.8882 35.6523Z" fill="#9CD8F8"/>
</g>
<path d="M128.503 79.55L101.166 111.35H63.5492L45.4026 97.0785L44.1971 96.1222L43.3723 95.4727L40.8162 93.4699L40.0548 92.8655L36.6376 90.1771L25.2167 81.1829L9.76221 69.0221L11.4572 67.263L27.6731 50.339C37.544 49.906 46.3363 51.0066 54.4668 51.8365C60.6849 52.477 66.5222 52.9552 72.1783 52.5131C74.7706 52.3056 77.3358 51.9087 79.8647 51.2321C80.9796 50.9344 82.0855 50.5916 83.1822 50.1856C85.122 49.4729 87.1161 48.9317 89.1555 48.5437C92.0561 47.9754 95.0563 47.6867 98.0838 47.6145C99.9691 47.5514 101.882 47.5785 103.794 47.6596C111.29 47.9754 118.75 49.1572 125.331 49.8969C126.4 50.0232 127.47 50.1315 128.494 50.2127L121.633 65.6662L121.216 66.6134L123.473 70.6099L126.147 75.3732L126.491 75.9866L128.503 79.55Z" fill="#5CBBF4"/>
<path d="M128.503 79.5591L126.328 94.1465L102.815 132L101.156 111.35L128.503 79.5591Z" fill="#2686DA"/>
<path d="M128.503 50.1946V50.2217L126.147 75.3732L123.464 70.6099L121.207 66.6225L121.623 65.6752L128.494 50.2217L128.503 50.1946Z" fill="#1D78D4"/>
<path d="M101.156 111.35L102.815 132H75.9942L63.54 111.35H101.156Z" fill="#1D78D4"/>
<path d="M63.5399 111.35L75.9941 132L28.5611 98.8286L9.75293 69.0312L63.5399 111.35Z" fill="#2686DA"/>
<path d="M72.1689 52.5131L37.5074 89.2209L36.6191 90.1681L25.1982 81.1919L25.733 80.6596L54.4575 51.8365C60.6755 52.477 66.5129 52.9552 72.1689 52.5131Z" fill="#6DC8FA"/>
<path d="M89.1552 48.5437L45.3389 94.9043L44.1877 96.1222L43.3629 95.4727L40.8068 93.4699L40.0454 92.8655L41.0697 91.801L79.8644 51.2411C80.9793 50.9434 82.0852 50.6006 83.1819 50.1946C85.1217 49.4819 87.1158 48.9407 89.1552 48.5528V48.5437Z" fill="#6DC8FA"/>
<path d="M103.794 47.6596L84.6143 62.7794L98.0837 47.6055C99.969 47.5424 101.882 47.5694 103.794 47.6506V47.6596Z" fill="#6DC8FA"/>
<path d="M121.215 66.6225L91.1313 98.7564L123.463 70.6099L121.215 66.6225Z" fill="#6DC8FA"/>
<path d="M126.491 75.9956L128.503 79.55L101.165 111.359H63.5399L9.75293 69.0222L62.1077 107.119H99.7151L126.491 75.9956Z" fill="#6DC8FA"/>
<path d="M128.494 50.2217L121.632 65.6752L119.783 62.3915L125.34 49.8969C126.409 50.0232 127.479 50.1315 128.503 50.2127L128.494 50.2217Z" fill="#6DC8FA"/>
<g style="mix-blend-mode:multiply" opacity="0.2">
<path d="M25.2075 81.1919L33.9545 102.609L41.5684 107.931L36.6193 90.1681L25.2075 81.1919Z" fill="#9CD8F8"/>
</g>
<g style="mix-blend-mode:multiply" opacity="0.2">
<path d="M40.7979 93.4609L45.5203 110.692L49.998 113.822L45.4025 97.0785L40.7979 93.4609Z" fill="#9CD8F8"/>
</g>
<g style="mix-blend-mode:multiply" opacity="0.2">
<path d="M116.548 93.4609L116.203 110.448L122.566 100.209L123.464 85.4139L116.548 93.4609Z" fill="#9CD8F8"/>
</g>
<g style="mix-blend-mode:screen" opacity="0.4">
<path d="M145 47.2808C136.008 56.5727 105.589 41.9852 83.1822 50.1946C60.7755 58.4131 37.408 42.5355 0 55.6796C17.4758 52.5402 27.4555 51.62 35.1691 55.5172C42.8827 59.4054 33.4288 72.9825 53.787 65.0347C59.0351 62.9869 64.6912 53.9746 80.4266 55.409C96.1621 56.8434 88.6569 47.0191 105.933 50.6006C123.21 54.1821 141.891 53.3882 145 47.2808Z" fill="white"/>
</g>
<g style="mix-blend-mode:screen" opacity="0.4">
<path d="M25.3071 69.9514C69.0781 79.2974 71.9696 68.6884 96.6786 67.8133C121.388 66.9382 129.926 75.31 141.057 69.6627C137.096 74.5252 107.964 73.9478 96.8327 71.512C85.7019 69.0763 78.6771 77.4391 70.755 77.6465C50.85 78.1608 41.5864 74.435 25.3071 69.9604V69.9514Z" fill="white"/>
</g>
<path d="M7.53229 53.3611C18.2552 50.2849 29.5402 49.2925 40.6619 50.0413C46.2455 50.348 51.7565 51.205 57.2766 51.6471C65.516 52.2876 73.9276 52.6304 81.8678 50.1135C84.5236 49.3106 87.1885 48.4445 89.9621 47.9032C95.5275 46.8207 101.184 47.0011 106.731 47.4161C115.079 47.9844 123.309 49.3917 131.612 50.2758C134.368 50.4923 137.178 50.6186 139.888 49.933C137.214 50.7449 134.359 50.7269 131.585 50.5916C117.862 49.7436 103.858 46.6402 90.1797 48.9858C87.4967 49.5271 84.868 50.4021 82.2032 51.2231C74.1632 53.8844 65.4525 53.4513 57.1678 52.7477C51.6024 52.2425 46.1005 51.4306 40.5804 50.9795C29.5402 50.0232 18.3459 50.781 7.51416 53.3521L7.53229 53.3611Z" fill="white"/>
<path d="M11.9104 59.2069C14.7657 57.8447 18.2282 58.6386 21.174 58.4672C22.6968 58.2056 24.3374 57.6914 25.8784 58.0251C27.4555 58.1424 28.9511 58.7469 30.5102 58.7649C29.7578 59.0716 28.9239 58.9995 28.1444 59.0085C26.8482 59.0085 24.836 58.8641 23.6123 59.1348C19.7147 60.5782 15.8715 58.6837 11.9014 59.1979L11.9104 59.2069Z" fill="white"/>
<path d="M133.969 57.114C130.026 60.2354 125.947 59.5949 121.487 58.368C119.457 57.962 117.472 57.9169 115.84 59.243C112.26 62.7343 107.256 60.3076 103.259 59.0265C102.588 58.8732 101.863 58.801 101.22 59.1619C101.791 58.6747 102.597 58.6206 103.314 58.7018C107.238 59.2611 111.87 61.5525 115.115 58.2778C116.865 56.7171 119.62 56.69 121.723 57.2223C123.173 57.5561 124.506 58.0612 125.847 58.3409C128.612 58.9724 131.449 58.4311 133.96 57.105L133.969 57.114Z" fill="white"/>
<g style="mix-blend-mode:screen" opacity="0.4">
<path d="M72.4954 87.2542C93.6603 81.8595 106.894 90.5109 114.825 85.4229C114.825 85.4229 108.236 86.0093 97.2316 84.2591C84.0613 82.1662 77.0819 85.5672 72.4863 87.2632L72.4954 87.2542Z" fill="white"/>
</g>
<g style="mix-blend-mode:multiply">
<path d="M38.7674 34.3802L44.1062 39.4232L37.8882 35.6523L38.7674 34.3802Z" fill="#4BB8F2"/>
</g>
</g>
<defs>
<clipPath id="clip0_1105_15953">
<rect width="145" height="132" fill="white"/>
</clipPath>
</defs>
</svg>
