<svg width="225" height="45" viewBox="0 0 225 45" fill="none" xmlns="http://www.w3.org/2000/svg">
<g clip-path="url(#clip0_1105_16182)">
<path d="M198.47 9.91L166.63 22.33L152.31 26.64L148.89 29.89H138.64L100.59 28.07L91.2999 32.69L52.2899 20.35L27.3899 5.45L30.8099 3.84L38.9299 0H53.5799L70.9899 2.95L91.0799 3.56L94.4999 1.78H100.27L140.24 7.64H153.6L155.73 9.91H198.47Z" fill="#CFEEFF"/>
<path d="M198.48 9.91L224.55 18.36L180.53 32.14L166.63 22.32L198.48 9.91Z" fill="#B4E6FF"/>
<path d="M166.63 22.32L180.53 32.14L161.65 37.13L152.31 26.64L166.63 22.32Z" fill="#9CD8F8"/>
<path d="M161.65 37.13L161.01 44.65L148.89 29.89L152.31 26.64L161.65 37.13Z" fill="#B4E6FF"/>
<path d="M148.89 29.89L161.01 44.65H147.26L124.03 41.17L109 40.66L100.59 28.07L138.64 29.89H148.89Z" fill="#9CD8F8"/>
<path d="M100.59 28.07L109 40.66H104.8L91.3 32.69L100.59 28.07Z" fill="#B4E6FF"/>
<path d="M104.8 40.66L51.79 36.02L52.29 20.36L91.3 32.69L104.8 40.66Z" fill="#9CD8F8"/>
<path d="M52.2901 20.36L51.7901 36.02L43.1001 23.96L45.1401 16.07L52.2901 20.36Z" fill="#B4E6FF"/>
<path d="M45.14 16.07L43.1 23.96L0 14.93L27.39 5.45L45.14 16.07Z" fill="#9CD8F8"/>
<path d="M0 14.93L17.45 5.93L38.93 0L27.39 5.45L0 14.93Z" fill="#B4E6FF"/>
<path d="M81.7301 3.27L52.2901 20.35C52.2901 20.35 45.2901 16.4 45.1401 16.07C44.9901 15.74 70.99 2.95 70.99 2.95L81.7301 3.27Z" fill="#E6F5FE"/>
<path d="M85.22 3.38L68.27 12.74L91.08 3.56L85.22 3.38Z" fill="#E6F5FE"/>
<path d="M76.7 28.07L116.34 4.14L122.89 5.1L79.67 29.02L76.7 28.07Z" fill="#E6F5FE"/>
<path d="M84.3999 30.51L126.17 5.58L130.14 6.16L86.5299 31.18L84.3999 30.51Z" fill="#E6F5FE"/>
<path d="M153.6 7.64L140.44 18.38L155.73 9.91L153.6 7.64Z" fill="#E6F5FE"/>
<path d="M130.14 29.48L161.01 9.91H165.87L131.94 29.57L130.14 29.48Z" fill="#E6F5FE"/>
<path d="M192.04 9.91H198.47L166.63 22.33L152.31 26.64L148.89 29.89H138.64L100.59 28.07L91.2999 32.69L52.2899 20.35L27.3899 5.45L53.4599 17.39L92.4699 29.73L101.76 25.11L139.8 26.93H150.06L153.48 23.67L167.8 19.36L192.04 9.91Z" fill="#E6F5FE"/>
<g style="mix-blend-mode:multiply" opacity="0.2">
<path d="M46.4099 16.94L45.1399 26.79L48.5099 31.47L49.5299 18.7L46.4099 16.94Z" fill="#9CD8F8"/>
</g>
<g style="mix-blend-mode:multiply" opacity="0.2">
<path d="M78.29 28.58L80.34 38.52L83.42 38.79L81.43 29.57L78.29 28.58Z" fill="#9CD8F8"/>
</g>
<g style="mix-blend-mode:multiply" opacity="0.2">
<path d="M85.52 30.87L88.94 39.27L93.22 39.65L88.01 31.63L85.52 30.87Z" fill="#9CD8F8"/>
</g>
<g style="mix-blend-mode:multiply" opacity="0.2">
<path d="M116.03 28.81L124.03 41.17L135.57 42.9L128.38 29.4L116.03 28.81Z" fill="#9CD8F8"/>
</g>
<g style="mix-blend-mode:multiply">
<path d="M28.9199 12.74L32.1799 7.64L45.1399 5.58L35.4899 9.16L28.9199 12.74Z" fill="#9CD8F8"/>
</g>
<g style="mix-blend-mode:multiply">
<path d="M175.63 18.82L161.01 17.06L177.13 18.23L181.04 24.41L182.9 24.94L179.24 24.64L175.63 18.82Z" fill="#9CD8F8"/>
</g>
<g style="mix-blend-mode:multiply">
<path d="M28.9199 12.74L34.2099 8.73L45.1399 5.58L35.4899 9.16L28.9199 12.74Z" fill="#4BB8F2"/>
</g>
<g style="mix-blend-mode:multiply">
<path d="M168.98 18.02L176.43 18.58L179.68 24.26L182.2 24.88L179.24 24.64L175.63 18.82L168.98 18.02Z" fill="#4BB8F2"/>
</g>
</g>
<defs>
<clipPath id="clip0_1105_16182">
<rect width="224.55" height="44.65" fill="white"/>
</clipPath>
</defs>
</svg>
