<svg width="111" height="73" viewBox="0 0 111 73" fill="none" xmlns="http://www.w3.org/2000/svg">
<g clip-path="url(#clip0_1105_15669)">
<path d="M102.796 30.0891L96.5278 40.106L100.23 47.2036L83.3511 52.3596L76.9004 49.062L41.2316 55.5154L10.3923 39.7937L1.12389 24.4357L27.4655 14.2416L28.029 13.1527L37.2475 12.0677L37.6941 14.5359L81.0157 13.7777L103.231 23.5875L105.147 24.4338L102.796 30.0891Z" fill="#CFEEFF"/>
<path d="M100.23 47.2036L102.648 53.8885L80.8186 59.4661L83.3511 52.3596L100.23 47.2036Z" fill="#9CD8F8"/>
<path d="M105.146 24.43L101.468 50.6205L100.23 47.2036L96.5278 40.106L102.796 30.0892L105.146 24.43Z" fill="#B4E6FF"/>
<path d="M83.3508 52.3596L80.8184 59.4661L73.9528 56.333L76.9001 49.062L83.3508 52.3596Z" fill="#B4E6FF"/>
<path d="M76.9003 49.062L73.953 56.333L41.3401 61.0522L41.2315 55.5153L76.9003 49.062Z" fill="#9CD8F8"/>
<path d="M41.2314 55.5154L41.34 61.0522L12.0082 44.1563L10.3921 39.7937L41.2314 55.5154Z" fill="#B4E6FF"/>
<path d="M1.12402 24.4357L10.3924 39.7937L12.0085 44.1563L2.44226 28.5531L1.12402 24.4357Z" fill="#89CAEC"/>
<path d="M16.0634 42.6844L37.6986 14.539L50.3645 14.3146L26.4052 47.959L16.0634 42.6844Z" fill="#E6F5FE"/>
<path d="M29.8335 49.7052L54.4002 14.245L59.5631 14.1541L33.7819 51.7185L29.8335 49.7052Z" fill="#E6F5FE"/>
<path d="M36.2052 52.9549L51.0259 31.8747L39.977 54.8758L36.2052 52.9549Z" fill="#E6F5FE"/>
<path d="M66.4914 14.0352L53.9416 37.1913L73.2444 13.9169L66.4914 14.0352Z" fill="#E6F5FE"/>
<path d="M86.9329 16.3907L60.4765 52.0335L68.8905 50.5112L91.8628 18.5685L86.9329 16.3907Z" fill="#E6F5FE"/>
<path d="M95.2537 20.0649L78.8393 50.0557L82.1951 51.7683L99.8402 22.0911L95.2537 20.0649Z" fill="#E6F5FE"/>
<path d="M102.797 30.0892L96.5278 40.106L100.23 47.2036L83.3511 52.3596L76.9005 49.062L41.2316 55.5154L10.3923 39.7937L9.05371 37.5685L39.893 53.2902L75.5618 46.8368L82.0118 50.1306L98.8907 44.9746L95.1892 37.8808L101.458 27.8639L103.231 23.5875L105.147 24.4338L102.797 30.0892Z" fill="#E6F5FE"/>
<g style="mix-blend-mode:multiply" opacity="0.2">
<path d="M16.0635 42.6844L17.5028 47.3199L27.2033 52.9088L25.812 47.6545L16.0635 42.6844Z" fill="#9CD8F8"/>
</g>
<g style="mix-blend-mode:multiply" opacity="0.2">
<path d="M29.8335 49.7052L31.6486 55.4695L35.0881 57.4507L34.0786 51.8708L29.8335 49.7052Z" fill="#9CD8F8"/>
</g>
<g style="mix-blend-mode:multiply" opacity="0.2">
<path d="M61.4395 51.8593L60.1038 58.3374L65.4929 57.5567L68.8905 50.5112L61.4395 51.8593Z" fill="#9CD8F8"/>
</g>
<g style="mix-blend-mode:multiply" opacity="0.2">
<path d="M78.8392 50.0557L76.5462 57.5153L78.5317 58.4228L81.0526 51.2095L78.8392 50.0557Z" fill="#9CD8F8"/>
</g>
<g style="mix-blend-mode:multiply">
<path d="M4.93372 31.6966L4.68865 30.3421L12.9332 28.3142L12.9991 27.6223L20.4788 26.778L14.3533 27.9718L13.9919 29.2728L5.23332 31.2616L4.93372 31.6966Z" fill="#9CD8F8"/>
</g>
<g style="mix-blend-mode:multiply">
<path d="M82.7068 14.5247L78.1711 19.9149L83.7838 15.0021L82.7068 14.5247Z" fill="#9CD8F8"/>
</g>
<g style="mix-blend-mode:multiply">
<path d="M46.8439 60.2585L48.9824 55.609L48.9792 59.946L46.8439 60.2585Z" fill="#9CD8F8"/>
</g>
</g>
<defs>
<clipPath id="clip0_1105_15669">
<rect width="102.361" height="54.9719" fill="white" transform="translate(0 18.2238) rotate(-10.2553)"/>
</clipPath>
</defs>
</svg>
