<svg width="177" height="43" viewBox="0 0 177 43" fill="none" xmlns="http://www.w3.org/2000/svg">
<path d="M177 16.7086L144.768 21.6093L135.845 25.6868L114.812 21.6608L103.24 20.5675L74.6982 24.2205L72.1525 21.8794L58.8457 24.2719L40.4347 30.2273L37.5677 29.4813L2.55851 30.6389L0 29.6485V28.3365L0.848551 28.1822L21.548 24.2205L37.4648 18.5866V16.8115L39.1233 15.1394L64.9913 8.36075L59.9385 6.67574L64.1684 4.12893L89.4707 0H138.867L132.143 7.51182H149.769L150.245 8.50224L174.03 7.51182L176.447 14.985L177 16.7086Z" fill="#CFEEFF"/>
<path d="M177 16.7086L144.768 21.6093L135.845 25.6868L114.812 21.6608L103.24 20.5675L74.6982 24.2205L72.1525 21.8795L58.8457 24.2719L40.4347 30.2273L37.5677 29.4813L2.55851 30.6389L0 29.6485L37.5677 27.6934L40.4347 28.4266L58.8457 22.4711L72.1525 20.0787L74.6982 22.4197L103.24 18.7667L114.812 19.86L135.845 23.886L144.768 19.8214L176.447 14.985L177 16.7086Z" fill="#E6F5FE"/>
<path d="M138.867 0L138.301 7.51182H132.143L138.867 0Z" fill="#9CD8F8"/>
<path d="M177 16.7086L168.18 35.4367L144.549 39.0383L144.768 21.6093L177 16.7086Z" fill="#B4E6FF"/>
<path d="M144.768 21.6093L144.562 39.0383C144.562 39.0383 133.57 43.2315 133.647 42.9871C133.724 42.7556 135.845 25.674 135.845 25.674L144.768 21.6093Z" fill="#9CD8F8"/>
<path d="M135.845 25.674L133.647 42.9871C133.647 42.9871 120.224 42.1254 120.109 42.0868C119.993 42.0482 105.4 38.1379 105.4 38.1379L107.509 29.6871L114.824 21.6608L135.845 25.674Z" fill="#B4E6FF"/>
<path d="M114.824 21.6608L107.509 29.6871L103.24 20.5674L114.824 21.6608Z" fill="#89CAEC"/>
<path d="M103.24 20.5674L107.509 29.6871L105.388 38.1379H97.2877L76.3953 41.2378L74.6982 24.2205L103.24 20.5674Z" fill="#9CD8F8"/>
<path d="M76.3952 41.2378L67.9482 37.8678L72.1524 21.8666L74.6981 24.2205L76.3952 41.2378Z" fill="#B4E6FF"/>
<path d="M72.1525 21.8666L67.9483 37.8678L55.1943 38.8839L58.8457 24.2719L72.1525 21.8666Z" fill="#89CAEC"/>
<path d="M58.8456 24.2719L55.1943 38.8839L37.9019 42.3311L40.4347 30.2145L58.8456 24.2719Z" fill="#9CD8F8"/>
<path d="M40.4346 30.2145L37.9018 42.3311L35.0476 41.7009L37.5675 29.4942L40.4346 30.2145Z" fill="#B4E6FF"/>
<path d="M37.5677 29.4942L35.0478 41.7009L21.3167 39.3984L3.9857 39.3084L2.55859 30.639L37.5677 29.4942Z" fill="#9CD8F8"/>
<path d="M3.98562 39.3084L0 35.9127V29.6485L2.55851 30.639L3.98562 39.3084Z" fill="#B4E6FF"/>
<path d="M59.9386 6.6886L59.6172 9.76278L65.0042 8.34789L59.9386 6.6886Z" fill="#9CD8F8"/>
<path d="M40.4347 30.2145L37.5676 29.4942L78.5424 1.78793L85.1636 0.707458L48.3674 27.6548L40.4347 30.2145Z" fill="#E6F5FE"/>
<path d="M53.0474 26.1499L89.4708 0H94.2921L58.8458 24.2719L53.0474 26.1499Z" fill="#E6F5FE"/>
<path d="M68.6299 22.5097L85.1638 9.27402L70.8541 22.0981L68.6299 22.5097Z" fill="#E6F5FE"/>
<path d="M133.634 0L106.377 20.8633L110.44 21.2492L136.732 0H133.634Z" fill="#E6F5FE"/>
<path d="M130.523 0L99.2804 21.0691L91.7849 22.0338L122.114 0H130.523Z" fill="#E6F5FE"/>
<path d="M103.24 20.5675L119.954 8.50226L105.388 20.7733L103.24 20.5675Z" fill="#E6F5FE"/>
<path d="M149.769 7.51181L141.052 19.5256L150.245 8.5151L149.769 7.51181Z" fill="#E6F5FE"/>
<g style="mix-blend-mode:multiply" opacity="0.2">
<path d="M50.566 26.9474L46.9532 40.5304L41.0391 41.7009L42.6976 29.4942L50.566 26.9474Z" fill="#9CD8F8"/>
</g>
<g style="mix-blend-mode:multiply" opacity="0.2">
<path d="M91.7848 22.0338L89.9077 39.2312L97.2875 38.1379L99.2803 21.0691L91.7848 22.0338Z" fill="#9CD8F8"/>
</g>
<g style="mix-blend-mode:multiply" opacity="0.2">
<path d="M126.074 23.8089L120.096 42.0996L123.734 42.3312L129.43 24.452L126.074 23.8089Z" fill="#9CD8F8"/>
</g>
<g style="mix-blend-mode:multiply">
<path d="M79.4553 40.7876L78.3496 23.8089L87.4137 15.8854L85.6523 15.3195L99.2805 11.0233L88.5065 14.9851L91.785 15.3195L80.9981 23.4101L81.6538 40.4532L79.4553 40.7876Z" fill="#9CD8F8"/>
</g>
<g style="mix-blend-mode:multiply">
<path d="M174.943 10.3416L159.669 12.4511L160.775 13.5187L158.653 14.1232H162.305L161.996 12.837L175.303 11.4478L174.943 10.3416Z" fill="#9CD8F8"/>
</g>
<g style="mix-blend-mode:multiply">
<path d="M81.6537 40.4532L80.1108 22.8184L89.0463 16.3099L88.5063 14.985L91.7848 15.3195L80.998 23.4101L81.6537 40.4532Z" fill="#4BB8F2"/>
</g>
<g style="mix-blend-mode:multiply">
<path d="M175.303 11.4478L161.16 12.6826L161.508 13.7117L160.698 13.8403L158.653 14.1233H162.305L161.996 12.837L175.303 11.4478Z" fill="#4BB8F2"/>
</g>
</svg>
