<svg width="330" height="66" viewBox="0 0 330 66" fill="none" xmlns="http://www.w3.org/2000/svg">
<g clip-path="url(#clip0_1105_15780)">
<path d="M291.673 14.6486L244.88 33.0074L223.836 39.3783L218.81 44.1823L203.746 44.1823L147.828 41.492L134.175 48.3212L76.8456 30.0806L40.2524 8.05599L45.2785 5.67615L57.2117 -4.66851e-08L78.7414 -1.05952e-07L104.327 4.36058L133.852 5.26226L138.878 2.63113L147.357 2.63113L206.097 11.2932L225.731 11.2932L228.862 14.6486L291.673 14.6486Z" fill="#CFEEFF"/>
<path d="M291.687 14.6486L330 27.1391L265.308 47.5082L244.88 32.9926L291.687 14.6486Z" fill="#B4E6FF"/>
<path d="M244.88 32.9926L265.308 47.5082L237.562 54.8842L223.835 39.3783L244.88 32.9926Z" fill="#9CD8F8"/>
<path d="M237.562 54.8842L236.621 66L218.81 44.1823L223.836 39.3783L237.562 54.8842Z" fill="#B4E6FF"/>
<path d="M218.81 44.1823L236.621 66L216.414 66L182.275 60.856L160.187 60.1021L147.828 41.492L203.746 44.1823L218.81 44.1823Z" fill="#9CD8F8"/>
<path d="M147.827 41.492L160.187 60.1021L154.014 60.1021L134.175 48.3211L147.827 41.492Z" fill="#B4E6FF"/>
<path d="M154.015 60.1021L76.1108 53.2434L76.8456 30.0954L134.175 48.3212L154.015 60.1021Z" fill="#9CD8F8"/>
<path d="M76.8455 30.0954L76.1107 53.2435L63.3398 35.4168L66.3378 23.7541L76.8455 30.0954Z" fill="#B4E6FF"/>
<path d="M66.338 23.7541L63.34 35.4168L3.85747e-08 22.069L40.2525 8.056L66.338 23.7541Z" fill="#9CD8F8"/>
<path d="M6.0751e-08 22.069L25.6446 8.76551L57.2118 -1.57491e-07L40.2525 8.05599L6.0751e-08 22.069Z" fill="#B4E6FF"/>
<path d="M120.111 4.83361L76.8455 30.0806C76.8455 30.0806 66.5583 24.2419 66.3379 23.7541C66.1174 23.2663 104.327 4.3606 104.327 4.3606L120.111 4.83361Z" fill="#E6F5FE"/>
<path d="M125.24 4.99619L100.33 18.8318L133.852 5.26225L125.24 4.99619Z" fill="#E6F5FE"/>
<path d="M112.719 41.492L170.974 6.1196L180.6 7.53864L117.083 42.8963L112.719 41.492Z" fill="#E6F5FE"/>
<path d="M124.035 45.0988L185.42 8.24814L191.254 9.10547L127.165 46.0891L124.035 45.0988Z" fill="#E6F5FE"/>
<path d="M225.732 11.2932L206.392 27.1687L228.862 14.6486L225.732 11.2932Z" fill="#E6F5FE"/>
<path d="M191.254 43.5762L236.621 14.6486L243.763 14.6486L193.9 43.7093L191.254 43.5762Z" fill="#E6F5FE"/>
<path d="M282.223 14.6486L291.673 14.6486L244.88 33.0074L223.836 39.3783L218.81 44.1823L203.746 44.1823L147.828 41.4921L134.175 48.3212L76.8456 30.0806L40.2524 8.056L78.5651 25.7053L135.894 43.9458L149.547 37.1167L205.451 39.8069L220.529 39.8069L225.555 34.9881L246.6 28.6173L282.223 14.6486Z" fill="#E6F5FE"/>
<g style="mix-blend-mode:multiply" opacity="0.2">
<path d="M68.2043 25.0401L66.3379 39.6L71.2905 46.5178L72.7895 27.6417L68.2043 25.0401Z" fill="#9CD8F8"/>
</g>
<g style="mix-blend-mode:multiply" opacity="0.2">
<path d="M115.056 42.2459L118.068 56.9389L122.595 57.338L119.67 43.7093L115.056 42.2459Z" fill="#9CD8F8"/>
</g>
<g style="mix-blend-mode:multiply" opacity="0.2">
<path d="M125.681 45.6309L130.707 58.0475L136.997 58.6092L129.34 46.7543L125.681 45.6309Z" fill="#9CD8F8"/>
</g>
<g style="mix-blend-mode:multiply" opacity="0.2">
<path d="M170.519 42.5859L182.275 60.856L199.235 63.4132L188.668 43.458L170.519 42.5859Z" fill="#9CD8F8"/>
</g>
<g style="mix-blend-mode:multiply">
<path d="M42.501 18.8318L47.2919 11.2932L66.338 8.24814L52.1563 13.54L42.501 18.8318Z" fill="#9CD8F8"/>
</g>
<g style="mix-blend-mode:multiply">
<path d="M258.107 27.819L236.621 25.2175L260.311 26.9469L266.057 36.082L268.791 36.8654L263.412 36.4219L258.107 27.819Z" fill="#9CD8F8"/>
</g>
<g style="mix-blend-mode:multiply">
<path d="M42.501 18.8318L50.2752 12.9044L66.338 8.24814L52.1563 13.54L42.501 18.8318Z" fill="#4BB8F2"/>
</g>
<g style="mix-blend-mode:multiply">
<path d="M248.334 26.6365L259.283 27.4643L264.059 35.8602L267.762 36.7767L263.412 36.4219L258.107 27.819L248.334 26.6365Z" fill="#4BB8F2"/>
</g>
</g>
<defs>
<clipPath id="clip0_1105_15780">
<rect width="330" height="66" fill="white"/>
</clipPath>
</defs>
</svg>
